<?xml version="1.0" encoding="UTF-8"?>
<svg width="126px" height="32px" viewBox="0 0 126 32" version="1.1" xmlns="http://www.w3.org/2000/svg" xmlns:xlink="http://www.w3.org/1999/xlink">
    <!-- Generator: Sketch 52.2 (67145) - http://www.bohemiancoding.com/sketch -->
    <title>Group 13</title>
    <desc>Created with Sketch.</desc>
    <g id="Page-1" stroke="none" stroke-width="1" fill="none" fill-rule="evenodd">
        <g id="XL≥1200" transform="translate(-244.000000, -3486.000000)" fill="#858D97">
            <g id="Group-7-[0v]">
                <g id="Group-5" transform="translate(0.000000, 3144.000000)">
                    <g id="Group-3-[48v]" transform="translate(60.000000, 124.000000)">
                        <g id="Group-8" transform="translate(0.000000, 212.000000)">
                            <g id="Group-13" transform="translate(184.000000, 6.000000)">
                                <path d="M125.917394,0.5 C125.945033,0.807836483 125.996564,1.11536123 125.99672,1.42319772 C126.000936,10.9249799 126.000468,20.4267621 125.99875,29.9285443 C125.99875,30.1793336 125.976889,30.4301229 125.969549,30.5861454 C123.25934,27.8821721 120.531953,25.1610534 117.625614,22.2614675 L117.625614,8.97321867 L104.050831,8.97321867 C103.912166,8.84868128 103.813165,8.7674748 103.722908,8.67738392 C101.202582,6.16325609 98.6806937,3.65068692 96.1687998,1.12798643 C95.9995289,0.957935993 95.9075541,0.711043341 95.779664,0.5 L125.917394,0.5 Z M38.7052861,3.00172705 C41.4382674,6.15760681 44.1727809,9.31501863 46.960002,12.5335594 C49.7430861,9.32084044 52.4774464,6.16450106 55.2277415,2.98977702 L60.9000912,2.98977702 L60.9000912,28.9081615 L54.4803354,28.9081615 L54.4803354,12.9643733 L54.3353895,12.885932 C52.0524147,15.5357741 49.7695931,18.1853097 47.4800299,20.8426588 L46.4402804,20.8426588 C44.1619022,18.1968001 41.8726454,15.5377658 39.4730704,12.750958 L39.4730704,28.8905429 L33.0600563,28.8905429 L33.0600563,3.00172705 L38.7052861,3.00172705 Z M71.6540211,7.70270799 L71.6540211,24.0967842 C72.8285682,24.0967842 73.9487533,24.1161719 75.0678901,24.0905251 C75.9381301,24.0706794 76.8205005,24.0748012 77.6745668,23.9294696 C80.6804967,23.4177558 82.685598,21.6920958 83.5580845,18.678297 C83.9008791,17.4941192 83.9673713,16.2765091 83.8884492,15.0526399 C83.6298182,11.0305268 81.2290579,8.35990603 77.3055646,7.91597295 C75.4569597,7.70682978 73.5790023,7.76682487 71.6540211,7.70270799 Z M65.2500966,28.8646377 L65.2500966,3.05820316 C65.4062935,3.0374415 65.5255004,3.00752029 65.6445575,3.00782561 C69.7124169,3.013474 73.7826723,2.93867097 77.847237,3.05774518 C80.9004902,3.14705084 83.7343489,4.09140092 86.1445439,6.10299177 C88.5798982,8.13595492 89.9013572,10.8035225 90.3293638,13.9454024 C90.6571827,16.3502435 90.4623483,18.7164618 89.6273013,21.0051292 C88.3864117,24.4056138 85.9655839,26.560399 82.6782599,27.781673 C80.8350463,28.466655 78.9217461,28.8182293 76.9663642,28.8444866 C73.2737968,28.8937956 69.5807801,28.891811 65.8879132,28.9081455 C65.6926296,28.9089088 65.497346,28.8821935 65.2500966,28.8646377 Z M10.1911656,19.1995616 L17.8788758,19.1995616 C16.5438591,15.9227155 15.2360572,12.7124949 13.9282552,9.50242672 C13.8775641,9.50517101 13.8270225,9.50791531 13.7766304,9.51050715 C12.5874068,12.7239295 11.3981833,15.9375042 10.1911656,19.1995616 Z M10.1439136,3.08930362 L17.4507673,3.08930362 C21.1799318,11.6478591 24.9177692,20.226387 28.6907464,28.8851094 L21.8489355,28.8851094 C21.1678198,27.2213016 20.4807228,25.5425526 19.7825605,23.8366655 L8.47693717,23.8366655 C7.84770888,25.5233425 7.22206935,27.2007194 6.58820559,28.8998982 L1.42108547e-14,28.8998982 C0.0302053503,28.3797009 9.60275936,4.02160315 10.1439136,3.08930362 Z M95.776302,19.4249822 L104.477247,10.7652924 L104.477247,22.7125188 L116.580161,22.7125188 C116.331007,23.2807623 109.473226,30.2308064 107.945486,31.5 L95.8841518,31.5 C95.7041366,30.8588234 95.633405,21.5863373 95.776302,19.4249822 Z" id="Combined-Shape"></path>
                            </g>
                        </g>
                    </g>
                </g>
            </g>
        </g>
    </g>
</svg>