<?xml version="1.0" encoding="UTF-8"?>
<svg width="33px" height="40px" viewBox="0 0 33 40" version="1.1" xmlns="http://www.w3.org/2000/svg" xmlns:xlink="http://www.w3.org/1999/xlink">
    <!-- Generator: Sketch 52.2 (67145) - http://www.bohemiancoding.com/sketch -->
    <title>Page 1</title>
    <desc>Created with Sketch.</desc>
    <g id="Symbols" stroke="none" stroke-width="1" fill="none" fill-rule="evenodd">
        <g id="Icon/OS-iOS" transform="translate(-4.000000, 0.000000)" stroke="#C1C9D4">
            <g id="Page-1" transform="translate(4.000000, 0.000000)">
                <path d="M31.2207384,13.7210614 C31.2350045,13.7126554 31.2385583,13.7107715 31.2508045,13.7043662 C31.2505237,13.7045113 31.2500093,13.7047817 31.2486994,13.7054702 C31.2007541,13.7340157 31.2000666,13.734425 31.2207384,13.7210614 Z M31.2508045,13.7043662 C31.2511409,13.7041903 31.2514839,13.7040109 31.2518338,13.7038279 C31.2514499,13.7040276 31.2512168,13.7041489 31.2509446,13.7042912 Z M31.1568813,13.7601078 C30.3514525,12.60379 29.3489,11.7312782 28.1935808,11.1050497 C26.8298053,10.3656253 25.4002039,10.0371262 24.0884245,9.97904615 C22.731558,9.84412062 21.4377336,10.136229 19.578584,10.8502292 C19.4119434,10.914227 19.285514,10.9636845 18.988271,11.0806614 C17.6233309,11.6187335 17.1471263,11.7735 16.6149,11.7735 C16.0261237,11.7735 15.5171399,11.6107251 14.1644212,11.0742231 C12.2610997,10.3186714 11.3243029,10.051681 10.1584049,10.0724437 C8.5411287,10.0967215 6.96103661,10.560199 5.55916758,11.4090282 C4.1550744,12.2605179 2.97131308,13.4745133 2.12811727,14.9411453 C0.683527619,17.4479863 0.220004864,20.6083687 0.658000949,24.0881795 C1.12764903,27.8268009 2.64111072,31.742426 4.60415523,34.577125 C5.75307224,36.2386569 6.48098719,37.1705997 7.33275961,37.9686274 C8.4548369,39.0199338 9.55390593,39.5404059 10.7339,39.4975 L10.7159809,39.4978969 C11.6136597,39.4621066 12.2441583,39.2822263 13.3160924,38.8292143 C13.4097421,38.7895536 13.4097421,38.7895536 13.5035921,38.7496487 C14.9802232,38.1192833 15.7825991,37.8955 17.1309,37.8955 C18.3817586,37.8955 19.1876033,38.1157502 20.490414,38.6780725 C20.5421128,38.700404 20.5421128,38.700404 20.5934003,38.7225908 C21.914621,39.2940824 22.5313822,39.4676358 23.5886296,39.4475859 C24.8070687,39.4249913 25.8735459,38.9200497 26.921271,37.9404115 C27.7265565,37.1868712 28.3661093,36.3568366 29.5182616,34.6731359 C30.305549,33.5226176 30.9584488,32.3044737 31.4877962,31.0816217 C31.8208676,30.3121893 32.0281234,29.7360102 32.1977159,29.1957343 C31.4345572,28.8753271 30.5410898,28.3463929 29.6116037,27.46199 C27.9779915,25.9076138 26.9856681,23.8457879 26.9629242,21.2354243 C26.9418583,19.0965303 27.6717794,17.2691673 28.9158404,15.7527446 C29.3635818,15.2069794 29.8523838,14.734527 30.3567856,14.3309697 C30.6683218,14.0817187 30.9124752,13.912753 31.1568813,13.7601078 Z M32.2070039,29.1671489 C32.205836,29.1725339 32.2037385,29.1819681 32.2004136,29.1968662 C32.2003901,29.1968564 32.2003665,29.1968465 32.200343,29.1968366 C32.2031721,29.1839954 32.2052736,29.1745673 32.2070039,29.1671489 Z M32.4315053,28.7803354 L32.4409,28.783492 L32.4409,29.2545 L32.4389,29.2545 L32.2711261,29.2213781 L32.4315053,28.7803354 Z M33.1826606,29.3790323 C33.18275,29.378629 33.1828401,29.378223 33.1829307,29.3778143 L33.1829397,29.3777594 C33.182846,29.3781865 33.182753,29.3786108 33.1826606,29.3790323 Z" id="Fill-1"></path>
                <path d="M23.7153566,3.62822369 C24.0527968,2.59385206 24.1813929,1.53912026 24.0799479,0.519237949 C23.1498232,0.569594019 22.1009352,0.879612017 21.0942986,1.39798267 C20.1095718,1.90420243 19.2116652,2.58523728 18.5369702,3.34300752 L18.4400398,3.4551929 C17.7205895,4.28787154 17.1077481,5.33866972 16.7355565,6.4228015 C16.3893186,7.43030513 16.2589346,8.4391984 16.3738452,9.3882308 C17.3410958,9.4518856 18.356284,9.23167896 19.3396707,8.76289952 C20.3323616,8.29002088 21.2552017,7.57584596 21.9701771,6.74055307 L22.052956,6.64017812 C22.7822047,5.75591521 23.3605249,4.71581729 23.7153566,3.62822369 Z" id="Fill-4"></path>
            </g>
        </g>
    </g>
</svg>