<?xml version="1.0" encoding="UTF-8"?>
<svg width="485px" height="380px" viewBox="0 0 485 380" version="1.1" xmlns="http://www.w3.org/2000/svg" xmlns:xlink="http://www.w3.org/1999/xlink">
    <!-- Generator: Sketch 52.6 (67491) - http://www.bohemiancoding.com/sketch -->
    <title>Image/Install-mining-soft</title>
    <desc>Created with Sketch.</desc>
    <g id="Image/Install-mining-soft" stroke="none" stroke-width="1" fill="none" fill-rule="evenodd">
        <g id="Group-33" stroke="#0059FF">
            <path d="M110.999649,186.88282 C102.860449,186.88282 100.221867,186.241333 96.6184987,184.297924 C98.4792085,184.593401 100.426348,184.754123 102.435325,184.754123 C115.258622,184.754123 125.691385,178.359613 125.691385,170.499649 C125.691385,162.640387 115.258622,156.245877 102.435325,156.245877 C100.426348,156.245877 98.4799111,156.406599 96.6199041,156.701374 C100.26965,154.90816 102.861152,154.11718 110.999649,154.11718 C125.739168,154.11718 137.729784,161.466902 137.729784,170.499649 C137.729784,179.533098 125.739168,186.88282 110.999649,186.88282 Z M88.7132932,178.516124 C90.4707082,178.966709 92.3862274,179.192703 94.447905,179.192703 C98.4581279,179.192703 101.918851,178.351892 104.721861,176.633775 C107.524169,174.917062 108.951322,172.829775 108.951322,170.337523 C108.951322,167.845973 107.524169,165.758685 104.721861,164.04127 C101.918851,162.323855 98.4581279,161.482343 94.447905,161.482343 C92.7143812,161.482343 91.089071,161.650084 89.5684608,161.967318 C92.0292634,160.136204 94.6200628,158.863057 102.435325,158.863057 C112.903222,158.863057 121.420466,164.084083 121.420466,170.499649 C121.420466,176.915917 112.903222,182.136241 102.435325,182.136241 C94.1893169,182.136241 91.6455975,180.955738 88.7132932,178.516124 Z M94.447905,164.249016 C97.2382669,164.249016 99.5824238,164.830846 101.480376,165.993803 C103.376922,167.156761 104.32625,168.592736 104.32625,170.337523 C104.32625,172.081608 103.376922,173.518285 101.480376,174.681944 C99.5824238,175.8442 97.2382669,176.426731 94.447905,176.426731 C91.7130552,176.426731 89.3688983,175.8442 87.4723516,174.681944 C85.5743996,173.518285 84.6257749,172.081608 84.6257749,170.337523 C84.6257749,168.592736 85.5743996,167.156761 87.4723516,165.993803 C89.3688983,164.830846 91.7130552,164.249016 94.447905,164.249016 Z M110.999649,151.5 C94.1218592,151.5 80.3604774,159.81125 80.0161618,170.105914 C80.013351,170.183819 80,170.258214 80,170.337523 C80,170.357876 80.0042161,170.376826 80.0042161,170.397882 C80.0042161,170.432272 80,170.465259 80,170.499649 C80,180.976793 93.9068376,189.5 110.999649,189.5 C128.093162,189.5 142,180.976793 142,170.499649 C142,160.023207 128.093162,151.5 110.999649,151.5 Z" id="Stroke-1"></path>
            <path d="M175.56019,240.5 L48.4405084,240.5 C45.9883082,240.5 44,238.527057 44,236.0945 L44,211.906193 C44,209.472943 45.9883082,207.5 48.4405084,207.5 L175.56019,207.5 C178.013089,207.5 180,209.472943 180,211.906193 L180,236.0945 C180,238.527057 178.013089,240.5 175.56019,240.5 Z" id="Stroke-3"></path>
            <path d="M44,210.5 L61.2471413,140.16479 C61.7739102,138.012722 63.6888619,136.5 65.8860613,136.5 L158.113939,136.5 C160.311138,136.5 162.22609,138.012722 162.752859,140.16479 L180,210.5" id="Stroke-5"></path>
            <path d="M65,223.99965 C65,226.484991 62.9849911,228.5 60.4996501,228.5 C58.0150089,228.5 56,226.484991 56,223.99965 C56,221.514309 58.0150089,219.5 60.4996501,219.5 C62.9849911,219.5 65,221.514309 65,223.99965 Z" id="Stroke-7"></path>
            <path d="M423.130816,241.5 L303.869184,241.5 C300.628139,241.5 298,238.858229 298,235.600374 L298,143.399626 C298,140.141771 300.628139,137.5 303.869184,137.5 L353.144697,137.5 C356.386442,137.5 359.013881,140.141771 359.013881,143.399626 L359.013881,148.973254 L423.130816,148.973254 C426.371861,148.973254 429,151.614321 429,154.872176 L429,235.600374 C429,238.858229 426.371861,241.5 423.130816,241.5 Z" id="Stroke-9"></path>
            <path d="M336.169228,214.994692 L333.594566,219.606906 C332.364055,221.811065 333.105051,224.62415 335.24937,225.88831 C335.952039,226.302324 336.717243,226.5 337.473032,226.5 C339.024284,226.5 340.533174,225.669207 341.360912,224.187327 L345,217.666776 C343.24299,214.347751 338.690096,213.98834 336.169228,214.994692 Z" id="Stroke-11"></path>
            <path d="M364.45204,202.195256 L352.883933,202.195256 L371.391251,169.469311 C372.65111,167.239919 371.892715,164.39622 369.695367,163.117989 C367.500085,161.839757 364.695883,162.609212 363.435336,164.837906 L361.756672,167.806702 L360.064921,164.829519 C358.80024,162.603621 355.996039,161.839058 353.801446,163.122881 C351.607542,164.406004 350.854658,167.251101 352.119338,169.477698 L356.476149,177.144991 L342.309109,202.195256 L331.586189,202.195256 C329.052695,202.195256 327,204.277886 327,206.847628 C327,209.41737 329.052695,211.5 331.586189,211.5 L370.996555,211.5 C372.811606,206.847628 369.706388,202.195256 364.45204,202.195256 Z" id="Stroke-13"></path>
            <path d="M393.344986,202.806517 L382.560906,202.806517 L369.616794,180.5 C369.616794,180.5 362.163318,186.087745 368.656003,197.364666 C371.236993,201.847089 383.637776,223.183757 383.637776,223.183757 C384.499971,224.669793 386.065628,225.5 387.676037,225.5 C388.464809,225.5 389.26407,225.300611 389.996202,224.880297 C392.223364,223.604766 392.988361,220.776504 391.704508,218.563777 L387.928472,212.056204 L393.344986,212.056204 C395.916187,212.056204 398,209.985897 398,207.43136 C398,204.876824 395.916187,202.806517 393.344986,202.806517 Z" id="Stroke-15"></path>
            <path d="M429,154 L298,154" id="Stroke-17"></path>
            <path d="M208,187 L272,187" id="Stroke-19"></path>
            <polyline id="Stroke-21" points="249 164.5 272 187.00035 249 209.5"></polyline>
            <path d="M477.395592,379.5 C480.99115,379.5 484,375.784166 484,371.1082 L484,9.89179954 C484,5.2158342 480.99115,1.5 477.395592,1.5 L7.60370665,1.5 C4.00831667,1.5 1,5.21564858 1,9.89179954 L1,371.1082 C1,375.784351 4.00831667,379.5 7.60370665,379.5 L477.395592,379.5 Z" id="Stroke-23" stroke-width="2"></path>
            <path d="M23,18 C23,21.0375262 20.5373742,23.5 17.4996605,23.5 C14.4626258,23.5 12,21.0375262 12,18 C12,14.9624738 14.4626258,12.5 17.4996605,12.5 C20.5373742,12.5 23,14.9624738 23,18 Z" id="Stroke-25"></path>
            <path d="M44,18 C44,21.0375262 41.5373742,23.5 38.4996605,23.5 C35.4626258,23.5 33,21.0375262 33,18 C33,14.9624738 35.4626258,12.5 38.4996605,12.5 C41.5373742,12.5 44,14.9624738 44,18 Z" id="Stroke-27"></path>
            <path d="M65,18 C65,21.0375262 62.5373742,23.5 59.4996605,23.5 C56.4626258,23.5 54,21.0375262 54,18 C54,14.9624738 56.4626258,12.5 59.4996605,12.5 C62.5373742,12.5 65,14.9624738 65,18 Z" id="Stroke-29"></path>
            <path d="M0,36 L485,36" id="Stroke-31"></path>
        </g>
    </g>
</svg>