<?xml version="1.0" encoding="UTF-8"?>
<svg width="403px" height="350px" viewBox="0 0 403 350" version="1.1" xmlns="http://www.w3.org/2000/svg" xmlns:xlink="http://www.w3.org/1999/xlink">
    <!-- Generator: Sketch 52.6 (67491) - http://www.bohemiancoding.com/sketch -->
    <title>Icon/Start/02-setup-mining</title>
    <desc>Created with Sketch.</desc>
    <g id="Main-page" stroke="none" stroke-width="1" fill="none" fill-rule="evenodd">
        <g id="XL≥1200" transform="translate(-100.000000, -5997.000000)" stroke="#0059FF">
            <g id="Group-7-[0v]">
                <g id="Group-6" transform="translate(0.000000, 5089.000000)">
                    <g id="Group-3-[48v]" transform="translate(60.000000, 80.000000)">
                        <g id="Group-2-[m]" transform="translate(0.000000, 758.000000)">
                            <g id="Icon/Start/05-Pos-phase">
                                <g id="Group-23" transform="translate(41.164062, 71.101562)">
                                    <path d="M187.109375,140.332031 C187.109375,159.960943 145.22602,175.882812 93.5565558,175.882812 C41.8870912,175.882812 0,159.960943 0,140.332031 C0,120.69951 41.8870912,104.78125 93.5565558,104.78125 C145.22602,104.78125 187.109375,120.69951 187.109375,140.332031 Z" id="Stroke-1" stroke-width="2"></path>
                                    <path d="M187.109375,175.882812 C187.109375,194.480512 145.22602,209.5625 93.5565558,209.5625 C41.8870912,209.5625 0,194.480512 0,175.882812" id="Stroke-3"></path>
                                    <path d="M187.109375,213.304688 C187.109375,231.903918 145.22602,246.984375 93.5565558,246.984375 C41.8870912,246.984375 0,231.903918 0,213.304688" id="Stroke-5"></path>
                                    <path d="M187.109375,246.984375 C187.109375,265.583605 145.22602,280.664062 93.5565558,280.664062 C41.8870912,280.664062 0,265.583605 0,246.984375" id="Stroke-5"></path>
                                    <path d="M187.109375,280.664062 C187.109375,299.263293 145.22602,314.34375 93.5565558,314.34375 C41.8870912,314.34375 0,299.263293 0,280.664062" id="Stroke-7"></path>
                                    <path d="M187.109375,314.34375 C187.109375,332.94298 145.22602,348.023438 93.5565558,348.023438 C41.8870912,348.023438 0,332.94298 0,314.34375" id="Stroke-7"></path>
                                    <path d="M400.414062,35.5507812 C400.414062,55.1833022 358.529871,71.1015625 306.859375,71.1015625 C255.188879,71.1015625 213.304688,55.1833022 213.304688,35.5507812 C213.304688,15.9218698 255.188879,0 306.859375,0 C358.529871,0 400.414062,15.9218698 400.414062,35.5507812 Z" id="Stroke-9" stroke-width="2"></path>
                                    <path d="M400.414062,71.1015625 C400.414062,89.7007929 358.529871,104.78125 306.859375,104.78125 C255.188879,104.78125 213.304688,89.7007929 213.304688,71.1015625" id="Stroke-11"></path>
                                    <path d="M400.414062,108.523438 C400.414062,127.122668 358.529871,142.203125 306.859375,142.203125 C255.188879,142.203125 213.304688,127.122668 213.304688,108.523438" id="Stroke-13"></path>
                                    <path d="M400.414062,142.203125 C400.414062,160.800824 358.529871,175.882812 306.859375,175.882812 C255.188879,175.882812 213.304688,160.800824 213.304688,142.203125" id="Stroke-15"></path>
                                    <path d="M400.414062,175.882812 C400.414062,194.480512 358.529871,209.5625 306.859375,209.5625 C255.188879,209.5625 213.304688,194.480512 213.304688,175.882812" id="Stroke-17"></path>
                                    <path d="M400.414062,213.304688 C400.414062,231.903918 358.529871,246.984375 306.859375,246.984375 C255.188879,246.984375 213.304688,231.903918 213.304688,213.304688" id="Stroke-19"></path>
                                    <path d="M400.414062,246.984375 C400.414062,265.583605 358.529871,280.664062 306.859375,280.664062 C255.188879,280.664062 213.304688,265.583605 213.304688,246.984375" id="Stroke-21"></path>
                                    <path d="M400.414062,246.984375 C400.414062,265.583605 358.529871,280.664062 306.859375,280.664062 C255.188879,280.664062 213.304688,265.583605 213.304688,246.984375" id="Stroke-21"></path>
                                    <path d="M400.414062,280.664062 C400.414062,299.263293 358.529871,314.34375 306.859375,314.34375 C255.188879,314.34375 213.304688,299.263293 213.304688,280.664062" id="Stroke-21"></path>
                                    <path d="M400.414062,314.34375 C400.414062,332.94298 358.529871,348.023438 306.859375,348.023438 C255.188879,348.023438 213.304688,332.94298 213.304688,314.34375" id="Stroke-21"></path>
                                </g>
                            </g>
                        </g>
                    </g>
                </g>
            </g>
        </g>
    </g>
</svg>