<?xml version="1.0" encoding="UTF-8"?>
<svg width="482px" height="477px" viewBox="0 0 482 477" version="1.1" xmlns="http://www.w3.org/2000/svg" xmlns:xlink="http://www.w3.org/1999/xlink">
    <!-- Generator: Sketch 52.6 (67491) - http://www.bohemiancoding.com/sketch -->
    <title>Group 26</title>
    <desc>Created with Sketch.</desc>
    <g id="Symbols" stroke="none" stroke-width="1" fill="none" fill-rule="evenodd">
        <g id="Image/Phase-1" transform="translate(1.000000, 1.000000)">
            <g id="Group-26">
                <path d="M194.681563,207.816092 L13.1330575,207.816092 C5.87972414,207.816092 0.000183908046,201.936552 0.000183908046,194.681379 L0.000183908046,13.1347126 C0.000183908046,5.87954023 5.87972414,0 13.1330575,0 L194.681563,0 C201.934897,0 207.816276,5.87954023 207.816276,13.1347126 L207.816276,194.681379 C207.816276,201.936552 201.934897,207.816092 194.681563,207.816092 Z" id="Stroke-1" stroke="#0059FF" stroke-width="2"></path>
                <path d="M21.1150345,18.7489029 L24.8226207,18.7489029 L30.2552644,34.4803972 L30.5642299,34.4803972 L35.9711264,18.7489029 L39.7044598,18.7489029 L39.7044598,36.7718914 L37.6446897,36.7718914 L37.6446897,21.0918914 L37.3357241,21.0918914 L31.9545747,36.7718914 L28.8391724,36.7718914 L23.4837701,21.0918914 L23.1748046,21.0918914 L23.1748046,36.7718914 L21.1150345,36.7718914 L21.1150345,18.7489029 Z M42.8971034,27.528673 C43.824,25.8036155 45.6005517,23.8468339 48.9734253,23.8468339 C52.3205517,23.8468339 54.3030805,25.7778684 54.3030805,28.7902822 L54.3030805,36.7718914 L52.3977931,36.7718914 L52.3977931,34.6863742 L52.0373333,34.6863742 C51.2391724,35.9737305 49.926069,37.1323512 47.2741149,37.1323512 C44.4676782,37.1323512 42.5623908,35.664765 42.5623908,33.424765 C42.5623908,31.1590178 44.2874483,30.0003972 46.7849195,29.768673 L52.3462989,29.2279834 L52.3462989,28.6872937 C52.3462989,26.8077535 51.0846897,25.5203972 48.8704368,25.5203972 C46.681931,25.5203972 45.3173333,26.8077535 44.5706667,28.4555696 L42.8971034,27.528673 Z M44.5706667,33.3990178 C44.5706667,34.6348799 45.7807816,35.458788 47.5830805,35.458788 C50.3122759,35.458788 52.3462989,33.8109719 52.3462989,31.0817765 L52.3462989,30.8757995 L47.1711264,31.3649949 C45.5748046,31.5194776 44.5706667,32.1889029 44.5706667,33.3990178 Z M57.0837701,24.2072937 L59.4782529,24.2072937 L63.2630805,29.1249949 L63.572046,29.1249949 L67.3568736,24.2072937 L69.7771034,24.2072937 L64.9623908,30.3608569 L69.9315862,36.7718914 L67.4856092,36.7718914 L63.572046,31.6739604 L63.2630805,31.6739604 L59.3752644,36.7718914 L56.9292874,36.7718914 L61.8727356,30.3608569 L57.0837701,24.2072937 Z M72.0428506,20.2679834 C72.0428506,19.3410868 72.738023,18.6459144 73.6906667,18.6459144 C74.6433103,18.6459144 75.3642299,19.3410868 75.3642299,20.2679834 C75.3642299,21.220627 74.6433103,21.9157995 73.6906667,21.9157995 C72.738023,21.9157995 72.0428506,21.220627 72.0428506,20.2679834 Z M74.6948046,24.2072937 L74.6948046,36.7718914 L72.7122759,36.7718914 L72.7122759,24.2072937 L74.6948046,24.2072937 Z M78.4281379,24.2072937 L80.3591724,24.2072937 L80.3591724,25.9838454 L80.7196322,25.9838454 C81.3375632,24.7479834 82.4704368,23.9498224 84.2984828,23.9498224 C86.1265287,23.9498224 87.3623908,24.9282132 87.8773333,26.2670638 L88.2377931,26.2670638 C88.9587126,24.7994776 90.246069,23.9498224 92.1256092,23.9498224 C94.6230805,23.9498224 96.3996322,25.700627 96.3996322,28.1980983 L96.3996322,36.7718914 L94.4171034,36.7718914 L94.4171034,28.3783282 C94.4171034,26.7820064 93.3614713,25.7263742 91.5849195,25.7263742 C89.7826207,25.7263742 88.3922759,26.8849949 88.3922759,29.1249949 L88.3922759,36.7718914 L86.4354943,36.7718914 L86.4354943,28.3783282 C86.4354943,26.7820064 85.3541149,25.7263742 83.5775632,25.7263742 C81.8010115,25.7263742 80.4106667,26.8849949 80.4106667,29.1249949 L80.4106667,36.7718914 L78.4281379,36.7718914 L78.4281379,24.2072937 Z M111.538943,36.7718914 L109.633655,36.7718914 L109.633655,34.5061443 L109.273195,34.5061443 C108.629517,35.7677535 107.367908,37.0036155 104.84469,37.0036155 C102.141241,37.0036155 99.8497471,35.2528109 99.8497471,31.8284431 L99.8497471,24.2072937 L101.832276,24.2072937 L101.832276,31.6482132 C101.832276,34.1199374 103.196874,35.2528109 105.411126,35.2528109 C107.857103,35.2528109 109.582161,33.6564891 109.582161,30.5668339 L109.582161,24.2072937 L111.538943,24.2072937 L111.538943,36.7718914 Z M115.298023,24.2072937 L117.229057,24.2072937 L117.229057,25.9838454 L117.589517,25.9838454 C118.207448,24.7479834 119.340322,23.9498224 121.168368,23.9498224 C122.996414,23.9498224 124.232276,24.9282132 124.747218,26.2670638 L125.107678,26.2670638 C125.828598,24.7994776 127.115954,23.9498224 128.995494,23.9498224 C131.492966,23.9498224 133.269517,25.700627 133.269517,28.1980983 L133.269517,36.7718914 L131.286989,36.7718914 L131.286989,28.3783282 C131.286989,26.7820064 130.231356,25.7263742 128.454805,25.7263742 C126.652506,25.7263742 125.262161,26.8849949 125.262161,29.1249949 L125.262161,36.7718914 L123.305379,36.7718914 L123.305379,28.3783282 C123.305379,26.7820064 122.224,25.7263742 120.447448,25.7263742 C118.670897,25.7263742 117.280552,26.8849949 117.280552,29.1249949 L117.280552,36.7718914 L115.298023,36.7718914 L115.298023,24.2072937 Z" id="Maximum-" fill="#0059FF"></path>
                <path d="M20.5485977,62.510742 L20.5485977,58.8031558 C20.5485977,54.0914316 23.3035402,51.2849949 27.6548046,51.2849949 C31.9803218,51.2849949 34.2975632,53.756719 34.2975632,57.7990178 L34.2975632,58.030742 L32.212046,58.030742 L32.212046,57.7990178 C32.212046,54.9153397 30.6414713,53.138788 27.6805517,53.138788 C24.487908,53.138788 22.6341149,55.3272937 22.6341149,58.7259144 L22.6341149,62.5879834 C22.6341149,66.0638454 24.4364138,68.1493627 27.6548046,68.1493627 C30.8474483,68.1493627 32.212046,66.4757995 32.212046,63.6178684 L32.212046,62.922696 L26.8051494,62.922696 L26.8051494,61.0689029 L34.2975632,61.0689029 L34.2975632,63.540627 C34.2975632,67.6344201 31.8515862,70.0289029 27.6548046,70.0289029 C23.252046,70.0289029 20.5485977,67.3254546 20.5485977,62.510742 Z M37.5417011,51.6454546 L44.3904368,51.6454546 C47.6088276,51.6454546 50.0548046,53.6537305 50.0548046,57.0008569 C50.0548046,60.3479834 47.5830805,62.3820064 44.3904368,62.3820064 L39.6272184,62.3820064 L39.6272184,69.6684431 L37.5417011,69.6684431 L37.5417011,51.6454546 Z M39.6272184,53.5249949 L39.6272184,60.476719 L44.1587126,60.476719 C46.5274483,60.476719 47.9435402,59.1893627 47.9435402,57.0008569 C47.9435402,54.8380983 46.5274483,53.5249949 44.1587126,53.5249949 L39.6272184,53.5249949 Z M52.5265287,51.6454546 L54.612046,51.6454546 L54.612046,63.6951098 C54.612046,66.6560293 56.2856092,68.1493627 59.1435402,68.1493627 C62.0014713,68.1493627 63.6750345,66.6560293 63.6750345,63.6951098 L63.6750345,51.6454546 L65.7605517,51.6454546 L65.7605517,63.6436155 C65.7605517,67.8403972 63.160092,70.0289029 59.1435402,70.0289029 C55.1269885,70.0289029 52.5265287,67.8403972 52.5265287,63.6436155 L52.5265287,51.6454546 Z M88.9072184,69.6684431 L87.001931,69.6684431 L87.001931,67.402696 L86.6414713,67.402696 C85.9977931,68.6643052 84.7361839,69.9001673 82.2129655,69.9001673 C79.5095172,69.9001673 77.218023,68.1493627 77.218023,64.7249949 L77.218023,57.1038454 L79.2005517,57.1038454 L79.2005517,64.544765 C79.2005517,67.0164891 80.5651494,68.1493627 82.7794023,68.1493627 C85.2253793,68.1493627 86.9504368,66.5530408 86.9504368,63.4633857 L86.9504368,57.1038454 L88.9072184,57.1038454 L88.9072184,69.6684431 Z M92.2285977,60.3479834 C92.2285977,58.1079834 94.1853793,56.7433857 96.9403218,56.7433857 C99.6695172,56.7433857 101.729287,57.9792477 103.119632,59.7300523 L101.677793,60.8629259 C100.36469,59.0348799 98.6138851,58.3912018 96.9918161,58.3912018 C95.3697471,58.3912018 94.1596322,59.060627 94.1596322,60.270742 C94.1596322,61.4808569 95.2667586,61.9700523 96.9145747,62.2532707 L98.4336552,62.510742 C101.034115,62.9484431 103.093885,63.7980983 103.093885,66.1925811 C103.093885,68.5613167 100.879632,70.0289029 98.0731954,70.0289029 C95.1637701,70.0289029 92.692046,68.7415466 91.4046897,66.1410868 L93.0525057,65.2656845 C94.1596322,67.6601673 96.167908,68.3810868 98.0217011,68.3810868 C99.9269885,68.3810868 101.162851,67.5571788 101.162851,66.2955696 C101.162851,65.0597075 99.9527356,64.544765 98.201931,64.2615466 L96.6828506,64.0040753 C93.927908,63.540627 92.2285977,62.5364891 92.2285977,60.3479834 Z M105.539862,60.4252247 C106.466759,58.7001673 108.24331,56.7433857 111.616184,56.7433857 C114.96331,56.7433857 116.945839,58.6744201 116.945839,61.6868339 L116.945839,69.6684431 L115.040552,69.6684431 L115.040552,67.5829259 L114.680092,67.5829259 C113.881931,68.8702822 112.568828,70.0289029 109.916874,70.0289029 C107.110437,70.0289029 105.205149,68.5613167 105.205149,66.3213167 C105.205149,64.0555696 106.930207,62.8969489 109.427678,62.6652247 L114.989057,62.1245351 L114.989057,61.5838454 C114.989057,59.7043052 113.727448,58.4169489 111.513195,58.4169489 C109.32469,58.4169489 107.960092,59.7043052 107.213425,61.3521213 L105.539862,60.4252247 Z M107.213425,66.2955696 C107.213425,67.5314316 108.42354,68.3553397 110.225839,68.3553397 C112.955034,68.3553397 114.989057,66.7075236 114.989057,63.9783282 L114.989057,63.7723512 L109.813885,64.2615466 C108.217563,64.4160293 107.213425,65.0854546 107.213425,66.2955696 Z M130.720552,57.1038454 L132.625839,57.1038454 L132.625839,69.1277535 C132.625839,72.6036155 130.282851,75.1783282 126.446529,75.1783282 C123.099402,75.1783282 121.219862,73.6077535 120.009747,71.6509719 L121.734805,70.6468339 C122.481471,72.1144201 124.000552,73.4275236 126.317793,73.4275236 C128.841011,73.4275236 130.669057,71.9599374 130.669057,68.9990178 L130.669057,67.196719 L130.360092,67.196719 C129.639172,68.4840753 128.326069,69.7456845 125.725609,69.7456845 C122.378483,69.7456845 119.752276,67.1452247 119.752276,63.2316615 C119.752276,59.3438454 122.378483,56.7433857 125.725609,56.7433857 C128.326069,56.7433857 129.639172,58.0049949 130.360092,59.2923512 L130.720552,59.2923512 L130.720552,57.1038454 Z M126.16331,67.9691328 C128.789517,67.9691328 130.669057,66.1410868 130.669057,63.2316615 C130.669057,60.3479834 128.789517,58.5199374 126.16331,58.5199374 C123.588598,58.5199374 121.760552,60.2964891 121.760552,63.2316615 C121.760552,66.1925811 123.588598,67.9691328 126.16331,67.9691328 Z M135.561011,63.2831558 C135.561011,59.5498224 138.212966,56.7433857 141.869057,56.7433857 C145.422161,56.7433857 147.919632,59.1121213 147.919632,62.922696 L147.919632,63.9525811 L137.620782,63.9525811 C137.775264,66.578788 139.474575,68.2780983 142.02354,68.2780983 C144.237793,68.2780983 145.34492,67.1194776 145.962851,65.7291328 L147.687908,66.6045351 C146.838253,68.2266041 145.396414,70.0289029 142.049287,70.0289029 C138.187218,70.0289029 135.561011,67.1452247 135.561011,63.2831558 Z M137.620782,62.3305121 L145.859862,62.3305121 C145.756874,59.858788 144.186299,58.4941903 141.869057,58.4941903 C139.500322,58.4941903 137.904,59.9875236 137.620782,62.3305121 Z" id="GPU-usage" fill="#0059FF"></path>
                <path d="M466.865471,207.816092 L285.316966,207.816092 C278.063632,207.816092 272.184092,201.936552 272.184092,194.681379 L272.184092,13.1347126 C272.184092,5.87954023 278.063632,0 285.316966,0 L466.865471,0 C474.118805,0 480.000184,5.87954023 480.000184,13.1347126 L480.000184,194.681379 C480.000184,201.936552 474.118805,207.816092 466.865471,207.816092 Z" id="Stroke-3" stroke="#0059FF" stroke-width="2"></path>
                <path d="M297.572966,20.7489029 L300.817103,20.7489029 L306.687448,38.7718914 L304.473195,38.7718914 L303.005609,34.1889029 L295.38446,34.1889029 L293.942621,38.7718914 L291.702621,38.7718914 L297.572966,20.7489029 Z M295.950897,32.3093627 L302.439172,32.3093627 L299.349517,22.6284431 L299.040552,22.6284431 L295.950897,32.3093627 Z M314.926529,20.3884431 C318.582621,20.3884431 321.36331,22.3194776 321.36331,25.8468339 L321.36331,26.876719 L319.30354,26.876719 L319.30354,25.9755696 C319.30354,23.4008569 317.321011,22.2422362 314.875034,22.2422362 C312.712276,22.2422362 310.961471,23.3751098 310.961471,25.25465 C310.961471,27.3144201 312.532046,27.9066041 314.926529,28.4730408 L316.188138,28.7820064 C319.380782,29.528673 321.440552,30.8160293 321.440552,33.8284431 C321.440552,37.1240753 318.737103,39.1323512 315.106759,39.1323512 C310.704,39.1323512 308.10354,36.7378684 308.10354,32.4895926 L308.10354,31.8459144 L310.189057,31.8459144 L310.189057,32.4123512 C310.189057,35.6564891 312.017103,37.2785581 315.106759,37.2785581 C317.861701,37.2785581 319.380782,35.8109719 319.380782,33.9056845 C319.380782,31.9489029 317.810207,31.150742 315.389977,30.5843052 L314.128368,30.3010868 C310.935724,29.5544201 308.875954,28.3443052 308.875954,25.2803972 C308.875954,22.3452247 311.527908,20.3884431 314.926529,20.3884431 Z M324.658943,20.7489029 L326.74446,20.7489029 L326.74446,38.7718914 L324.658943,38.7718914 L324.658943,20.7489029 Z M329.988598,27.9066041 C329.988598,23.1948799 332.74354,20.3884431 337.120552,20.3884431 C341.446069,20.3884431 343.789057,22.8859144 343.789057,26.8509719 L343.789057,27.3144201 L341.70354,27.3144201 L341.70354,26.8509719 C341.70354,24.018788 340.107218,22.2422362 337.120552,22.2422362 C333.927908,22.2422362 332.074115,24.430742 332.074115,27.8293627 L332.074115,31.6914316 C332.074115,35.1672937 333.927908,37.2528109 337.120552,37.2528109 C340.338943,37.2528109 341.70354,35.5535006 341.70354,32.7213167 L341.70354,32.2063742 L343.789057,32.2063742 L343.789057,32.7213167 C343.789057,36.6863742 341.368828,39.1323512 337.120552,39.1323512 C332.717793,39.1323512 329.988598,36.4289029 329.988598,31.6141903 L329.988598,27.9066041 Z" id="ASIC-" fill="#0059FF"></path>
                <path d="M295.20423,57.1038454 L295.20423,58.7774087 L295.56469,58.7774087 C296.053885,57.5415466 297.032276,57.0523512 298.705839,57.0523512 L300.327908,57.0523512 L300.327908,58.8031558 L298.293885,58.8031558 C296.440092,58.8031558 295.255724,59.8072937 295.255724,61.9700523 L295.255724,69.6684431 L293.273195,69.6684431 L293.273195,57.1038454 L295.20423,57.1038454 Z M300.559632,63.2831558 C300.559632,59.5498224 303.211586,56.7433857 306.867678,56.7433857 C310.420782,56.7433857 312.918253,59.1121213 312.918253,62.922696 L312.918253,63.9525811 L302.619402,63.9525811 C302.773885,66.578788 304.473195,68.2780983 307.022161,68.2780983 C309.236414,68.2780983 310.34354,67.1194776 310.961471,65.7291328 L312.686529,66.6045351 C311.836874,68.2266041 310.395034,70.0289029 307.047908,70.0289029 C303.185839,70.0289029 300.559632,67.1452247 300.559632,63.2831558 Z M302.619402,62.3305121 L310.858483,62.3305121 C310.755494,59.858788 309.18492,58.4941903 306.867678,58.4941903 C304.498943,58.4941903 302.902621,59.9875236 302.619402,62.3305121 Z M315.055264,60.3479834 C315.055264,58.1079834 317.012046,56.7433857 319.766989,56.7433857 C322.496184,56.7433857 324.555954,57.9792477 325.946299,59.7300523 L324.50446,60.8629259 C323.191356,59.0348799 321.440552,58.3912018 319.818483,58.3912018 C318.196414,58.3912018 316.986299,59.060627 316.986299,60.270742 C316.986299,61.4808569 318.093425,61.9700523 319.741241,62.2532707 L321.260322,62.510742 C323.860782,62.9484431 325.920552,63.7980983 325.920552,66.1925811 C325.920552,68.5613167 323.706299,70.0289029 320.899862,70.0289029 C317.990437,70.0289029 315.518713,68.7415466 314.231356,66.1410868 L315.879172,65.2656845 C316.986299,67.6601673 318.994575,68.3810868 320.848368,68.3810868 C322.753655,68.3810868 323.989517,67.5571788 323.989517,66.2955696 C323.989517,65.0597075 322.779402,64.544765 321.028598,64.2615466 L319.509517,64.0040753 C316.754575,63.540627 315.055264,62.5364891 315.055264,60.3479834 Z M328.237793,53.1645351 C328.237793,52.2376385 328.932966,51.5424661 329.885609,51.5424661 C330.838253,51.5424661 331.559172,52.2376385 331.559172,53.1645351 C331.559172,54.1171788 330.838253,54.8123512 329.885609,54.8123512 C328.932966,54.8123512 328.237793,54.1171788 328.237793,53.1645351 Z M330.889747,57.1038454 L330.889747,69.6684431 L328.907218,69.6684431 L328.907218,57.1038454 L330.889747,57.1038454 Z M334.185379,60.3479834 C334.185379,58.1079834 336.142161,56.7433857 338.897103,56.7433857 C341.626299,56.7433857 343.686069,57.9792477 345.076414,59.7300523 L343.634575,60.8629259 C342.321471,59.0348799 340.570667,58.3912018 338.948598,58.3912018 C337.326529,58.3912018 336.116414,59.060627 336.116414,60.270742 C336.116414,61.4808569 337.22354,61.9700523 338.871356,62.2532707 L340.390437,62.510742 C342.990897,62.9484431 345.050667,63.7980983 345.050667,66.1925811 C345.050667,68.5613167 342.836414,70.0289029 340.029977,70.0289029 C337.120552,70.0289029 334.648828,68.7415466 333.361471,66.1410868 L335.009287,65.2656845 C336.116414,67.6601673 338.12469,68.3810868 339.978483,68.3810868 C341.88377,68.3810868 343.119632,67.5571788 343.119632,66.2955696 C343.119632,65.0597075 341.909517,64.544765 340.158713,64.2615466 L338.639632,64.0040753 C335.88469,63.540627 334.185379,62.5364891 334.185379,60.3479834 Z M346.441012,57.1038454 L350.354575,57.1038454 L350.354575,52.5980983 L352.311356,52.5980983 L352.311356,57.1038454 L356.456644,57.1038454 L356.456644,58.7774087 L352.311356,58.7774087 L352.311356,67.196719 C352.311356,67.7116615 352.568828,67.9691328 353.032276,67.9691328 L355.735724,67.9691328 L355.735724,69.6684431 L352.285609,69.6684431 C351.126989,69.6684431 350.354575,68.8960293 350.354575,67.6859144 L350.354575,58.7774087 L346.441012,58.7774087 L346.441012,57.1038454 Z M358.670897,60.4252247 C359.597793,58.7001673 361.374345,56.7433857 364.747218,56.7433857 C368.094345,56.7433857 370.076874,58.6744201 370.076874,61.6868339 L370.076874,69.6684431 L368.171586,69.6684431 L368.171586,67.5829259 L367.811126,67.5829259 C367.012966,68.8702822 365.699862,70.0289029 363.047908,70.0289029 C360.241471,70.0289029 358.336184,68.5613167 358.336184,66.3213167 C358.336184,64.0555696 360.061241,62.8969489 362.558713,62.6652247 L368.120092,62.1245351 L368.120092,61.5838454 C368.120092,59.7043052 366.858483,58.4169489 364.64423,58.4169489 C362.455724,58.4169489 361.091126,59.7043052 360.34446,61.3521213 L358.670897,60.4252247 Z M360.34446,66.2955696 C360.34446,67.5314316 361.554575,68.3553397 363.356874,68.3553397 C366.086069,68.3553397 368.120092,66.7075236 368.120092,63.9783282 L368.120092,63.7723512 L362.94492,64.2615466 C361.348598,64.4160293 360.34446,65.0854546 360.34446,66.2955696 Z M373.681471,57.1038454 L375.612506,57.1038454 L375.612506,59.3695926 L375.972966,59.3695926 C376.590897,58.0822362 377.852506,56.8463742 380.375724,56.8463742 C383.079172,56.8463742 385.370667,58.6229259 385.370667,62.0472937 L385.370667,69.6684431 L383.413885,69.6684431 L383.413885,62.2275236 C383.413885,59.7557995 382.02354,58.6229259 379.809287,58.6229259 C377.36331,58.6229259 375.664,60.2192477 375.664,63.3089029 L375.664,69.6684431 L373.681471,69.6684431 L373.681471,57.1038454 Z M386.864,57.1038454 L390.777563,57.1038454 L390.777563,52.5980983 L392.734345,52.5980983 L392.734345,57.1038454 L396.879632,57.1038454 L396.879632,58.7774087 L392.734345,58.7774087 L392.734345,67.196719 C392.734345,67.7116615 392.991816,67.9691328 393.455264,67.9691328 L396.158713,67.9691328 L396.158713,69.6684431 L392.708598,69.6684431 C391.549977,69.6684431 390.777563,68.8960293 390.777563,67.6859144 L390.777563,58.7774087 L386.864,58.7774087 L386.864,57.1038454 Z" id="resistant" fill="#0059FF"></path>
                <path d="M194.681563,474.482759 L13.1330575,474.482759 C5.87972414,474.482759 0.000183908046,468.603218 0.000183908046,461.348046 L0.000183908046,279.801379 C0.000183908046,272.546207 5.87972414,266.666667 13.1330575,266.666667 L194.681563,266.666667 C201.934897,266.666667 207.816276,272.546207 207.816276,279.801379 L207.816276,461.348046 C207.816276,468.603218 201.934897,474.482759 194.681563,474.482759 Z" id="Stroke-5" stroke="#0059FF" stroke-width="2"></path>
                <path d="M19.6474483,287.41557 L33.7568736,287.41557 L33.7568736,289.29511 L27.7577931,289.29511 L27.7577931,305.438558 L25.6722759,305.438558 L25.6722759,289.29511 L19.6474483,289.29511 L19.6474483,287.41557 Z M32.8557242,292.87396 L32.8557242,294.547524 L33.216184,294.547524 C33.7053794,293.311662 34.6837702,292.822466 36.3573334,292.822466 L37.9794024,292.822466 L37.9794024,294.573271 L35.9453794,294.573271 C34.0915863,294.573271 32.9072185,295.577409 32.9072185,297.740167 L32.9072185,305.438558 L30.9246897,305.438558 L30.9246897,292.87396 L32.8557242,292.87396 Z M51.8571035,305.438558 L49.9518162,305.438558 L49.9518162,303.172811 L49.5913564,303.172811 C48.9476782,304.43442 47.686069,305.670282 45.1628506,305.670282 C42.4594024,305.670282 40.1679081,303.919478 40.1679081,300.49511 L40.1679081,292.87396 L42.1504368,292.87396 L42.1504368,300.31488 C42.1504368,302.786604 43.5150345,303.919478 45.7292874,303.919478 C48.1752644,303.919478 49.9003219,302.323156 49.9003219,299.233501 L49.9003219,292.87396 L51.8571035,292.87396 L51.8571035,305.438558 Z M57.5987127,287.41557 L57.5987127,305.438558 L55.616184,305.438558 L55.616184,287.41557 L57.5987127,287.41557 Z M70.8842299,292.87396 L73.0212414,292.87396 L65.4773334,310.587983 L63.366069,310.587983 L65.4515863,305.773271 L60.0189426,292.87396 L62.130207,292.87396 L66.3784828,303.09557 L66.6359541,303.09557 L70.8842299,292.87396 Z" id="Truly" fill="#0059FF"></path>
                <path d="M33.1646897,318.312121 L33.1646897,336.33511 L31.2594023,336.33511 L31.2594023,334.120857 L30.8989425,334.120857 C30.178023,335.408213 28.8649195,336.669822 26.2644598,336.669822 C22.9173333,336.669822 20.2911264,333.992121 20.2911264,330.027064 C20.2911264,326.062006 22.9173333,323.384305 26.2644598,323.384305 C28.8649195,323.384305 30.178023,324.645914 30.8989425,325.933271 L31.207908,325.933271 L31.207908,318.312121 L33.1646897,318.312121 Z M26.7021609,325.160857 C24.1274483,325.160857 22.2994023,327.01465 22.2994023,330.027064 C22.2994023,333.065225 24.1274483,334.893271 26.7021609,334.893271 C29.3283678,334.893271 31.207908,333.01373 31.207908,330.027064 C31.207908,327.066144 29.3283678,325.160857 26.7021609,325.160857 Z M36.0998621,329.949822 C36.0998621,326.216489 38.7518161,323.410052 42.407908,323.410052 C45.9610115,323.410052 48.4584828,325.778788 48.4584828,329.589363 L48.4584828,330.619248 L38.1596322,330.619248 C38.3141149,333.245455 40.0134253,334.944765 42.5623908,334.944765 C44.7766437,334.944765 45.8837701,333.786144 46.5017011,332.395799 L48.2267586,333.271202 C47.3771034,334.893271 45.9352644,336.69557 42.5881379,336.69557 C38.726069,336.69557 36.0998621,333.811891 36.0998621,329.949822 Z M38.1596322,328.997179 L46.3987126,328.997179 C46.2957241,326.525455 44.7251494,325.160857 42.407908,325.160857 C40.0391724,325.160857 38.4428506,326.65419 38.1596322,328.997179 Z M50.4925057,330.052811 C50.4925057,326.139248 53.3504368,323.410052 56.9807816,323.410052 C60.2764138,323.410052 62.5164138,325.49557 63.0056092,328.173271 L61.0488276,328.636719 C60.7913563,326.628443 59.298023,325.186604 57.0065287,325.186604 C54.4318161,325.186604 52.5007816,327.220627 52.5007816,330.052811 C52.5007816,332.884995 54.406069,334.919018 57.0322759,334.919018 C59.4525057,334.919018 60.7398621,333.477179 61.1003218,331.468903 L63.0571034,331.906604 C62.5164138,334.635799 60.3536552,336.69557 57.0065287,336.69557 C53.3504368,336.69557 50.4925057,333.940627 50.4925057,330.052811 Z M65.0911264,329.949822 C65.0911264,326.216489 67.7430805,323.410052 71.3991724,323.410052 C74.9522759,323.410052 77.4497471,325.778788 77.4497471,329.589363 L77.4497471,330.619248 L67.1508966,330.619248 C67.3053793,333.245455 69.0046897,334.944765 71.5536552,334.944765 C73.767908,334.944765 74.8750345,333.786144 75.4929655,332.395799 L77.218023,333.271202 C76.3683678,334.893271 74.9265287,336.69557 71.5794023,336.69557 C67.7173333,336.69557 65.0911264,333.811891 65.0911264,329.949822 Z M67.1508966,328.997179 L75.389977,328.997179 C75.2869885,326.525455 73.7164138,325.160857 71.3991724,325.160857 C69.0304368,325.160857 67.4341149,326.65419 67.1508966,328.997179 Z M80.281931,323.770512 L82.2129655,323.770512 L82.2129655,326.036259 L82.5734253,326.036259 C83.1913563,324.748903 84.4529655,323.513041 86.9761839,323.513041 C89.6796322,323.513041 91.9711264,325.289593 91.9711264,328.71396 L91.9711264,336.33511 L90.0143448,336.33511 L90.0143448,328.89419 C90.0143448,326.422466 88.624,325.289593 86.4097471,325.289593 C83.9637701,325.289593 82.2644598,326.885914 82.2644598,329.97557 L82.2644598,336.33511 L80.281931,336.33511 L80.281931,323.770512 Z M93.4644598,323.770512 L97.378023,323.770512 L97.378023,319.264765 L99.3348046,319.264765 L99.3348046,323.770512 L103.480092,323.770512 L103.480092,325.444075 L99.3348046,325.444075 L99.3348046,333.863386 C99.3348046,334.378328 99.5922759,334.635799 100.055724,334.635799 L102.759172,334.635799 L102.759172,336.33511 L99.3090575,336.33511 C98.1504368,336.33511 97.378023,335.562696 97.378023,334.352581 L97.378023,325.444075 L93.4644598,325.444075 L93.4644598,323.770512 Z M108.217563,323.770512 L108.217563,325.444075 L108.578023,325.444075 C109.067218,324.208213 110.045609,323.719018 111.719172,323.719018 L113.341241,323.719018 L113.341241,325.469822 L111.307218,325.469822 C109.453425,325.469822 108.269057,326.47396 108.269057,328.636719 L108.269057,336.33511 L106.286529,336.33511 L106.286529,323.770512 L108.217563,323.770512 Z M114.834575,327.091891 C115.761471,325.366834 117.538023,323.410052 120.910897,323.410052 C124.258023,323.410052 126.240552,325.341087 126.240552,328.353501 L126.240552,336.33511 L124.335264,336.33511 L124.335264,334.249593 L123.974805,334.249593 C123.176644,335.536949 121.86354,336.69557 119.211586,336.69557 C116.405149,336.69557 114.499862,335.227983 114.499862,332.987983 C114.499862,330.722236 116.22492,329.563616 118.722391,329.331891 L124.28377,328.791202 L124.28377,328.250512 C124.28377,326.370972 123.022161,325.083616 120.807908,325.083616 C118.619402,325.083616 117.254805,326.370972 116.508138,328.018788 L114.834575,327.091891 Z M116.508138,332.962236 C116.508138,334.198098 117.718253,335.022006 119.520552,335.022006 C122.249747,335.022006 124.28377,333.37419 124.28377,330.644995 L124.28377,330.439018 L119.108598,330.928213 C117.512276,331.082696 116.508138,331.752121 116.508138,332.962236 Z M131.827678,318.312121 L131.827678,336.33511 L129.845149,336.33511 L129.845149,318.312121 L131.827678,318.312121 Z M134.891586,319.831202 C134.891586,318.904305 135.586759,318.209133 136.539402,318.209133 C137.492046,318.209133 138.212966,318.904305 138.212966,319.831202 C138.212966,320.783845 137.492046,321.479018 136.539402,321.479018 C135.586759,321.479018 134.891586,320.783845 134.891586,319.831202 Z M137.54354,323.770512 L137.54354,336.33511 L135.561012,336.33511 L135.561012,323.770512 L137.54354,323.770512 Z M140.916414,323.770512 L151.755954,323.770512 L151.755954,325.289593 L143.310897,334.635799 L151.961931,334.635799 L151.961931,336.33511 L140.68469,336.33511 L140.68469,334.790282 L149.129747,325.444075 L140.916414,325.444075 L140.916414,323.770512 Z M153.298207,329.949822 C153.298207,326.216489 155.950161,323.410052 159.606253,323.410052 C163.159356,323.410052 165.656828,325.778788 165.656828,329.589363 L165.656828,330.619248 L155.357977,330.619248 C155.51246,333.245455 157.21177,334.944765 159.760736,334.944765 C161.974989,334.944765 163.082115,333.786144 163.700046,332.395799 L165.425103,333.271202 C164.575448,334.893271 163.133609,336.69557 159.786483,336.69557 C155.924414,336.69557 153.298207,333.811891 153.298207,329.949822 Z M155.357977,328.997179 L163.597057,328.997179 C163.494069,326.525455 161.923494,325.160857 159.606253,325.160857 C157.237517,325.160857 155.641195,326.65419 155.357977,328.997179 Z M180.564414,318.312121 L180.564414,336.33511 L178.659126,336.33511 L178.659126,334.120857 L178.298667,334.120857 C177.577747,335.408213 176.264644,336.669822 173.664184,336.669822 C170.317057,336.669822 167.690851,333.992121 167.690851,330.027064 C167.690851,326.062006 170.317057,323.384305 173.664184,323.384305 C176.264644,323.384305 177.577747,324.645914 178.298667,325.933271 L178.607632,325.933271 L178.607632,318.312121 L180.564414,318.312121 Z M174.101885,325.160857 C171.527172,325.160857 169.699126,327.01465 169.699126,330.027064 C169.699126,333.065225 171.527172,334.893271 174.101885,334.893271 C176.728092,334.893271 178.607632,333.01373 178.607632,330.027064 C178.607632,327.066144 176.728092,325.160857 174.101885,325.160857 Z" id="decentralized" fill="#0059FF"></path>
                <path d="M466.865471,474.482759 L285.316966,474.482759 C278.063632,474.482759 272.184092,468.603218 272.184092,461.348046 L272.184092,279.801379 C272.184092,272.546207 278.063632,266.666667 285.316966,266.666667 L466.865471,266.666667 C474.118805,266.666667 480.000184,272.546207 480.000184,279.801379 L480.000184,461.348046 C480.000184,468.603218 474.118805,474.482759 466.865471,474.482759 Z" id="Stroke-7" stroke="#0059FF" stroke-width="2"></path>
                <path d="M293.298943,287.41557 L304.34446,287.41557 L304.34446,289.29511 L295.38446,289.29511 L295.38446,295.448673 L303.829517,295.448673 L303.829517,297.35396 L295.38446,297.35396 L295.38446,305.438558 L293.298943,305.438558 L293.298943,287.41557 Z M306.146759,296.19534 C307.073655,294.470282 308.850207,292.513501 312.22308,292.513501 C315.570207,292.513501 317.552736,294.444535 317.552736,297.456949 L317.552736,305.438558 L315.647448,305.438558 L315.647448,303.353041 L315.286989,303.353041 C314.488828,304.640397 313.175724,305.799018 310.52377,305.799018 C307.717333,305.799018 305.812046,304.331432 305.812046,302.091432 C305.812046,299.825685 307.537103,298.667064 310.034575,298.43534 L315.595954,297.89465 L315.595954,297.35396 C315.595954,295.47442 314.334345,294.187064 312.120092,294.187064 C309.931586,294.187064 308.566989,295.47442 307.820322,297.122236 L306.146759,296.19534 Z M307.820322,302.065685 C307.820322,303.301547 309.030437,304.125455 310.832736,304.125455 C313.561931,304.125455 315.595954,302.477639 315.595954,299.748443 L315.595954,299.542466 L310.420782,300.031662 C308.82446,300.186144 307.820322,300.85557 307.820322,302.065685 Z M320.487908,288.93465 C320.487908,288.007753 321.18308,287.312581 322.135724,287.312581 C323.088368,287.312581 323.809287,288.007753 323.809287,288.93465 C323.809287,289.887294 323.088368,290.582466 322.135724,290.582466 C321.18308,290.582466 320.487908,289.887294 320.487908,288.93465 Z M323.139862,292.87396 L323.139862,305.438558 L321.157333,305.438558 L321.157333,292.87396 L323.139862,292.87396 Z M328.80423,292.87396 L328.80423,294.547524 L329.16469,294.547524 C329.653885,293.311662 330.632276,292.822466 332.305839,292.822466 L333.927908,292.822466 L333.927908,294.573271 L331.893885,294.573271 C330.040092,294.573271 328.855724,295.577409 328.855724,297.740167 L328.855724,305.438558 L326.873195,305.438558 L326.873195,292.87396 L328.80423,292.87396 Z" id="Fair-" fill="#0059FF"></path>
                <path d="M305.348598,318.312121 L305.348598,336.33511 L303.44331,336.33511 L303.44331,334.120857 L303.082851,334.120857 C302.361931,335.408213 301.048828,336.669822 298.448368,336.669822 C295.101241,336.669822 292.475034,333.992121 292.475034,330.027064 C292.475034,326.062006 295.101241,323.384305 298.448368,323.384305 C301.048828,323.384305 302.361931,324.645914 303.082851,325.933271 L303.391816,325.933271 L303.391816,318.312121 L305.348598,318.312121 Z M298.886069,325.160857 C296.311356,325.160857 294.48331,327.01465 294.48331,330.027064 C294.48331,333.065225 296.311356,334.893271 298.886069,334.893271 C301.512276,334.893271 303.391816,333.01373 303.391816,330.027064 C303.391816,327.066144 301.512276,325.160857 298.886069,325.160857 Z M308.438253,319.831202 C308.438253,318.904305 309.133425,318.209133 310.086069,318.209133 C311.038713,318.209133 311.759632,318.904305 311.759632,319.831202 C311.759632,320.783845 311.038713,321.479018 310.086069,321.479018 C309.133425,321.479018 308.438253,320.783845 308.438253,319.831202 Z M311.090207,323.770512 L311.090207,336.33511 L309.107678,336.33511 L309.107678,323.770512 L311.090207,323.770512 Z M314.385839,327.01465 C314.385839,324.77465 316.342621,323.410052 319.097563,323.410052 C321.826759,323.410052 323.886529,324.645914 325.276874,326.396719 L323.835034,327.529593 C322.521931,325.701547 320.771126,325.057868 319.149057,325.057868 C317.526989,325.057868 316.316874,325.727294 316.316874,326.937409 C316.316874,328.147524 317.424,328.636719 319.071816,328.919937 L320.590897,329.177409 C323.191356,329.61511 325.251126,330.464765 325.251126,332.859248 C325.251126,335.227983 323.036874,336.69557 320.230437,336.69557 C317.321011,336.69557 314.849287,335.408213 313.561931,332.807753 L315.209747,331.932351 C316.316874,334.326834 318.325149,335.047753 320.178943,335.047753 C322.08423,335.047753 323.320092,334.223845 323.320092,332.962236 C323.320092,331.726374 322.109977,331.211432 320.359172,330.928213 L318.840092,330.670742 C316.085149,330.207294 314.385839,329.203156 314.385839,327.01465 Z M326.641471,323.770512 L330.555034,323.770512 L330.555034,319.264765 L332.511816,319.264765 L332.511816,323.770512 L336.657103,323.770512 L336.657103,325.444075 L332.511816,325.444075 L332.511816,333.863386 C332.511816,334.378328 332.769287,334.635799 333.232736,334.635799 L335.936184,334.635799 L335.936184,336.33511 L332.486069,336.33511 C331.327448,336.33511 330.555034,335.562696 330.555034,334.352581 L330.555034,325.444075 L326.641471,325.444075 L326.641471,323.770512 Z M341.394575,323.770512 L341.394575,325.444075 L341.755034,325.444075 C342.24423,324.208213 343.222621,323.719018 344.896184,323.719018 L346.518253,323.719018 L346.518253,325.469822 L344.48423,325.469822 C342.630437,325.469822 341.446069,326.47396 341.446069,328.636719 L341.446069,336.33511 L339.46354,336.33511 L339.46354,323.770512 L341.394575,323.770512 Z M348.191816,319.831202 C348.191816,318.904305 348.886989,318.209133 349.839632,318.209133 C350.792276,318.209133 351.513195,318.904305 351.513195,319.831202 C351.513195,320.783845 350.792276,321.479018 349.839632,321.479018 C348.886989,321.479018 348.191816,320.783845 348.191816,319.831202 Z M350.84377,323.770512 L350.84377,336.33511 L348.861241,336.33511 L348.861241,323.770512 L350.84377,323.770512 Z M354.577103,318.312121 L356.559632,318.312121 L356.559632,325.959018 L356.868598,325.959018 C357.56377,324.671662 358.876874,323.410052 361.50308,323.410052 C364.82446,323.410052 367.476414,326.087753 367.476414,330.052811 C367.476414,334.017868 364.82446,336.69557 361.50308,336.69557 C358.876874,336.69557 357.56377,335.43396 356.868598,334.146604 L356.508138,334.146604 L356.508138,336.33511 L354.577103,336.33511 L354.577103,318.312121 Z M361.039632,325.186604 C358.413425,325.186604 356.559632,327.066144 356.559632,330.052811 C356.559632,333.01373 358.413425,334.919018 361.039632,334.919018 C363.640092,334.919018 365.468138,333.065225 365.468138,330.052811 C365.468138,327.01465 363.640092,325.186604 361.039632,325.186604 Z M381.946299,336.33511 L380.041011,336.33511 L380.041011,334.069363 L379.680552,334.069363 C379.036874,335.330972 377.775264,336.566834 375.252046,336.566834 C372.548598,336.566834 370.257103,334.816029 370.257103,331.391662 L370.257103,323.770512 L372.239632,323.770512 L372.239632,331.211432 C372.239632,333.683156 373.60423,334.816029 375.818483,334.816029 C378.26446,334.816029 379.989517,333.219708 379.989517,330.130052 L379.989517,323.770512 L381.946299,323.770512 L381.946299,336.33511 Z M384.109057,323.770512 L388.022621,323.770512 L388.022621,319.264765 L389.979402,319.264765 L389.979402,323.770512 L394.12469,323.770512 L394.12469,325.444075 L389.979402,325.444075 L389.979402,333.863386 C389.979402,334.378328 390.236874,334.635799 390.700322,334.635799 L393.40377,334.635799 L393.40377,336.33511 L389.953655,336.33511 C388.795034,336.33511 388.022621,335.562696 388.022621,334.352581 L388.022621,325.444075 L384.109057,325.444075 L384.109057,323.770512 Z M395.849747,329.949822 C395.849747,326.216489 398.501701,323.410052 402.157793,323.410052 C405.710897,323.410052 408.208368,325.778788 408.208368,329.589363 L408.208368,330.619248 L397.909517,330.619248 C398.064,333.245455 399.76331,334.944765 402.312276,334.944765 C404.526529,334.944765 405.633655,333.786144 406.251586,332.395799 L407.976644,333.271202 C407.126989,334.893271 405.685149,336.69557 402.338023,336.69557 C398.475954,336.69557 395.849747,333.811891 395.849747,329.949822 Z M397.909517,328.997179 L406.148598,328.997179 C406.045609,326.525455 404.475034,325.160857 402.157793,325.160857 C399.789057,325.160857 398.192736,326.65419 397.909517,328.997179 Z M423.115954,318.312121 L423.115954,336.33511 L421.210667,336.33511 L421.210667,334.120857 L420.850207,334.120857 C420.129287,335.408213 418.816184,336.669822 416.215724,336.669822 C412.868598,336.669822 410.242391,333.992121 410.242391,330.027064 C410.242391,326.062006 412.868598,323.384305 416.215724,323.384305 C418.816184,323.384305 420.129287,324.645914 420.850207,325.933271 L421.159172,325.933271 L421.159172,318.312121 L423.115954,318.312121 Z M416.653425,325.160857 C414.078713,325.160857 412.250667,327.01465 412.250667,330.027064 C412.250667,333.065225 414.078713,334.893271 416.653425,334.893271 C419.279632,334.893271 421.159172,333.01373 421.159172,330.027064 C421.159172,327.066144 419.279632,325.160857 416.653425,325.160857 Z" id="distributed" fill="#0059FF"></path>
                <g id="Group-25" transform="translate(102.149425, 95.632184)" stroke="#0059FF">
                    <path d="M126.662897,1.53195402 L149.038989,1.53195402" id="Stroke-9"></path>
                    <path d="M126.662897,11.6468966 L149.038989,11.6468966" id="Stroke-11"></path>
                    <path d="M126.662897,264.827586 L149.038989,264.827586" id="Stroke-13"></path>
                    <path d="M126.662897,274.942529 L149.038989,274.942529" id="Stroke-15"></path>
                    <path d="M274.55623,129.195402 L274.55623,150.95908" id="Stroke-17"></path>
                    <path d="M264.441287,129.195402 L264.441287,150.95908" id="Stroke-19"></path>
                    <path d="M11.2605977,129.195402 L11.2605977,150.95908" id="Stroke-21"></path>
                    <path d="M1.14565517,129.195402 L1.14565517,150.95908" id="Stroke-23"></path>
                </g>
            </g>
        </g>
    </g>
</svg>