<?xml version="1.0" encoding="UTF-8"?>
<svg width="482px" height="477px" viewBox="0 0 482 477" version="1.1" xmlns="http://www.w3.org/2000/svg" xmlns:xlink="http://www.w3.org/1999/xlink">
    <!-- Generator: Sketch 52.6 (67491) - http://www.bohemiancoding.com/sketch -->
    <title>Image/Phase-1</title>
    <desc>Created with Sketch.</desc>
    <g id="Main-page" stroke="none" stroke-width="1" fill="none" fill-rule="evenodd">
        <g id="XL≥1200" transform="translate(-633.000000, -5404.000000)">
            <g id="Group-7-[0v]">
                <g id="Group-6" transform="translate(0.000000, 5089.000000)">
                    <g id="Group-3-[48v]" transform="translate(60.000000, 80.000000)">
                        <g id="Group-2-[m]" transform="translate(0.000000, 236.000000)">
                            <g id="Image/Phase-1" transform="translate(574.000000, 0.000000)">
                                <g id="Group-26">
                                    <path d="M194.681563,207.816092 L13.1330575,207.816092 C5.87972414,207.816092 0.000183908046,201.936552 0.000183908046,194.681379 L0.000183908046,13.1347126 C0.000183908046,5.87954023 5.87972414,0 13.1330575,0 L194.681563,0 C201.934897,0 207.816276,5.87954023 207.816276,13.1347126 L207.816276,194.681379 C207.816276,201.936552 201.934897,207.816092 194.681563,207.816092 Z" id="Stroke-1" stroke="#0059FF" stroke-width="2"></path>
                                    <text id="Maximum-" font-family="SpaceGrotesk-Regular, Space Grotesk" font-size="25.7471264" font-weight="normal" fill="#0059FF">
                                        <tspan x="19.2097471" y="36.7718914">Maximum </tspan>
                                    </text>
                                    <text id="GPU-usage" font-family="SpaceGrotesk-Regular, Space Grotesk" font-size="25.7471264" font-weight="normal" fill="#0059FF">
                                        <tspan x="19.2097471" y="69.6684431">GPU u</tspan>
                                        <tspan x="90.7867586" y="69.6684431" letter-spacing="0.0257471274">s</tspan>
                                        <tspan x="104.252506" y="69.6684431">age</tspan>
                                    </text>
                                    <path d="M466.865471,207.816092 L285.316966,207.816092 C278.063632,207.816092 272.184092,201.936552 272.184092,194.681379 L272.184092,13.1347126 C272.184092,5.87954023 278.063632,0 285.316966,0 L466.865471,0 C474.118805,0 480.000184,5.87954023 480.000184,13.1347126 L480.000184,194.681379 C480.000184,201.936552 474.118805,207.816092 466.865471,207.816092 Z" id="Stroke-3" stroke="#0059FF" stroke-width="2"></path>
                                    <text id="ASIC-" font-family="SpaceGrotesk-Regular, Space Grotesk" font-size="25.7471264" font-weight="normal" fill="#0059FF">
                                        <tspan x="291.393655" y="38.7718914">ASIC </tspan>
                                    </text>
                                    <text id="resistant" font-family="SpaceGrotesk-Regular, Space Grotesk" font-size="25.7471264" font-weight="normal" letter-spacing="-0.643678145" fill="#0059FF">
                                        <tspan x="291.393655" y="69.6684431">r</tspan>
                                        <tspan x="299.504" y="69.6684431" letter-spacing="-0.128735629">e</tspan>
                                        <tspan x="313.613425" y="69.6684431">sista</tspan>
                                        <tspan x="371.801931" y="69.6684431" letter-spacing="-0.257471258">n</tspan>
                                        <tspan x="386.580782" y="69.6684431">t</tspan>
                                    </text>
                                    <path d="M194.681563,474.482759 L13.1330575,474.482759 C5.87972414,474.482759 0.000183908046,468.603218 0.000183908046,461.348046 L0.000183908046,279.801379 C0.000183908046,272.546207 5.87972414,266.666667 13.1330575,266.666667 L194.681563,266.666667 C201.934897,266.666667 207.816276,272.546207 207.816276,279.801379 L207.816276,461.348046 C207.816276,468.603218 201.934897,474.482759 194.681563,474.482759 Z" id="Stroke-5" stroke="#0059FF" stroke-width="2"></path>
                                    <text id="Truly" font-family="SpaceGrotesk-Regular, Space Grotesk" font-size="25.7471264" font-weight="normal" letter-spacing="-2.57471258" fill="#0059FF">
                                        <tspan x="19.2097471" y="305.438558">T</tspan>
                                        <tspan x="29.0451495" y="305.438558">ruly</tspan>
                                    </text>
                                    <text id="decentralized" font-family="SpaceGrotesk-Regular, Space Grotesk" font-size="25.7471264" font-weight="normal" fill="#0059FF">
                                        <tspan x="19.2097471" y="336.33511">dece</tspan>
                                        <tspan x="78.4023908" y="336.33511" letter-spacing="-0.257471258">n</tspan>
                                        <tspan x="93.1812414" y="336.33511">t</tspan>
                                        <tspan x="104.406989" y="336.33511" letter-spacing="-0.128735629">r</tspan>
                                        <tspan x="113.547218" y="336.33511">ali</tspan>
                                        <tspan x="139.397333" y="336.33511" letter-spacing="-0.388781598">z</tspan>
                                        <tspan x="152.242575" y="336.33511">ed</tspan>
                                    </text>
                                    <path d="M466.865471,474.482759 L285.316966,474.482759 C278.063632,474.482759 272.184092,468.603218 272.184092,461.348046 L272.184092,279.801379 C272.184092,272.546207 278.063632,266.666667 285.316966,266.666667 L466.865471,266.666667 C474.118805,266.666667 480.000184,272.546207 480.000184,279.801379 L480.000184,461.348046 C480.000184,468.603218 474.118805,474.482759 466.865471,474.482759 Z" id="Stroke-7" stroke="#0059FF" stroke-width="2"></path>
                                    <text id="Fair-" font-family="SpaceGrotesk-Regular, Space Grotesk" font-size="25.7471264" font-weight="normal" letter-spacing="-0.128735629" fill="#0059FF">
                                        <tspan x="291.393655" y="305.438558">F</tspan>
                                        <tspan x="304.859402" y="305.438558">air </tspan>
                                    </text>
                                    <text id="distributed" font-family="SpaceGrotesk-Regular, Space Grotesk" font-size="25.7471264" font-weight="normal" fill="#0059FF">
                                        <tspan x="291.393655" y="336.33511">distribu</tspan>
                                        <tspan x="383.825839" y="336.33511" letter-spacing="-0.128735629">t</tspan>
                                        <tspan x="394.794115" y="336.33511">ed</tspan>
                                    </text>
                                    <g id="Group-25" transform="translate(102.149425, 95.632184)" stroke="#0059FF">
                                        <path d="M126.662897,1.53195402 L149.038989,1.53195402" id="Stroke-9"></path>
                                        <path d="M126.662897,11.6468966 L149.038989,11.6468966" id="Stroke-11"></path>
                                        <path d="M126.662897,264.827586 L149.038989,264.827586" id="Stroke-13"></path>
                                        <path d="M126.662897,274.942529 L149.038989,274.942529" id="Stroke-15"></path>
                                        <path d="M274.55623,129.195402 L274.55623,150.95908" id="Stroke-17"></path>
                                        <path d="M264.441287,129.195402 L264.441287,150.95908" id="Stroke-19"></path>
                                        <path d="M11.2605977,129.195402 L11.2605977,150.95908" id="Stroke-21"></path>
                                        <path d="M1.14565517,129.195402 L1.14565517,150.95908" id="Stroke-23"></path>
                                    </g>
                                </g>
                            </g>
                        </g>
                    </g>
                </g>
            </g>
        </g>
    </g>
</svg>