<?xml version="1.0" encoding="utf-8"?>
<!-- Generator: Adobe Illustrator 21.0.0, SVG Export Plug-In . SVG Version: 6.00 Build 0)  -->
<svg version="1.1" id="Layer_1" xmlns="http://www.w3.org/2000/svg" xmlns:xlink="http://www.w3.org/1999/xlink" x="0px" y="0px"
	 width="885.5px" height="292.8px" viewBox="0 0 885.5 292.8" style="enable-background:new 0 0 885.5 292.8;" xml:space="preserve"
	>
<title>Mask</title>
<desc>Created with Sketch.</desc>
<g id="Page-1">
	<g id="XL_x2265_1200" transform="translate(0.000000, -2738.000000)">
		<g id="Group-7-_x5B_0v_x5D_">
			<g id="Group-6" transform="translate(0.000000, 2600.000000)">
				<g id="Image_x2F_block-explorer_1_" transform="translate(60.000000, 238.000000)">
					<g id="Mask">
						<defs>
							<filter id="Adobe_OpacityMaskFilter" filterUnits="userSpaceOnUse" x="-60" y="-100" width="885.5" height="465.3">
								<feColorMatrix  type="matrix" values="1 0 0 0 0  0 1 0 0 0  0 0 1 0 0  0 0 0 1 0"/>
							</filter>
						</defs>
						<mask maskUnits="userSpaceOnUse" x="-60" y="-100" width="885.5" height="465.3" id="mask-2">
							<g style="filter:url(#Adobe_OpacityMaskFilter);">
								<rect id="path-1" x="-157.2" y="-110.2" style="fill:#FFFFFF;" width="1080" height="306"/>
							</g>
						</mask>
						<g id="Image_x2F_block-explorer" style="mask:url(#mask-2);">
							<g id="Group-111" transform="translate(91.000000, 4.000000)">
								<g transform="translate(6.662953, 6.669027)">
									<path id="Stroke-1" style="opacity:0.7115;fill:none;stroke:#0059FF;enable-background:new    ;" d="M-110.5-50.1v-11.5
										c0-7.9,6.1-14.3,13.6-14.3h764.9c7.5,0,13.6,6.4,13.6,14.3v11.5"/>
									<path id="Stroke-3" style="opacity:0.4491;fill:none;stroke:#0059FF;enable-background:new    ;" d="M-73-50.1v-30.1
										c0-6.9,5.5-12.4,12.3-12.4h692.5c6.8,0,12.3,5.6,12.3,12.4v30.1"/>
									<path id="Stroke-5" style="opacity:0.3386;fill:none;stroke:#0059FF;enable-background:new    ;" d="M-35.6-50.1v-49
										c0-6.1,4.9-11,11-11h619.3c6.1,0,11,4.9,11,11v49"/>
									<path id="Stroke-7" style="fill:none;stroke:#0059FF;" d="M727.3,354.2h-884.5V-36.2c0-7.7,6.3-14,14-14h856.6
										c7.7,0,14,6.3,14,14V354.2z"/>
									<path id="Fill-9" style="fill:#FFFFFF;" d="M-113,9c-4.8,0-6.4-0.6-8.5-2.5c1.1,0.3,2.3,0.4,3.4,0.4
										c7.6,0,13.7-6.2,13.7-13.8c0-7.6-6.2-13.8-13.7-13.8c-1.2,0-2.3,0.2-3.4,0.4c2.2-1.7,3.7-2.5,8.5-2.5
										c8.7,0,15.8,7.1,15.8,15.8C-97.2,1.9-104.3,9-113,9 M-126.2,0.9c1,0.4,2.2,0.7,3.4,0.7c2.4,0,4.4-0.8,6.1-2.5
										s2.5-3.7,2.5-6.1s-0.8-4.4-2.5-6.1c-1.7-1.7-3.7-2.5-6.1-2.5c-1,0-2,0.2-2.9,0.5c1.5-1.8,3-3,7.6-3c6.2,0,11.2,5,11.2,11.2
										c0,6.2-5,11.2-11.2,11.2C-123,4.4-124.5,3.3-126.2,0.9 M-122.8-12.8c1.6,0,3,0.6,4.2,1.7c1.1,1.1,1.7,2.5,1.7,4.2
										c0,1.7-0.6,3.1-1.7,4.2c-1.1,1.1-2.5,1.7-4.2,1.7c-1.6,0-3-0.6-4.1-1.7c-1.1-1.1-1.7-2.5-1.7-4.2c0-1.7,0.6-3.1,1.7-4.2
										C-125.8-12.3-124.4-12.8-122.8-12.8 M-113-25.1c-10,0-18.1,8-18.3,18c0,0.1,0,0.1,0,0.2c0,0,0,0,0,0.1c0,0,0,0.1,0,0.1
										c0,10.1,8.2,18.3,18.3,18.3c10.1,0,18.3-8.2,18.3-18.3C-94.7-16.9-102.9-25.1-113-25.1"/>
									<path id="Stroke-11" style="fill:none;stroke:#0059FF;" d="M211.1,146.6H16.8c-4.5,0-8.2-3.7-8.2-8.3V59.8
										c0-4.6,3.7-8.3,8.2-8.3h194.3c4.5,0,8.2,3.7,8.2,8.3v78.5C219.3,142.9,215.6,146.6,211.1,146.6z"/>
									<path id="Stroke-13" style="fill:none;stroke:#0059FF;" d="M25.2,69.9h121.6"/>
									<path id="Stroke-15" style="fill:none;stroke:#0059FF;" d="M25.2,83.2h151.6"/>
									<path id="Stroke-17" style="fill:none;stroke:#0059FF;" d="M25.2,97.4h89.9"/>
									<path id="Stroke-19" style="fill:none;stroke:#0059FF;" d="M25.2,126.6h151.6"/>
									<path id="Stroke-21" style="fill:none;stroke:#0059FF;" d="M8.6,204.9h60.8"/>
									<path id="Stroke-23" style="fill:none;stroke:#0059FF;" d="M116.9,204.9h388.9"/>
									<path id="Stroke-25" style="fill:none;stroke:#0059FF;" d="M549.9,204.9h44.1"/>
									<path id="Stroke-27" style="fill:none;stroke:#0059FF;" d="M624.9,204.9H669"/>
									<path id="Stroke-29" style="fill:none;stroke:#0059FF;" d="M8.6,233.3h60.8"/>
									<path id="Stroke-31" style="fill:none;stroke:#0059FF;" d="M116.9,233.3h388.9"/>
									<path id="Stroke-33" style="fill:none;stroke:#0059FF;" d="M549.9,233.3h44.1"/>
									<path id="Stroke-35" style="fill:none;stroke:#0059FF;" d="M624.9,233.3H669"/>
									<path id="Stroke-37" style="fill:none;stroke:#0059FF;" d="M8.6,260.8h60.8"/>
									<path id="Stroke-39" style="fill:none;stroke:#0059FF;" d="M116.9,260.8h388.9"/>
									<path id="Stroke-41" style="fill:none;stroke:#0059FF;" d="M549.9,260.8h44.1"/>
									<path id="Stroke-43" style="fill:none;stroke:#0059FF;" d="M624.9,260.8H669"/>
									<path id="Stroke-45" style="fill:none;stroke:#0059FF;" d="M8.6,289.1h60.8"/>
									<path id="Stroke-47" style="fill:none;stroke:#0059FF;" d="M116.9,289.1h388.9"/>
									<path id="Stroke-49" style="fill:none;stroke:#0059FF;" d="M549.9,289.1h44.1"/>
									<path id="Stroke-51" style="fill:none;stroke:#0059FF;" d="M624.9,289.1H669"/>
									<path id="Stroke-53" style="fill:none;stroke:#0059FF;" d="M8.6,317.5h60.8"/>
									<path id="Stroke-55" style="fill:none;stroke:#0059FF;" d="M116.9,317.5h388.9"/>
									<path id="Stroke-57" style="fill:none;stroke:#0059FF;" d="M549.9,317.5h44.1"/>
									<path id="Stroke-59" style="fill:none;stroke:#0059FF;" d="M624.9,317.5H669"/>
									<path id="Stroke-61" style="fill:none;stroke:#0059FF;" d="M8.6,345h60.8"/>
									<path id="Stroke-63" style="fill:none;stroke:#0059FF;" d="M116.9,345h388.9"/>
									<path id="Stroke-65" style="fill:none;stroke:#0059FF;" d="M549.9,345h44.1"/>
									<path id="Stroke-67" style="fill:none;stroke:#0059FF;" d="M624.9,345H669"/>
									<path id="Stroke-69" style="fill:none;stroke:#0059FF;" d="M440.1,146.6H245.8c-4.5,0-8.2-3.7-8.2-8.3V59.8
										c0-4.6,3.7-8.3,8.2-8.3h194.3c4.5,0,8.2,3.7,8.2,8.3v78.5C448.3,142.9,444.7,146.6,440.1,146.6z"/>
									<path id="Stroke-71" style="fill:none;stroke:#0059FF;" d="M254.3,69.9h121.6"/>
									<path id="Stroke-73" style="fill:none;stroke:#0059FF;" d="M253.4,83.2H405"/>
									<path id="Stroke-75" style="fill:none;stroke:#0059FF;" d="M253.4,97.4h89.9"/>
									<path id="Stroke-77" style="fill:none;stroke:#0059FF;" d="M253.4,126.6H405"/>
									<path id="Stroke-79" style="fill:none;stroke:#0059FF;" d="M668.3,146.6H474c-4.5,0-8.2-3.7-8.2-8.3V59.8
										c0-4.6,3.7-8.3,8.2-8.3h194.3c4.5,0,8.2,3.7,8.2,8.3v78.5C676.5,142.9,672.9,146.6,668.3,146.6z"/>
									<path id="Stroke-81" style="fill:none;stroke:#0059FF;" d="M482.5,69.9h121.6"/>
									<path id="Stroke-83" style="fill:none;stroke:#0059FF;" d="M482.5,83.2h151.6"/>
									<path id="Stroke-85" style="fill:none;stroke:#0059FF;" d="M482.5,97.4h89.9"/>
									<path id="Stroke-87" style="fill:none;stroke:#0059FF;" d="M482.5,126.6h151.6"/>
									<path id="Stroke-89" style="fill:none;stroke:#0059FF;" d="M-114.7,62c0,3.9-3.2,7.1-7.1,7.1c-3.9,0-7.1-3.2-7.1-7.1
										s3.2-7.1,7.1-7.1C-117.9,54.9-114.7,58.1-114.7,62z"/>
									<path id="Stroke-91" style="fill:none;stroke:#0059FF;" d="M-107.2,62.4h72.5"/>
									<path id="Stroke-93" style="fill:none;stroke:#0059FF;" d="M-114.7,90.3c0,3.9-3.2,7.1-7.1,7.1c-3.9,0-7.1-3.2-7.1-7.1
										s3.2-7.1,7.1-7.1C-117.9,83.2-114.7,86.4-114.7,90.3z"/>
									<path id="Stroke-95" style="fill:none;stroke:#0059FF;" d="M-107.2,90.7h72.5"/>
									<path id="Stroke-97" style="fill:none;stroke:#0059FF;" d="M-114.7,119.5c0,3.9-3.2,7.1-7.1,7.1c-3.9,0-7.1-3.2-7.1-7.1
										s3.2-7.1,7.1-7.1C-117.9,112.4-114.7,115.6-114.7,119.5z"/>
									<path id="Stroke-99" style="fill:none;stroke:#0059FF;" d="M-107.2,119.1h72.5"/>
									<path id="Stroke-101" style="fill:none;stroke:#0059FF;" d="M-114.7,147c0,3.9-3.2,7.1-7.1,7.1c-3.9,0-7.1-3.2-7.1-7.1
										c0-3.9,3.2-7.1,7.1-7.1C-117.9,139.9-114.7,143.1-114.7,147z"/>
									<path id="Stroke-103" style="fill:none;stroke:#0059FF;" d="M-107.2,146.6h72.5"/>
									<path id="Stroke-105" style="fill:none;stroke:#0059FF;" d="M33.6-13.1c0,4.8-3.9,8.8-8.7,8.8c-4.8,0-8.7-3.9-8.7-8.8
										s3.9-8.8,8.7-8.8C29.6-21.8,33.6-17.9,33.6-13.1z"/>
									<path id="Stroke-107" style="fill:none;stroke:#0059FF;" d="M31.1-6.8l8.3,8.3"/>
									<path id="Stroke-109" style="fill:none;stroke:#0059FF;" d="M11.1,9h668"/>
								</g>
							</g>
						</g>
					</g>
				</g>
			</g>
		</g>
	</g>
</g>
</svg>
