<?xml version="1.0" encoding="UTF-8"?>
<svg width="40px" height="38px" viewBox="0 0 40 38" version="1.1" xmlns="http://www.w3.org/2000/svg" xmlns:xlink="http://www.w3.org/1999/xlink">
    <!-- Generator: Sketch 52.2 (67145) - http://www.bohemiancoding.com/sketch -->
    <title>Group 9</title>
    <desc>Created with Sketch.</desc>
    <g id="Symbols" stroke="none" stroke-width="1" fill="none" fill-rule="evenodd">
        <g id="Icon/OS-MacOS" transform="translate(0.000000, -1.000000)" stroke="#C1C9D4">
            <g id="Group-9" transform="translate(1.000000, 1.500000)">
                <path d="M35.1253,36.5 L2.87565,36.5 C1.28725,36.5 0,35.2026164 0,33.6005297 L0,3.39947034 C0,1.79834181 1.28725,0.5 2.87565,0.5 L35.1253,0.5 C36.7137,0.5 38,1.79834181 38,3.39947034 L38,33.6005297 C38,35.2026164 36.7137,36.5 35.1253,36.5 Z" id="Stroke-1"></path>
                <path d="M19.8349167,0.5 C17.3415944,7.51583668 16,13.8484869 16,18.5004791 L21.464684,18.5004791 C20.9856808,23.7245083 21.1784387,30.874491 23,36.5" id="Stroke-3"></path>
                <polygon id="Stroke-5" stroke-linejoin="round" points="10.0025 13.5 10.9975 13.5 10.9975 10.5 10.0025 10.5"></polygon>
                <polygon id="Stroke-7" stroke-linejoin="round" points="27.0025 13.5 27.9975 13.5 27.9975 10.5 27.0025 10.5"></polygon>
                <path d="M7,23.5 C9.31646793,27.0752958 13.8217854,29.5 19,29.5 C24.1791814,29.5 28.6844989,27.0752958 31,23.5" id="Stroke-8" stroke-linejoin="round"></path>
            </g>
        </g>
    </g>
</svg>