<?xml version="1.0" encoding="UTF-8"?>
<svg enable-background="new 0 0 475.5 463.6" version="1.1" viewBox="0 0 475.5 463.6" xml:space="preserve" xmlns="http://www.w3.org/2000/svg">
<title>Image/Hero</title>
<desc>Created with Sketch.</desc>
	<g transform="translate(-515)">
				<g transform="translate(60 58)">
					<g transform="translate(555)">
						<g transform="translate(0 7)">
							<g transform="translate(25 25)" fill="none" stroke="#0059FF">
								<path d="m350.3 141.8c0 126.2-102.3 228.5-228.5 228.5s-228.5-102.3-228.5-228.5 102.3-228.5 228.5-228.5 228.5 102.3 228.5 228.5z" stroke-width=".5"/>
								<path d="m340.3 146.3c0 124.3-101 225-225.5 225s-225.5-100.7-225.5-225 101-225 225.5-225 225.5 100.7 225.5 225z" stroke-width=".508"/>
								<path d="m331.3 151.3c0 122.6-99.4 222-222 222s-222-99.4-222-222 99.4-222 222-222 222 99.4 222 222z" stroke-width=".515"/>
								<path d="m323.3 150.8c0 121.2-98.3 219.5-219.5 219.5s-219.5-98.3-219.5-219.5 98.3-219.5 219.5-219.5 219.5 98.3 219.5 219.5z" stroke-width=".523"/>
								<path d="m314.3 145.3c0 119.3-96.7 216-216 216s-216-96.7-216-216 96.7-216 216-216 216 96.7 216 216z" stroke-width=".531"/>
								<path d="m306.3 139.3c0 117.6-95.4 213-213 213s-213-95.4-213-213 95.4-213 213-213 213 95.4 213 213z" stroke-width=".538"/>
								<path d="m298.3 133.3c0 116-94 210-210 210s-210-94-210-210 94-210 210-210 210 94 210 210z" stroke-width=".546"/>
								<path d="m289.3 127.3c0 114.3-92.7 207-207 207s-207-92.7-207-207 92.7-207 207-207 207 92.7 207 207z" stroke-width=".554"/>
								<path d="m292.3 123.3c0 112.7-91.3 204-204 204s-204-91.3-204-204 91.3-204 204-204c112.6 0 204 91.3 204 204z" stroke-width=".562"/>
								<path d="m296.3 118.3c0 111-90 201-201 201s-201-90-201-201 90-201 201-201 201 90 201 201z" stroke-width=".569"/>
								<path d="m299.3 113.8c0 109.1-88.6 197.5-198 197.5s-198-88.4-198-197.5 88.6-197.5 198-197.5 198 88.4 198 197.5z" stroke-width=".577"/>
								<path d="m302.3 108.3c0 107.7-87.3 195-195 195s-195-87.3-195-195 87.3-195 195-195 195 87.3 195 195z" stroke-width=".585"/>
								<path d="m305.3 103.8c0 105.8-86 191.5-192 191.5s-192-85.7-192-191.5 86-191.5 192-191.5 192 85.7 192 191.5z" stroke-width=".592"/>
								<path d="m308.3 98.8c0 104.1-84.4 188.5-188.5 188.5s-188.5-84.4-188.5-188.5 84.4-188.5 188.5-188.5 188.5 84.4 188.5 188.5z" stroke-width=".6"/>
								<path d="m309.3 105.8c0 102.4-83.3 185.5-186 185.5s-186-83.1-186-185.5 83.3-185.5 186-185.5 186 83.1 186 185.5z" stroke-width=".608"/>
								<path d="m310.3 112.8c0 100.8-81.9 182.5-183 182.5s-183-81.7-183-182.5 81.9-182.5 183-182.5c101 0 183 81.7 183 182.5z" stroke-width=".615"/>
								<path d="m311.3 119.8c0 99.1-80.4 179.5-179.5 179.5s-179.5-80.4-179.5-179.5 80.3-179.5 179.5-179.5 179.5 80.4 179.5 179.5z" stroke-width=".623"/>
								<path d="m311.3 125.8c0 97.5-79 176.5-176.5 176.5s-176.5-79-176.5-176.5 79-176.5 176.5-176.5 176.5 79 176.5 176.5z" stroke-width=".631"/>
								<path d="m313.3 132.3c0 95.5-77.7 173-173.5 173s-173.5-77.5-173.5-173 77.7-173 173.5-173 173.5 77.5 173.5 173z" stroke-width=".638"/>
								<path d="m313.3 139.8c0 94.2-76.3 170.5-170.5 170.5s-170.5-76.3-170.5-170.5 76.3-170.5 170.5-170.5c94.1 0 170.5 76.3 170.5 170.5z" stroke-width=".646"/>
								<path d="m314.3 146.8c0 92.5-75 167.5-167.5 167.5s-167.5-75-167.5-167.5 75-167.5 167.5-167.5 167.5 75 167.5 167.5z" stroke-width=".654"/>
								<path d="m315.3 153.3c0 90.6-73.4 164-164 164s-164-73.4-164-164 73.4-164 164-164 164 73.4 164 164z" stroke-width=".662"/>
								<path d="m316.3 160.3c0 88.9-72.3 161-161.5 161s-161.5-72.1-161.5-161 72.3-161 161.5-161 161.5 72.1 161.5 161z" stroke-width=".669"/>
								<path d="m317.3 165.8c0 87.5-71 158.5-158.5 158.5s-158.5-71-158.5-158.5 71-158.5 158.5-158.5 158.5 71 158.5 158.5z" stroke-width=".677"/>
								<path d="m317.3 173.3c0 85.6-69.4 155-155 155s-155-69.4-155-155 69.4-155 155-155 155 69.4 155 155z" stroke-width=".685"/>
								<path d="m318.3 179.3c0 83.9-68.1 152-152 152s-152-68.1-152-152 68.1-152 152-152 152 68.1 152 152z" stroke-width=".692"/>
								<path d="m319.3 186.3c0 82.3-66.9 149-149.5 149s-149.5-66.7-149.5-149 66.9-149 149.5-149 149.5 66.7 149.5 149z" stroke-width=".7"/>
								<path d="m315.3 192.3c0 80.6-65.4 146-146 146s-146-65.4-146-146 65.4-146 146-146 146 65.4 146 146z" stroke-width=".708"/>
								<path d="m305.3 194.3c0 79-64 143-143 143s-143-64-143-143 64-143 143-143 143 64 143 143z" stroke-width=".715"/>
								<path d="m294.3 197.8c0 77-62.7 139.5-140 139.5s-140-62.5-140-139.5 62.7-139.5 140-139.5 140 62.5 140 139.5z" stroke-width=".723"/>
								<path d="m284.3 200.8c0 75.4-61.3 136.5-137 136.5s-137-61.1-137-136.5 61.3-136.5 137-136.5c75.6 0 137 61.1 137 136.5z" stroke-width=".731"/>
								<path d="m274.3 204.3c0 74-60 134-134 134s-134-60-134-134 60-134 134-134 134 60 134 134z" stroke-width=".738"/>
								<path d="m264.3 206.8c0 72.1-58.4 130.5-130.5 130.5s-130.5-58.4-130.5-130.5 58.4-130.5 130.5-130.5c72 0 130.5 58.4 130.5 130.5z" stroke-width=".746"/>
								<path d="m253.3 209.8c0 70.4-57.1 127.5-127.5 127.5s-127.5-57.1-127.5-127.5 57.1-127.5 127.5-127.5 127.5 57.1 127.5 127.5z" stroke-width=".754"/>
								<path d="m243.3 212.8c0 68.8-56 124.5-125 124.5s-125-55.7-125-124.5 56-124.5 125-124.5 125 55.7 125 124.5z" stroke-width=".762"/>
								<path d="m233.3 216.8c0 67.1-54.4 121.5-121.5 121.5s-121.5-54.4-121.5-121.5 54.4-121.5 121.5-121.5 121.5 54.4 121.5 121.5z" stroke-width=".769"/>
								<path d="m222.3 218.8c0 65.4-53.1 118.5-118.5 118.5s-118.5-53.1-118.5-118.5 53.1-118.5 118.5-118.5 118.5 53.1 118.5 118.5z" stroke-width=".777"/>
								<path d="m213.3 221.8c0 63.8-51.7 115.5-115.5 115.5s-115.5-51.7-115.5-115.5 51.7-115.5 115.5-115.5 115.5 51.7 115.5 115.5z" stroke-width=".785"/>
								<path d="m202.3 225.3c0 61.9-50.4 112-112.5 112s-112.5-50.1-112.5-112 50.4-112 112.5-112 112.5 50.1 112.5 112z" stroke-width=".792"/>
								<path d="m193.3 228.8c0 60.5-49 109.5-109.5 109.5s-109.5-49-109.5-109.5 49-109.5 109.5-109.5 109.5 49 109.5 109.5z" stroke-width=".8"/>
								<path d="m182.3 231.8c0 58.8-47.7 106.5-106.5 106.5s-106.5-47.7-106.5-106.5 47.7-106.5 106.5-106.5 106.5 47.7 106.5 106.5z" stroke-width=".808"/>
								<path d="m172.3 234.3c0 56.9-46.1 103-103 103s-103-46.1-103-103 46.1-103 103-103 103 46.1 103 103z" stroke-width=".815"/>
								<path d="m162.3 237.3c0 55.2-45 100-100.5 100s-100.5-44.8-100.5-100 45-100 100.5-100 100.5 44.8 100.5 100z" stroke-width=".823"/>
								<path d="m152.3 241.3c0 53.6-43.7 97-97.5 97s-97.5-43.4-97.5-97 43.7-97 97.5-97 97.5 43.4 97.5 97z" stroke-width=".831"/>
								<path d="m141.3 244.3c0 51.9-42.1 94-94 94s-94-42.1-94-94 42.1-94 94-94 94 42.1 94 94z" stroke-width=".838"/>
								<path d="m131.3 246.3c0 50.3-40.7 91-91 91s-91-40.7-91-91 40.7-91 91-91c50.2 0 91 40.7 91 91z" stroke-width=".846"/>
								<path d="m122.3 244.8c0 48.3-39.4 87.5-88 87.5s-88-39.2-88-87.5 39.4-87.5 88-87.5 88 39.2 88 87.5z" stroke-width=".854"/>
								<path d="m112.3 240.3c0 46.9-38.1 85-85 85s-85-38.1-85-85 38.1-85 85-85 85 38.1 85 85z" stroke-width=".862"/>
								<path d="m103.3 235.3c0 45.3-36.7 82-82 82s-82-36.7-82-82 36.7-82 82-82 82 36.7 82 82z" stroke-width=".869"/>
								<path d="m94.3 230.8c0 43.4-35.1 78.5-78.5 78.5s-78.5-35.1-78.5-78.5 35.1-78.5 78.5-78.5c43.3 0 78.5 35.1 78.5 78.5z" stroke-width=".877"/>
								<path d="m85.3 225.3c0 42-34 76-76 76s-76-34-76-76 34-76 76-76 76 34 76 76z" stroke-width=".885"/>
								<path d="m76.3 220.3c0 40.3-32.7 73-73 73s-73-32.7-73-73 32.7-73 73-73 73 32.7 73 73z" stroke-width=".892"/>
								<path d="m67.3 214.8c0 38.4-31.1 69.5-69.5 69.5s-69.5-31.1-69.5-69.5 31.1-69.5 69.5-69.5 69.5 31.1 69.5 69.5z" stroke-width=".9"/>
								<path d="m58.3 209.8c0 36.7-29.8 66.5-66.5 66.5s-66.5-29.8-66.5-66.5 29.8-66.5 66.5-66.5 66.5 29.8 66.5 66.5z" stroke-width=".908"/>
								<path d="m49.3 205.3c0 35.3-28.7 64-64 64s-64-28.7-64-64 28.7-64 64-64 64 28.7 64 64z" stroke-width=".915"/>
								<path d="m40.3 200.8c0 33.4-27.1 60.5-60.5 60.5s-60.5-27.1-60.5-60.5 27.1-60.5 60.5-60.5 60.5 27.1 60.5 60.5z" stroke-width=".923"/>
								<path d="m31.3 195.8c0 31.8-25.7 57.5-57.5 57.5s-57.5-25.7-57.5-57.5 25.7-57.5 57.5-57.5c31.7 0 57.5 25.7 57.5 57.5z" stroke-width=".931"/>
								<path d="m22.3 190.8c0 30.1-24.4 54.5-54.5 54.5s-54.5-24.4-54.5-54.5 24.4-54.5 54.5-54.5 54.5 24.4 54.5 54.5z" stroke-width=".938"/>
								<path d="m12.3 185.8c0 28.4-23.1 51.5-51.5 51.5s-51.5-23.1-51.5-51.5 23.1-51.5 51.5-51.5 51.5 23.1 51.5 51.5z" stroke-width=".946"/>
								<path d="m4.3 180.8c0 26.8-21.7 48.5-48.5 48.5s-48.5-21.7-48.5-48.5 21.7-48.5 48.5-48.5 48.5 21.7 48.5 48.5z" stroke-width=".954"/>
								<path d="m-5.7 176.3c0 24.9-20.1 45-45 45s-45-20.1-45-45 20.1-45 45-45c24.8 0 45 20.1 45 45z" stroke-width=".962"/>
								<path d="m-14.7 171.3c0 23.2-18.8 42-42 42s-42-18.8-42-42 18.8-42 42-42 42 18.8 42 42z" stroke-width=".969"/>
								<path d="m-23.7 165.8c0 21.8-17.7 39.5-39.5 39.5s-39.5-17.7-39.5-39.5 17.7-39.5 39.5-39.5 39.5 17.7 39.5 39.5z" stroke-width=".977"/>
								<path d="m-32.7 160.3c0 19.9-16.1 36-36 36s-36-16.1-36-36 16.1-36 36-36 36 16.1 36 36z" stroke-width=".985"/>
								<path d="m-41.7 156.3c0 18.2-14.8 33-33 33s-33-14.8-33-33 14.8-33 33-33 33 14.8 33 33z" stroke-width=".992"/>
								<path d="m-50.7 151.3c0 16.6-13.4 30-30 30s-30-13.4-30-30 13.4-30 30-30c16.5 0 30 13.4 30 30z"/>
							</g>
						</g>
					</g>
				</g>
	</g>
</svg>
