<?xml version="1.0" encoding="utf-8"?>
<!-- Generator: Adobe Illustrator 21.0.0, SVG Export Plug-In . SVG Version: 6.00 Build 0)  -->
<svg version="1.1" id="Layer_1" xmlns="http://www.w3.org/2000/svg" xmlns:xlink="http://www.w3.org/1999/xlink" x="0px" y="0px"
	 width="108px" height="94px" viewBox="0 0 108 94" style="enable-background:new 0 0 108 94;" xml:space="preserve">
<title>Icon/Start/01-download-wallet</title>
<desc>Created with Sketch.</desc>
<g id="Page-1">
	<g id="XL_x2265_1200" transform="translate(-840.000000, -1552.000000)">
		<g id="Group-7-_x5B_0v_x5D_">
			<g id="Group-6" transform="translate(0.000000, 1420.000000)">
				<g id="Group-3-_x5B_48v_x5D_" transform="translate(60.000000, 80.000000)">
					<g id="Group-2-_x5B_24h_x5D_" transform="translate(0.000000, 104.000000)">
						<g id="Group-2-_x5B_24v_x5D_" transform="translate(880.000000, 0.000000)">
							<g id="Icon_x2F_Start_x2F_05-Pos-phase" transform="translate(0.000000, 48.000000)">
								<g id="Group-23" transform="translate(11.000000, 19.000000)">
									<path id="Stroke-1" style="fill:none;stroke:#0059FF;" d="M-60.5-81c0,5.2-11.2,9.5-25,9.5c-13.8,0-25-4.3-25-9.5
										c0-5.2,11.2-9.5,25-9.5C-71.7-90.5-60.5-86.2-60.5-81z"/>
									<path id="Stroke-3" style="fill:none;stroke:#0059FF;" d="M-60.5-71.5c0,5-11.2,9-25,9c-13.8,0-25-4-25-9"/>
									<path id="Stroke-5" style="fill:none;stroke:#0059FF;" d="M-60.5-61.5c0,5-11.2,9-25,9c-13.8,0-25-4-25-9"/>
									<path id="Stroke-5_1_" style="fill:none;stroke:#0059FF;" d="M-60.5-52.5c0,5-11.2,9-25,9c-13.8,0-25-4-25-9"/>
									<path id="Stroke-7" style="fill:none;stroke:#0059FF;" d="M-60.5-43.5c0,5-11.2,9-25,9c-13.8,0-25-4-25-9"/>
									<path id="Stroke-7_1_" style="fill:none;stroke:#0059FF;" d="M-60.5-34.5c0,5-11.2,9-25,9c-13.8,0-25-4-25-9"/>
									<path id="Stroke-9" style="fill:none;stroke:#0059FF;" d="M-3.5-109c0,5.2-11.2,9.5-25,9.5s-25-4.3-25-9.5
										c0-5.2,11.2-9.5,25-9.5S-3.5-114.2-3.5-109z"/>
									<path id="Stroke-11" style="fill:none;stroke:#0059FF;" d="M-3.5-99.5c0,5-11.2,9-25,9s-25-4-25-9"/>
									<path id="Stroke-13" style="fill:none;stroke:#0059FF;" d="M-3.5-89.5c0,5-11.2,9-25,9s-25-4-25-9"/>
									<path id="Stroke-15" style="fill:none;stroke:#0059FF;" d="M-3.5-80.5c0,5-11.2,9-25,9s-25-4-25-9"/>
									<path id="Stroke-17" style="fill:none;stroke:#0059FF;" d="M-3.5-71.5c0,5-11.2,9-25,9s-25-4-25-9"/>
									<path id="Stroke-19" style="fill:none;stroke:#0059FF;" d="M-3.5-61.5c0,5-11.2,9-25,9s-25-4-25-9"/>
									<path id="Stroke-21" style="fill:none;stroke:#0059FF;" d="M-3.5-52.5c0,5-11.2,9-25,9s-25-4-25-9"/>
									<path id="Stroke-21_1_" style="fill:none;stroke:#0059FF;" d="M-3.5-52.5c0,5-11.2,9-25,9s-25-4-25-9"/>
									<path id="Stroke-21_2_" style="fill:none;stroke:#0059FF;" d="M-3.5-43.5c0,5-11.2,9-25,9s-25-4-25-9"/>
									<path id="Stroke-21_3_" style="fill:none;stroke:#0059FF;" d="M-3.5-34.5c0,5-11.2,9-25,9s-25-4-25-9"/>
								</g>
							</g>
						</g>
					</g>
				</g>
			</g>
		</g>
	</g>
</g>
</svg>
