<?xml version="1.0" encoding="utf-8"?>
<!-- Generator: Adobe Illustrator 21.0.0, SVG Export Plug-In . SVG Version: 6.00 Build 0)  -->
<svg version="1.1" id="Layer_1" xmlns="http://www.w3.org/2000/svg" xmlns:xlink="http://www.w3.org/1999/xlink" x="0px" y="0px"
	 width="111.2px" height="95.6px" viewBox="0 0 111.2 95.6" style="enable-background:new 0 0 111.2 95.6;" xml:space="preserve">
<title>Icon/Start/01-download-wallet34</title>
<desc>Created with Sketch.</desc>
<g id="Page-1">
	<g id="XL_x2265_1200" transform="translate(-400.000000, -1552.000000)">
		<g id="Group-7-_x5B_0v_x5D_">
			<g id="Group-6" transform="translate(0.000000, 1420.000000)">
				<g id="Group-3-_x5B_48v_x5D_" transform="translate(60.000000, 80.000000)">
					<g id="Group-2-_x5B_24h_x5D_" transform="translate(0.000000, 104.000000)">
						<g id="Group-2-_x5B_24v_x5D_" transform="translate(440.000000, 0.000000)">
							<g id="Icon_x2F_Start_x2F_03-send-recive-coins" transform="translate(0.000000, 48.000000)">
								<g id="Group-21" transform="translate(9.000000, 17.000000)">
									<path id="Stroke-1" style="fill:none;stroke:#0059FF;" d="M-63.1-93.6c0,12.5-10.2,22.7-22.7,22.7s-22.7-10.2-22.7-22.7
										c0-12.5,10.2-22.7,22.7-22.7S-63.1-106.1-63.1-93.6z"/>
									<path id="Stroke-3" style="fill:none;stroke:#0059FF;" d="M-77-93.6c0,8.7-7,15.7-15.7,15.7c-8.7,0-15.7-7-15.7-15.7
										c0-8.7,7-15.7,15.7-15.7C-84.1-109.3-77-102.3-77-93.6z"/>
									<path id="Stroke-5" style="fill:none;stroke:#0059FF;" d="M-90.6-93.6c0,4.9-4,8.9-8.9,8.9s-8.9-4-8.9-8.9
										c0-4.9,4-8.9,8.9-8.9S-90.6-98.5-90.6-93.6z"/>
									<path id="Stroke-7" style="fill:none;stroke:#0059FF;" d="M1.7-44.9c0,12.5-10.2,22.7-22.7,22.7
										c-12.5,0-22.7-10.2-22.7-22.7s10.2-22.7,22.7-22.7C-8.5-67.6,1.7-57.4,1.7-44.9z"/>
									<path id="Stroke-9" style="fill:none;stroke:#0059FF;" d="M-12.3-44.9c0,8.7-7,15.7-15.7,15.7c-8.7,0-15.7-7-15.7-15.7
										s7-15.7,15.7-15.7C-19.3-60.6-12.3-53.5-12.3-44.9z"/>
									<path id="Stroke-11" style="fill:none;stroke:#0059FF;" d="M-25.9-44.9c0,4.9-4,8.9-8.9,8.9c-4.9,0-8.9-4-8.9-8.9
										s4-8.9,8.9-8.9C-29.9-53.8-25.9-49.8-25.9-44.9z"/>
									<polyline id="Stroke-13" style="fill:none;stroke:#0059FF;" points="-68.5,-39.4 -85.8,-22.1 -103.1,-39.4 									"/>
									<path id="Stroke-15" style="fill:none;stroke:#0059FF;" d="M-85.8-64v41.9"/>
									<polyline id="Stroke-17" style="fill:none;stroke:#0059FF;" points="-38.3,-99 -21.1,-116.3 -3.8,-99 									"/>
									<path id="Stroke-19" style="fill:none;stroke:#0059FF;" d="M-21.1-74.4v-41.9"/>
								</g>
							</g>
						</g>
					</g>
				</g>
			</g>
		</g>
	</g>
</g>
</svg>
