<?xml version="1.0" encoding="utf-8"?>
<!-- Generator: Adobe Illustrator 21.0.0, SVG Export Plug-In . SVG Version: 6.00 Build 0)  -->
<svg version="1.1" id="Layer_1" xmlns="http://www.w3.org/2000/svg" xmlns:xlink="http://www.w3.org/1999/xlink" x="0px" y="0px"
	 width="112.5px" height="96.5px" viewBox="0 0 112.5 96.5" style="enable-background:new 0 0 112.5 96.5;" xml:space="preserve">
<title>Icon/Start/01-download-wallet</title>
<desc>Created with Sketch.</desc>
<g id="Page-1">
	<g id="XL_x2265_1200" transform="translate(0.000000, -1552.000000)">
		<g id="Group-7-_x5B_0v_x5D_">
			<g id="Group-6" transform="translate(0.000000, 1420.000000)">
				<g id="Group-3-_x5B_48v_x5D_" transform="translate(60.000000, 80.000000)">
					<g id="Group-2-_x5B_24h_x5D_" transform="translate(0.000000, 104.000000)">
						<g id="Group-2-_x5B_24v_x5D_">
							<g id="Icon_x2F_Start_x2F_01-download-wallet" transform="translate(0.000000, 48.000000)">
								<g id="Group-11" transform="translate(8.000000, 16.000000)">
									<path id="Stroke-1" style="fill:none;stroke:#0059FF;" d="M-67.5-20v-95.5H36.4c4.2,0,7.6,3.4,7.6,7.6v80.3
										c0,4.2-3.4,7.6-7.6,7.6H-67.5z"/>
									<path id="Stroke-3" style="fill:none;stroke:#0059FF;" d="M35.1-67.7c0,2.4-1.9,4.3-4.3,4.3s-4.3-1.9-4.3-4.3
										s1.9-4.3,4.3-4.3S35.1-70.1,35.1-67.7z"/>
									<path id="Stroke-5" style="fill:none;stroke:#0059FF;" d="M-16.2-67.7c0,6.7-5.5,12.2-12.2,12.2c-6.7,0-12.2-5.4-12.2-12.2
										s5.4-12.2,12.2-12.2C-21.6-79.9-16.2-74.5-16.2-67.7z"/>
									<path id="Stroke-7" style="fill:none;stroke:#0059FF;" d="M-2-67.7c0,10.6-8.6,19.2-19.2,19.2c-10.6,0-19.2-8.6-19.2-19.2
										S-31.9-87-21.3-87C-10.6-87-2-78.4-2-67.7z"/>
									<path id="Stroke-9" style="fill:none;stroke:#0059FF;" d="M11.8-67.7c0,14.4-11.7,26.1-26.1,26.1s-26.1-11.7-26.1-26.1
										s11.7-26.1,26.1-26.1S11.8-82.2,11.8-67.7z"/>
								</g>
							</g>
						</g>
					</g>
				</g>
			</g>
		</g>
	</g>
</g>
</svg>
