<?xml version="1.0" encoding="utf-8"?>
<!-- Generator: Adobe Illustrator 21.0.0, SVG Export Plug-In . SVG Version: 6.00 Build 0)  -->
<svg version="1.1" id="Layer_1" xmlns="http://www.w3.org/2000/svg" xmlns:xlink="http://www.w3.org/1999/xlink" x="0px" y="0px"
	 width="108.7px" height="108.7px" viewBox="0 0 108.7 108.7" style="enable-background:new 0 0 108.7 108.7;" xml:space="preserve"
	>
<title>Icon/Start/01-download-wallet11</title>
<desc>Created with Sketch.</desc>
<g id="Page-1">
	<g id="XL_x2265_1200" transform="translate(-620.000000, -1552.000000)">
		<g id="Group-7-_x5B_0v_x5D_">
			<g id="Group-6" transform="translate(0.000000, 1420.000000)">
				<g id="Group-3-_x5B_48v_x5D_" transform="translate(60.000000, 80.000000)">
					<g id="Group-2-_x5B_24h_x5D_" transform="translate(0.000000, 104.000000)">
						<g id="Group-2-_x5B_24v_x5D_" transform="translate(660.000000, 0.000000)">
							<g id="Icon_x2F_Start_x2F_04-exchanges" transform="translate(0.000000, 48.000000)">
								<g id="Group-23" transform="translate(10.000000, 10.000000)">
									<path id="Stroke-1" style="fill:none;stroke:#0059FF;" d="M-32.9-55.6c0,12.5-10.2,22.7-22.7,22.7s-22.7-10.2-22.7-22.7
										s10.2-22.7,22.7-22.7S-32.9-68.2-32.9-55.6z"/>
									<path id="Stroke-3" style="fill:none;stroke:#0059FF;" d="M-46.9-55.6c0,8.7-7,15.7-15.7,15.7c-8.7,0-15.7-7-15.7-15.7
										s7-15.7,15.7-15.7C-53.9-71.4-46.9-64.3-46.9-55.6z"/>
									<path id="Stroke-5" style="fill:none;stroke:#0059FF;" d="M-60.5-55.6c0,4.9-4,8.9-8.9,8.9s-8.9-4-8.9-8.9s4-8.9,8.9-8.9
										S-60.5-60.6-60.5-55.6z"/>
									<path id="Stroke-7" style="fill:none;stroke:#0059FF;" d="M-50.2-104.1c0,3-2.4,5.4-5.4,5.4c-3,0-5.4-2.4-5.4-5.4
										c0-3,2.4-5.4,5.4-5.4C-52.6-109.5-50.2-107.1-50.2-104.1z"/>
									<path id="Stroke-9" style="fill:none;stroke:#0059FF;" d="M-50.2-7.2c0,3-2.4,5.4-5.4,5.4c-3,0-5.4-2.4-5.4-5.4
										s2.4-5.4,5.4-5.4C-52.6-12.6-50.2-10.1-50.2-7.2z"/>
									<path id="Stroke-11" style="fill:none;stroke:#0059FF;" d="M-17.5-86.1c-2.1,2.1-5.5,2.1-7.7,0c-2.1-2.1-2.1-5.5,0-7.7
										c2.1-2.1,5.5-2.1,7.7,0C-15.4-91.6-15.4-88.2-17.5-86.1z"/>
									<path id="Stroke-13" style="fill:none;stroke:#0059FF;" d="M-86.1-17.5c-2.1,2.1-5.5,2.1-7.7,0c-2.1-2.1-2.1-5.5,0-7.7
										c2.1-2.1,5.5-2.1,7.7,0C-84-23.1-84-19.6-86.1-17.5z"/>
									<path id="Stroke-15" style="fill:none;stroke:#0059FF;" d="M-7.2-50.2c-3,0-5.4-2.4-5.4-5.4c0-3,2.4-5.4,5.4-5.4
										s5.4,2.4,5.4,5.4C-1.8-52.6-4.2-50.2-7.2-50.2z"/>
									<path id="Stroke-17" style="fill:none;stroke:#0059FF;" d="M-104.1-50.2c-3,0-5.4-2.4-5.4-5.4c0-3,2.4-5.4,5.4-5.4
										c3,0,5.4,2.4,5.4,5.4C-98.7-52.6-101.1-50.2-104.1-50.2z"/>
									<path id="Stroke-19" style="fill:none;stroke:#0059FF;" d="M-25.2-17.5c-2.1-2.1-2.1-5.5,0-7.7c2.1-2.1,5.5-2.1,7.7,0
										c2.1,2.1,2.1,5.5,0,7.7C-19.6-15.4-23.1-15.4-25.2-17.5z"/>
									<path id="Stroke-21" style="fill:none;stroke:#0059FF;" d="M-93.7-86.1c-2.1-2.1-2.1-5.5,0-7.7c2.1-2.1,5.5-2.1,7.7,0
										c2.1,2.1,2.1,5.5,0,7.7C-88.2-84-91.6-84-93.7-86.1z"/>
								</g>
							</g>
						</g>
					</g>
				</g>
			</g>
		</g>
	</g>
</g>
</svg>
