<?xml version="1.0" encoding="utf-8"?>
<!-- Generator: Adobe Illustrator 21.0.0, SVG Export Plug-In . SVG Version: 6.00 Build 0)  -->
<svg version="1.1" id="Layer_1" xmlns="http://www.w3.org/2000/svg" xmlns:xlink="http://www.w3.org/1999/xlink" x="0px" y="0px"
	 width="112.5px" height="96.7px" viewBox="0 0 112.5 96.7" style="enable-background:new 0 0 112.5 96.7;" xml:space="preserve">
<title>Icon/Start/01-download-wallet11</title>
<desc>Created with Sketch.</desc>
<g id="Page-1">
	<g id="XL_x2265_1200" transform="translate(-180.000000, -1552.000000)">
		<g id="Group-7-_x5B_0v_x5D_">
			<g id="Group-6" transform="translate(0.000000, 1420.000000)">
				<g id="Group-3-_x5B_48v_x5D_" transform="translate(60.000000, 80.000000)">
					<g id="Group-2-_x5B_24h_x5D_" transform="translate(0.000000, 104.000000)">
						<g id="Group-2-_x5B_24v_x5D_" transform="translate(220.000000, 0.000000)">
							<g id="Icon_x2F_Start_x2F_02-setup-mining" transform="translate(0.000000, 48.000000)">
								<g id="Group-29" transform="translate(8.000000, 16.000000)">
									<path id="Stroke-1" style="fill:none;stroke:#0059FF;" d="M-102.3-19.8h101C1.6-19.8,4-22.2,4-25v-85.2
										c0-2.9-2.3-5.2-5.2-5.2h-101c-2.9,0-5.2,2.3-5.2,5.2V-25C-107.5-22.2-105.2-19.8-102.3-19.8z"/>
									<path id="Stroke-3" style="fill:none;stroke:#0059FF;" d="M4-105.5h-111.5"/>
									<path id="Stroke-5" style="fill:none;stroke:#0059FF;" d="M-99.3-95.1h24.8"/>
									<path id="Stroke-7" style="fill:none;stroke:#0059FF;" d="M-90.8-88.1h69.2"/>
									<path id="Stroke-9" style="fill:none;stroke:#0059FF;" d="M-90.8-81.1h69.2"/>
									<path id="Stroke-11" style="fill:none;stroke:#0059FF;" d="M-90.8-74.1h9.2"/>
									<path id="Stroke-13" style="fill:none;stroke:#0059FF;" d="M-99.3-67.1h26.8"/>
									<path id="Stroke-15" style="fill:none;stroke:#0059FF;" d="M-90.8-60.1h76.5"/>
									<path id="Stroke-17" style="fill:none;stroke:#0059FF;" d="M-90.8-53.1h52"/>
									<path id="Stroke-19" style="fill:none;stroke:#0059FF;" d="M-90.8-46.1h65.5"/>
									<path id="Stroke-21" style="fill:none;stroke:#0059FF;" d="M-90.8-39.1h29.5"/>
									<path id="Stroke-23" style="fill:none;stroke:#0059FF;" d="M-97.7-110.2c0,0.9-0.7,1.6-1.6,1.6c-0.9,0-1.6-0.7-1.6-1.6
										c0-0.9,0.7-1.6,1.6-1.6C-98.4-111.8-97.7-111.1-97.7-110.2z"/>
									<path id="Stroke-25" style="fill:none;stroke:#0059FF;" d="M-90.8-110.2c0,0.9-0.7,1.6-1.6,1.6c-0.9,0-1.6-0.7-1.6-1.6
										c0-0.9,0.7-1.6,1.6-1.6C-91.5-111.8-90.8-111.1-90.8-110.2z"/>
									<path id="Stroke-27" style="fill:none;stroke:#0059FF;" d="M-83.9-110.2c0,0.9-0.7,1.6-1.6,1.6c-0.9,0-1.6-0.7-1.6-1.6
										c0-0.9,0.7-1.6,1.6-1.6C-84.6-111.8-83.9-111.1-83.9-110.2z"/>
								</g>
							</g>
						</g>
					</g>
				</g>
			</g>
		</g>
	</g>
</g>
</svg>
