<?xml version="1.0" encoding="UTF-8"?>
<svg width="34px" height="40px" viewBox="0 0 34 40" version="1.1" xmlns="http://www.w3.org/2000/svg" xmlns:xlink="http://www.w3.org/1999/xlink">
    <!-- Generator: Sketch 52.2 (67145) - http://www.bohemiancoding.com/sketch -->
    <title>Group 17</title>
    <desc>Created with Sketch.</desc>
    <g id="Symbols" stroke="none" stroke-width="1" fill="none" fill-rule="evenodd">
        <g id="Icon/OS-Linux" transform="translate(-2.000000, 0.000000)" stroke="#C1C9D4">
            <g id="Group-17" transform="translate(3.000000, 1.000000)">
                <path d="M18.4751471,12.45153 C18.8992941,13.91403 23.6367353,19.224855 24.1977353,23.01468 C24.8062941,27.130155 23.3882647,31.402605 25.3905882,31.46403 C27.9374118,31.541055 30.6686471,27.929655 29.5738235,22.588605 C28.4799706,17.24853 23.1456176,15.13278 23.0883529,9.39783 C23.0291471,3.661905 21.4897941,0.487305 17.1202059,0.487305 C13.3611176,0.487305 12.0265588,2.519205 11.6024118,5.07858 C11.1772941,7.637955 12.045,10.98903 11.4383824,13.18278 C10.8317647,15.37653 6.39520588,20.58303 5.43238235,23.60358 C4.94708824,25.12653 5.37608824,27.013155 5.37608824,27.013155" id="Stroke-1"></path>
                <path d="M11.9236765,34.63278 C9.58261765,32.05293 8.58679412,29.27028 7.31338235,28.05153 C5.907,26.70603 4.89273529,26.710905 4.40452941,28.112955 C3.91632353,29.51403 3.43102941,29.819205 2.33911765,30.00153 C1.24720588,30.18483 0.640588235,30.48903 1.12588235,32.01198 C1.61117647,33.535905 1.00455882,33.84108 0.640588235,34.69323 C0.370764706,35.327955 0.155294118,36.217155 2.70308824,36.460905 C4.95,36.67638 6.58544118,37.00983 8.34414706,38.04528 C10.857,39.52533 13.8037059,36.704655 11.9236765,34.63278 Z" id="Stroke-3"></path>
                <path d="M28.7516382,28.9731975 C29.1447265,29.6586225 29.6222559,29.8643475 30.4414324,30.0018225 C31.5333441,30.1841475 32.1399618,30.4893225 31.6546676,32.0122725 C31.1693735,33.5361975 31.7759912,33.8403975 32.1399618,34.6935225 C32.4107559,35.3282475 32.6252559,36.2174475 30.0774618,36.4611975 C27.83055,36.6756975 26.1951088,37.0091475 24.4364029,38.0455725 C21.92355,39.5246475 18.9768441,36.7049475 20.8568735,34.6330725 C22.5059029,32.8156725 23.4871676,30.8988225 24.3684618,29.4977475" id="Stroke-5"></path>
                <path d="M15.6297706,9.01719 C14.3097706,9.01719 11.8046824,11.29674 11.8046824,11.482965 C11.8046824,11.670165 14.1564176,13.85319 15.0173294,13.85319 C16.1771824,13.85319 19.6606235,11.81544 19.6606235,11.494665 C19.6606235,10.944765 16.6459765,9.01719 15.6297706,9.01719 Z" id="Stroke-7"></path>
                <path d="M14.8165147,7.8983775 C14.8165147,8.9864775 14.3127794,9.6475275 13.6382206,9.6884775 C12.9636618,9.7294275 12.3618971,9.0332775 12.3123971,8.0358525 C12.2658088,7.0969275 12.7559559,6.2759775 13.4305147,6.2350275 C14.1060441,6.1940775 14.8165147,6.8873025 14.8165147,7.8983775 Z" id="Stroke-9"></path>
                <path d="M19.1320412,7.9003275 C19.0747765,8.9874525 18.5380412,9.6212025 17.8615412,9.6260775 C17.1850412,9.6309525 16.6211294,8.9045775 16.6240412,7.9061775 C16.6269529,6.9653025 17.1598059,6.1726275 17.8353353,6.1667775 C18.5108647,6.1619025 19.1854235,6.8912025 19.1320412,7.9003275 Z" id="Stroke-11"></path>
                <path d="M12.5302941,36.217155 C12.5302941,36.217155 15.2605588,37.07028 20.2338529,36.09528" id="Stroke-13"></path>
                <path d="M12.8942647,12.69528 C12.8942647,12.69528 12.8340882,13.73073 11.3782059,16.473405 C9.92135294,19.215105 6.94941176,23.969205 8.10247059,28.904655" id="Stroke-15"></path>
            </g>
        </g>
    </g>
</svg>