<?xml version="1.0" encoding="UTF-8"?>
<svg width="32px" height="32px" viewBox="0 0 32 32" version="1.1" xmlns="http://www.w3.org/2000/svg" xmlns:xlink="http://www.w3.org/1999/xlink">
    <!-- Generator: Sketch 52.6 (67491) - http://www.bohemiancoding.com/sketch -->
    <title>Image/Logo-symbol</title>
    <desc>Created with Sketch.</desc>
    <g id="Main-page" stroke="none" stroke-width="1" fill="none" fill-rule="evenodd">
        <g id="XL≥1200" transform="translate(-60.000000, -8508.000000)" fill="#FFFFFF">
            <g id="Group-7-[0v]">
                <g id="Group-6" transform="translate(0.000000, 8428.000000)">
                    <g id="Group-2-[48v]" transform="translate(60.000000, 80.000000)">
                        <g id="Group-19">
                            <g id="Image/Logo-symbol">
                                <g id="Group-23">
                                    <path d="M15.9575172,29.7902222 C11.7675665,29.7902222 10.6936749,28.9894321 8.55456158,27.6146173 C9.51219704,27.862716 10.5143645,27.9982222 11.5484532,27.9982222 C18.1494384,27.9982222 23.5196847,22.614321 23.5196847,15.997037 C23.5196847,9.37975309 18.1494384,3.99585185 11.5484532,3.99585185 C10.5147586,3.99585185 9.51259113,4.13135802 8.55495567,4.37945679 C10.6944631,3.00464198 11.7679606,2.20385185 15.9575172,2.20385185 C23.5441182,2.20385185 29.7167291,8.39130864 29.7167291,15.997037 C29.7167291,23.6027654 23.5441182,29.7902222 15.9575172,29.7902222 M4.48559606,22.7462716 C5.39002956,23.1251358 6.37564532,23.3159506 7.4373202,23.3159506 C9.50155665,23.3159506 11.2832315,22.6072099 12.7255961,21.161679 C14.1679606,19.7157531 14.902936,17.9581235 14.902936,15.8599506 C14.902936,13.7625679 14.1679606,12.0049383 12.7255961,10.5590123 C11.2832315,9.11308642 9.50155665,8.40474074 7.4373202,8.40474074 C6.54470936,8.40474074 5.70805911,8.54577778 4.92539901,8.81283951 C6.20776355,7.27841975 7.79160591,6.19950617 11.5484532,6.19950617 C16.9372217,6.19950617 21.3214581,10.5945679 21.3214581,15.997037 C21.3214581,21.3991111 16.9372217,25.7941728 11.5484532,25.7941728 C7.30411823,25.7941728 6.26530049,24.6192593 4.48559606,22.7462716 M7.4373202,10.8146173 C8.85131034,10.8146173 10.0386995,11.2961975 11.00067,12.2601481 C11.9618522,13.2237037 12.4430345,14.4144198 12.4430345,15.8599506 C12.4430345,17.3058765 11.9618522,18.4965926 11.00067,19.4609383 C10.0386995,20.4244938 8.85131034,20.9068642 7.4373202,20.9068642 C6.05170443,20.9068642 4.86392118,20.4244938 3.90273892,19.4609383 C2.94116256,18.4965926 2.46037438,17.3058765 2.46037438,15.8599506 C2.46037438,14.4144198 2.94116256,13.2237037 3.90273892,12.2601481 C4.86392118,11.2961975 6.05170443,10.8146173 7.4373202,10.8146173 M15.9575172,0.000197530864 C7.26943842,0.000197530864 0.185694581,6.99792593 0.0083546798,15.6651852 C0.00677832512,15.7307654 7.8817734e-05,15.7935802 7.8817734e-05,15.8599506 C7.8817734e-05,15.8773333 0.00204926108,15.8935309 0.00204926108,15.9109136 C0.00204926108,15.939358 7.8817734e-05,15.9681975 7.8817734e-05,15.997037 C7.8817734e-05,24.8175802 7.15869951,31.9942716 15.9575172,31.9942716 C24.7567291,31.9942716 31.9153498,24.8175802 31.9153498,15.997037 C31.9153498,7.17649383 24.7567291,0.000197530864 15.9575172,0.000197530864" id="Combined-Shape"></path>
                                </g>
                            </g>
                        </g>
                    </g>
                </g>
            </g>
        </g>
    </g>
</svg>