<?xml version="1.0" encoding="utf-8"?>
<!-- Generator: Adobe Illustrator 21.0.0, SVG Export Plug-In . SVG Version: 6.00 Build 0)  -->
<svg version="1.1" id="Layer_1" xmlns="http://www.w3.org/2000/svg" xmlns:xlink="http://www.w3.org/1999/xlink" x="0px" y="0px"
	 width="159.7px" height="32px" viewBox="0 0 159.7 32" style="enable-background:new 0 0 159.7 32;" xml:space="preserve">
<title>Image/Logo</title>
<desc>Created with Sketch.</desc>
<g id="Page-1">
	<g id="XL_x2265_1200">
		<g id="Group-7-_x5B_0v_x5D_">
			<g id="Group-3">
				<g id="Image_x2F_Logo" transform="translate(60.000000, 29.000000)">
					<g id="Group-23">
						<path id="Combined-Shape" style="fill:#FFFFFF;" d="M-44,0.8c7.6,0,13.8-6.2,13.8-13.8S-36.5-26.8-44-26.8
							c-4.2,0-5.3,0.8-7.4,2.2c1-0.2,2-0.4,3-0.4c6.6,0,12,5.4,12,12s-5.4,12-12,12c-1,0-2-0.1-3-0.4C-49.3,0-48.2,0.8-44,0.8z
							 M-55.5-6.3c1.8,1.9,2.8,3,7.1,3c5.4,0,9.8-4.4,9.8-9.8c0-5.4-4.4-9.8-9.8-9.8c-3.8,0-5.3,1.1-6.6,2.6
							c0.8-0.3,1.6-0.4,2.5-0.4c2.1,0,3.8,0.7,5.3,2.2c1.4,1.4,2.2,3.2,2.2,5.3c0,2.1-0.7,3.9-2.2,5.3c-1.4,1.4-3.2,2.2-5.3,2.2
							C-53.6-5.7-54.6-5.9-55.5-6.3z M-52.6-18.2c-1.4,0-2.6,0.5-3.5,1.4c-1,1-1.4,2.2-1.4,3.6c0,1.4,0.5,2.6,1.4,3.6
							c1,1,2.1,1.4,3.5,1.4c1.4,0,2.6-0.5,3.6-1.4c1-1,1.4-2.2,1.4-3.6c0-1.4-0.5-2.6-1.4-3.6C-50-17.7-51.1-18.2-52.6-18.2z
							 M-44-29c8.8,0,16,7.2,16,16S-35.2,3-44,3c-8.8,0-16-7.2-16-16c0,0,0-0.1,0-0.1c0,0,0,0,0-0.1c0-0.1,0-0.1,0-0.2
							C-59.8-22-52.7-29-44-29z M-14-17.7c-0.5,0-1,0.1-1.5,0.3c-0.5,0.2-0.9,0.4-1.2,0.7c-0.3,0.3-0.6,0.7-0.8,1.1
							c-0.2,0.4-0.3,0.8-0.4,1.3h7.7c0-0.5-0.2-0.9-0.4-1.3c-0.2-0.4-0.5-0.8-0.8-1.1c-0.3-0.3-0.7-0.5-1.2-0.7
							C-13.1-17.6-13.5-17.7-14-17.7z M-9.5-17.7c0.5,0.6,0.8,1.2,1.1,1.8c0.2,0.7,0.3,1.3,0.3,1.8v1.7H-18c0.1,1.2,0.4,2.1,1.1,2.8
							c0.7,0.7,1.7,1.1,2.9,1.1c0.6,0,1.1-0.1,1.5-0.2c0.4-0.1,0.8-0.3,1.1-0.5c0.3-0.2,0.5-0.5,0.7-0.8c0.2-0.3,0.3-0.6,0.4-1
							l0-0.1l2,0.5l0,0.1c-0.3,1.2-1,2.1-1.9,2.8c-0.9,0.7-2.2,1.1-3.8,1.1c-0.9,0-1.7-0.2-2.4-0.5c-0.7-0.3-1.4-0.8-1.9-1.3
							c-0.5-0.6-1-1.3-1.3-2c-0.3-0.8-0.5-1.7-0.5-2.6v-0.6c0-0.9,0.2-1.7,0.5-2.4c0.3-0.7,0.7-1.4,1.3-1.9c0.5-0.5,1.2-1,1.9-1.3
							c0.7-0.3,1.6-0.5,2.4-0.5c1,0,1.9,0.2,2.6,0.6C-10.6-18.7-10-18.3-9.5-17.7z M4.4-11.8L4.4-11.8l2.1,0.4l0,0.1
							C6.3-10.6,6.1-10,5.8-9.4C5.5-8.8,5-8.3,4.5-7.9C4-7.4,3.5-7.1,2.8-6.9C2.1-6.6,1.4-6.5,0.6-6.5c-0.9,0-1.7-0.1-2.5-0.4
							c-0.8-0.3-1.5-0.7-2-1.2c-0.6-0.5-1.1-1.2-1.4-2c-0.3-0.8-0.5-1.7-0.5-2.7v-0.3c0-1,0.2-1.9,0.5-2.7c0.3-0.8,0.8-1.5,1.4-2
							c0.6-0.6,1.3-1,2-1.3c0.8-0.3,1.6-0.5,2.5-0.5c0.8,0,1.5,0.1,2.2,0.4c0.7,0.2,1.3,0.6,1.8,1c0.5,0.4,0.9,0.9,1.3,1.5
							c0.3,0.6,0.5,1.2,0.7,1.9l0,0.1l-2.1,0.5l0-0.1c0-0.4-0.2-0.8-0.4-1.2c-0.2-0.4-0.4-0.7-0.7-1c-0.3-0.3-0.7-0.5-1.1-0.7
							c-0.5-0.2-1-0.3-1.6-0.3c-0.6,0-1.1,0.1-1.6,0.3c-0.5,0.2-1,0.5-1.3,0.9C-2.9-16-3.2-15.5-3.4-15c-0.2,0.5-0.3,1.2-0.3,1.8
							v0.3c0,0.7,0.1,1.3,0.3,1.8c0.2,0.5,0.5,1,0.9,1.4C-2.1-9.3-1.6-9-1.1-8.8C-0.6-8.6,0-8.5,0.6-8.5c0.6,0,1.1-0.1,1.6-0.3
							C2.6-9,2.9-9.2,3.3-9.5c0.3-0.3,0.6-0.6,0.7-1C4.2-10.9,4.3-11.3,4.4-11.8z M15.6-19.7c1.4,0,2.5,0.5,3.3,1.4
							c0.8,0.9,1.3,2.3,1.3,4v7.4h-2.1v-7c0-1.3-0.3-2.2-0.8-2.8c-0.6-0.6-1.3-0.9-2.3-0.9c-1.1,0-2,0.4-2.7,1.2
							c-0.7,0.8-1,1.8-1,3.2v6.5H9.2v-17.5h2.1v7.3h0.2c0.4-0.8,0.9-1.4,1.6-1.9C13.7-19.4,14.6-19.7,15.6-19.7z M33.2-13.2
							c0-0.6-0.1-1.2-0.3-1.8c-0.2-0.5-0.5-1-0.9-1.4c-0.4-0.4-0.8-0.7-1.3-0.9c-0.5-0.2-1-0.3-1.6-0.3s-1.1,0.1-1.6,0.3
							c-0.5,0.2-0.9,0.5-1.3,0.9c-0.4,0.4-0.7,0.9-0.9,1.4c-0.2,0.5-0.3,1.1-0.3,1.8v0.3c0,0.7,0.1,1.3,0.3,1.8
							c0.2,0.5,0.5,1,0.9,1.4C26.6-9.3,27-9,27.5-8.8c0.5,0.2,1,0.3,1.6,0.3s1.1-0.1,1.6-0.3C31.2-9,31.7-9.3,32-9.7
							c0.4-0.4,0.7-0.9,0.9-1.4c0.2-0.5,0.3-1.2,0.3-1.8V-13.2z M33.5-18c0.6,0.6,1,1.2,1.4,2c0.3,0.8,0.5,1.7,0.5,2.7v0.3
							c0,1-0.2,2-0.5,2.7c-0.3,0.8-0.8,1.5-1.4,2c-0.6,0.5-1.2,1-2,1.2c-0.8,0.3-1.6,0.4-2.4,0.4c-0.8,0-1.6-0.1-2.4-0.4
							c-0.7-0.3-1.4-0.7-2-1.2c-0.6-0.5-1-1.2-1.4-2c-0.3-0.8-0.5-1.7-0.5-2.7v-0.3c0-1,0.2-1.9,0.5-2.7c0.3-0.8,0.8-1.5,1.4-2
							c0.6-0.5,1.2-1,2-1.3c0.7-0.3,1.5-0.4,2.4-0.4c0.8,0,1.6,0.1,2.4,0.4C32.2-19,32.9-18.5,33.5-18z M47.2-13.1
							c0.8,0.6,1.2,1.4,1.2,2.6v0.1c0,0.6-0.1,1.2-0.4,1.6c-0.2,0.5-0.6,0.9-1,1.2c-0.4,0.3-1,0.6-1.6,0.8c-0.6,0.2-1.3,0.3-2,0.3
							c-1,0-1.8-0.1-2.5-0.4c-0.7-0.3-1.3-0.6-1.7-1c-0.5-0.4-0.8-0.9-1-1.5c-0.2-0.5-0.4-1.1-0.4-1.7l0-0.1l2-0.5l0,0.1
							c0.1,0.9,0.4,1.7,1.1,2.2c0.6,0.6,1.5,0.8,2.5,0.8c0.9,0,1.6-0.2,2.1-0.5c0.5-0.3,0.8-0.8,0.8-1.4c0-0.7-0.3-1.1-0.8-1.4
							c-0.5-0.3-1.4-0.5-2.6-0.6c-1.4-0.1-2.5-0.4-3.3-1c-0.8-0.6-1.2-1.4-1.2-2.5v-0.1c0-0.6,0.1-1.1,0.4-1.6
							c0.3-0.4,0.6-0.8,1-1.1c0.4-0.3,0.9-0.5,1.4-0.7c0.5-0.2,1.1-0.2,1.7-0.2c0.8,0,1.5,0.1,2.2,0.3c0.6,0.2,1.1,0.5,1.6,0.9
							c0.4,0.4,0.7,0.8,1,1.3c0.2,0.5,0.4,0.9,0.4,1.4l0,0.1l-2,0.5l0-0.1c-0.1-0.8-0.4-1.4-0.9-1.8c-0.5-0.4-1.2-0.7-2.1-0.7
							c-0.3,0-0.7,0-1,0.1c-0.3,0.1-0.6,0.2-0.8,0.3c-0.2,0.1-0.4,0.3-0.6,0.5c-0.1,0.2-0.2,0.5-0.2,0.7c0,0.6,0.2,1,0.7,1.3
							c0.5,0.3,1.4,0.5,2.7,0.6C45.3-14,46.5-13.7,47.2-13.1z M54.7-24.4v5.1h4.7v2h-4.7v7.9c0,0.5,0.2,0.7,0.6,0.7h3.6v2h-4.3
							c-0.6,0-1.1-0.2-1.4-0.6c-0.4-0.4-0.6-0.9-0.6-1.4v-8.5h-3.9v-2h3.9v-5.1H54.7z M70.5-13.2c0-0.6-0.1-1.3-0.3-1.8
							c-0.2-0.5-0.5-1-0.8-1.4c-0.3-0.4-0.8-0.7-1.2-0.9c-0.5-0.2-1-0.3-1.5-0.3c-0.6,0-1.1,0.1-1.5,0.3c-0.5,0.2-0.9,0.5-1.2,0.9
							c-0.3,0.4-0.6,0.8-0.8,1.4c-0.2,0.5-0.3,1.1-0.3,1.8v0.4c0,1.4,0.4,2.5,1.1,3.2c0.7,0.8,1.7,1.2,2.8,1.2
							c0.6,0,1.1-0.1,1.6-0.3c0.5-0.2,0.9-0.5,1.2-0.9c0.3-0.4,0.6-0.9,0.8-1.4c0.2-0.5,0.3-1.2,0.3-1.8V-13.2z M72.6-9.5
							c0,0.5,0.2,0.7,0.6,0.7h0.7v2h-1.4c-0.6,0-1.1-0.2-1.4-0.6c-0.4-0.4-0.6-0.9-0.6-1.4v-0.1h-0.2c-0.4,0.8-1,1.4-1.7,1.8
							c-0.7,0.4-1.5,0.6-2.3,0.6c-0.8,0-1.6-0.1-2.3-0.4c-0.7-0.3-1.3-0.7-1.8-1.2c-0.5-0.5-0.9-1.2-1.2-2c-0.3-0.8-0.5-1.7-0.5-2.7
							v-0.4c0-1,0.2-1.9,0.5-2.7c0.3-0.8,0.7-1.5,1.2-2c0.5-0.5,1.1-1,1.8-1.2c0.7-0.3,1.4-0.4,2.2-0.4c0.9,0,1.6,0.2,2.3,0.6
							c0.7,0.4,1.2,0.9,1.6,1.7h0.2v-1.9h2.1V-9.5z M81.1-13.4v0.4l5.7,5.9v0.3h-2.5l0,0l-5.2-5.4h-0.4v5.4h-2.1v-17.5h2.1v10.2H79
							l4.7-5.1h2.5v0.3l0,0L81.1-13.4z M89.9-14.4h7.7c0-0.5-0.2-0.9-0.4-1.3c-0.2-0.4-0.5-0.8-0.8-1.1c-0.3-0.3-0.7-0.5-1.2-0.7
							c-0.4-0.2-0.9-0.2-1.4-0.2c-0.5,0-1,0.1-1.5,0.3c-0.5,0.2-0.9,0.4-1.2,0.7c-0.3,0.3-0.6,0.7-0.8,1.1
							C90.1-15.2,89.9-14.8,89.9-14.4z M99.7-14.1v1.7h-9.9c0.1,1.2,0.4,2.1,1.1,2.8c0.7,0.7,1.7,1.1,2.9,1.1c0.6,0,1.1-0.1,1.5-0.2
							c0.4-0.1,0.8-0.3,1.1-0.5c0.3-0.2,0.5-0.5,0.7-0.8c0.2-0.3,0.3-0.6,0.4-1l0-0.1l2,0.5l0,0.1c-0.3,1.2-1,2.1-1.9,2.8
							c-0.9,0.7-2.2,1.1-3.8,1.1c-0.9,0-1.7-0.2-2.4-0.5c-0.7-0.3-1.4-0.8-1.9-1.3c-0.5-0.6-1-1.3-1.3-2c-0.3-0.8-0.5-1.7-0.5-2.6
							v-0.6c0-0.9,0.2-1.7,0.5-2.4c0.3-0.8,0.7-1.4,1.3-1.9c0.5-0.5,1.2-1,1.9-1.3c0.7-0.3,1.6-0.5,2.4-0.5c1,0,1.9,0.2,2.6,0.6
							c0.7,0.4,1.4,0.8,1.8,1.4c0.5,0.6,0.8,1.2,1.1,1.8C99.6-15.2,99.7-14.6,99.7-14.1z"/>
					</g>
				</g>
			</g>
		</g>
	</g>
</g>
</svg>
