<?xml version="1.0" encoding="UTF-8"?>
<svg width="142px" height="39px" viewBox="0 0 142 39" version="1.1" xmlns="http://www.w3.org/2000/svg" xmlns:xlink="http://www.w3.org/1999/xlink">
    <!-- Generator: Sketch 52.2 (67145) - http://www.bohemiancoding.com/sketch -->
    <title>Combined Shape</title>
    <desc>Created with Sketch.</desc>
    <g id="Page-1" stroke="none" stroke-width="1" fill="none" fill-rule="evenodd">
        <g id="XL≥1200" transform="translate(-60.000000, -3481.000000)" fill="#858D97">
            <g id="Group-7-[0v]">
                <g id="Group-5" transform="translate(0.000000, 3144.000000)">
                    <g id="Group-3-[48v]" transform="translate(60.000000, 124.000000)">
                        <g id="Group-8" transform="translate(0.000000, 212.000000)">
                            <g id="Group-17" transform="translate(0.000000, 0.500000)">
                                <path d="M21.7329666,28.7395006 C21.4766474,28.6557412 21.1749476,28.5447238 20.8662524,28.4586176 C19.5959564,28.1044451 18.3791126,27.6358254 17.2458551,26.9392139 C15.6955631,25.9864501 14.3856264,24.7739238 13.2999019,23.321311 C12.1628776,21.8004632 11.2644149,20.1433257 10.6115093,18.3502597 C10.4429018,17.8870555 10.5246944,17.5837885 10.8780526,17.2418911 C12.1379452,16.0235882 13.5592704,15.0406782 15.0941366,14.2195106 C16.9816436,13.2097038 18.9886107,12.5528058 21.101406,12.2206563 C21.6465104,12.1350917 21.7227425,12.0695643 21.7354778,11.5413743 C21.7541322,10.7601008 21.7451637,9.97774421 21.724895,9.19647069 C21.7209488,9.03653346 21.6153001,8.87894294 21.5349425,8.66250418 C20.6172873,8.80601445 19.7288694,8.90060486 18.8605408,9.08888312 C15.7499121,9.76329113 12.9334496,11.0992905 10.3686428,12.9885716 C8.9383491,14.0420633 7.73495802,15.3347389 6.53156695,16.628317 C6.18520413,17.0005411 6.03937659,17.39894 6.25390271,17.9386831 C7.4282359,20.8926479 8.97404366,23.619343 11.0981392,25.9864501 C13.1504869,28.2737692 15.5726949,30.0439097 18.4833264,31.0724902 C19.5121908,31.4360495 20.5597096,31.7604369 21.7329666,31.7654914 L21.7329666,28.7395006 Z M21.9227397,34.7674735 C22.0439936,34.8649521 22.0669529,34.8996112 22.090271,34.8996112 C23.7291716,34.9039436 25.376682,35.0129753 27.004641,34.8784908 C28.750446,34.7342585 30.4862062,34.4055388 32.2106662,34.0746528 C33.8777278,33.7547784 35.5428164,33.3942878 37.1765153,32.935416 C39.5890373,32.2575781 41.9802143,31.5084365 44.3148898,30.5740853 C47.1532354,29.4380978 49.8923895,28.1172617 52.4406944,26.423299 C52.9334228,26.0956624 53.5273158,25.8050315 53.8209439,25.1378441 C51.7572959,23.6471425 49.4480909,22.6481666 47.3557437,21.2861729 C46.8513563,21.6993742 46.3962954,22.0842344 45.9288581,22.4532093 C44.3575798,23.6929936 42.8193056,24.9795315 41.1985213,26.1503587 C38.9624991,27.7659775 36.5603805,29.1113637 34.0000579,30.1399442 C32.4196318,30.7746387 30.7896997,31.2771954 29.106136,31.5559122 C28.0792447,31.7257778 27.0360307,31.795457 26.0057314,31.9483541 C24.8457478,32.1203859 23.6931183,32.1537814 22.5329553,31.9599072 C22.3478458,31.9290389 22.1451581,32.0048557 21.9227397,32.0351824 L21.9227397,34.7674735 Z M21.9360131,28.5467095 C23.2403893,28.9505239 24.4737351,28.9115324 25.684839,28.7990709 C28.2448029,28.5616923 30.6395673,27.7074903 32.8920915,26.4974911 C36.203973,24.7183248 39.1632137,22.4468912 41.8028177,19.7570214 C42.0544733,19.500508 42.3251421,19.2627684 42.5737485,19.0035473 C43.2749045,18.2735404 43.9690651,17.5372153 44.7120143,16.7546782 C44.4415248,16.3987005 44.2350703,16.0696198 43.9739081,15.7930691 C42.5549147,14.2899119 41.091617,12.8363966 39.4464384,11.5742283 C37.079297,9.75805616 34.5245348,8.27132587 31.7410764,7.22595736 C28.8352878,6.13455724 25.816317,5.60745034 22.7012041,5.74626719 C22.4692791,5.75655661 22.2386097,5.79518705 21.9324257,5.82894355 C21.8712606,6.7499365 21.8280325,7.62742508 21.9819317,8.59805994 C22.3498189,8.59805994 22.6716081,8.59264446 22.9930385,8.59914304 C23.7993051,8.61557 24.6150784,8.56213725 25.4091479,8.67044689 C28.4291949,9.08292609 31.1419817,10.3075471 33.6203324,12.0482634 C35.3358238,13.2532082 36.905129,14.6392105 38.2342582,16.2824482 C38.6401718,16.7841023 38.6523689,16.8245379 38.2738989,17.3557967 C37.2771417,18.7551572 36.0658584,19.9581162 34.8436335,21.1493417 C33.1618635,22.7880666 31.3018001,24.1686534 29.1848793,25.2053571 C27.1004244,26.225995 24.9487059,26.5937062 22.6669444,26.1341123 C22.445961,26.0897053 22.218879,26.0750835 21.9360131,26.0393414 L21.9360131,28.5467095 Z M21.8981661,15.1155924 C22.1293736,15.1744406 22.3578905,15.2495353 22.5923267,15.2890683 C24.3063832,15.5787966 25.6315663,16.4649499 26.5867097,17.9172017 C27.1294823,18.7427016 27.6568291,19.5783105 28.1972699,20.4054351 C28.3034568,20.56808 28.4369078,20.7126734 28.5890133,20.904923 C30.2564337,19.5539408 31.8782942,18.258738 33.3449999,16.8366325 C33.2884985,16.6840964 33.2789919,16.6201937 33.245091,16.5752452 C33.1729844,16.4799328 33.0908331,16.3920214 33.0083231,16.3053737 C31.3256562,14.5363163 29.3377023,13.2524861 27.0048204,12.5419749 C25.5639439,12.1031403 24.0793012,11.9881516 22.5803089,12.0784096 C22.0038148,12.1130687 21.9017535,12.2091033 21.8909913,12.7856716 C21.876283,13.565862 21.901036,14.3471355 21.9085695,15.1278675 C19.4512051,15.0242512 17.4768832,16.0995854 15.7043522,17.6855995 C15.3212186,18.028219 15.1696512,18.3914173 15.403908,18.8759225 C15.4557458,18.9833295 15.4813957,19.1031922 15.5276731,19.213668 C16.3604864,21.2065653 17.5192145,22.9667775 19.1758727,24.3683042 C19.8877909,24.9706863 20.6890352,25.4089793 21.6852543,25.7534039 C21.7073167,25.3634892 21.7401414,25.0470446 21.7406795,24.7304194 C21.744805,21.9075092 21.7376302,19.0847795 21.7505448,16.2620499 C21.7521592,15.8797169 21.846687,15.4979254 21.8981661,15.1155924 Z M-1.42108547e-14,16.6420362 C6.32080759,11.0678807 13.1858227,6.79542655 21.6737746,5.70980295 C21.7003213,5.3664614 21.7367334,5.10363001 21.7381683,4.84097914 C21.7446256,3.66816629 21.7318904,2.49535343 21.7446256,1.32272109 C21.7526973,0.584410399 21.8341311,0.515092231 22.5837169,0.503358687 C23.0615577,0.495596496 23.5397572,0.503719719 24.0179568,0.503719719 C35.1035401,0.503358687 46.1891235,0.502997654 57.2747068,0.502636622 C58.4709231,0.502636622 58.475228,0.503178171 58.475228,1.67887928 C58.4761248,13.9180488 58.4755867,26.1568573 58.475228,38.3960268 C58.475228,38.5462162 58.4822234,38.6973081 58.4709231,38.8467754 C58.4309237,39.3773121 58.3496692,39.4785817 57.8201699,39.4894126 C56.8942637,39.5080058 55.9678194,39.4964527 55.0415545,39.4964527 C44.3145311,39.4966333 33.5875077,39.4968138 22.8604843,39.4968138 C22.8007542,39.4968138 22.7410241,39.4980774 22.6811147,39.4971748 C21.8120686,39.4863439 21.7539529,39.4372435 21.7455225,38.5911647 C21.7361953,37.6591603 21.7487511,36.7267948 21.7396033,35.7946099 C21.7315316,34.9916744 21.6490216,34.9052072 20.9091217,34.8115194 C17.2889038,34.3528281 13.9956768,33.0565422 10.9720424,30.9964929 C9.20256061,29.7908262 7.61872648,28.3853281 6.18699782,26.8099644 C4.57195337,25.0322422 3.18434965,23.0745455 2.02902964,20.9619661 C1.46832007,19.9364543 0.972721688,18.8744783 0.463849951,17.8209866 C0.295780576,17.4733127 0.178652185,17.1010885 -1.42108547e-14,16.6420362 Z M107.195644,23.9941991 C108.340426,24.1347546 109.49587,24.1002958 110.609398,23.7551642 C111.774034,23.3942541 112.502965,22.5819344 112.784427,21.3943769 C113.004117,20.4681619 113.004669,19.5441233 112.791229,18.6173642 C112.476492,17.2502585 111.638175,16.3824421 110.253848,16.0565348 C109.233712,15.8162303 108.204934,15.9257729 107.19877,15.9459041 C107.012906,16.8247836 107.016767,23.2001969 107.195644,23.9941991 Z M102.797236,27.2993376 C102.590414,26.507149 102.592252,13.3796338 102.809737,12.5428302 C103.04009,12.5176209 103.3028,12.4635751 103.565693,12.4633937 C105.679319,12.461036 107.794232,12.4274841 109.905836,12.492593 C110.876519,12.5225177 111.860623,12.6744989 112.804098,12.9075489 C114.805213,13.4019413 116.123173,14.7097417 116.741248,16.6178497 C117.537282,19.0743961 117.492976,21.5570585 116.617706,23.9972823 C116.143028,25.3208611 115.176573,26.2262195 113.884167,26.7730255 C113.03537,27.1324847 112.130502,27.3383304 111.20578,27.3481239 C108.571698,27.3758723 105.937433,27.3726078 103.303168,27.3753282 C103.128151,27.3755096 102.95295,27.3236401 102.797236,27.2993376 Z M68.5390172,16.2707567 L68.5390172,17.3075758 C68.5391939,20.2363225 68.5391939,23.1648881 68.5388404,26.0936348 C68.5388404,26.3048756 68.54768,26.5172034 68.5308847,26.7273572 C68.4903992,27.2373425 68.3910417,27.3541952 67.8733928,27.3628912 C66.8425149,27.3802833 65.8109298,27.3793774 64.7800518,27.3605361 C64.3069547,27.35184 64.2125474,27.2398788 64.1646366,26.7782651 C64.1460734,26.5989097 64.1547362,26.4162933 64.1547362,26.2351263 C64.1545594,22.0383913 64.1536755,17.8416563 64.1556202,13.6449213 C64.1561506,12.4588205 64.1596864,12.4564654 65.3431364,12.4553784 C67.4939958,12.4537478 69.6448552,12.449581 71.7955378,12.4566465 C73.007805,12.4608134 74.2039841,12.5832823 75.3572025,13.0081191 C77.0107442,13.6170216 78.0760967,14.7833751 78.4698139,16.5350794 C78.6469602,17.322975 78.7779635,18.1393138 78.791223,18.945326 C78.8331228,21.4505042 78.8104934,23.9569505 78.8066039,26.4628533 C78.8062503,26.725002 78.7657648,26.9871508 78.7457872,27.2248419 C77.8906412,27.4348146 75.4349913,27.419053 74.7004178,27.1976669 C74.6638217,26.5066957 74.60053,25.791267 74.5925743,25.0751136 C74.5729503,23.2940602 74.5999996,21.512101 74.5618124,19.7315911 C74.5490833,19.1364573 74.4499026,18.5291853 74.2939715,17.9548857 C74.0416884,17.0251363 73.371821,16.4591704 72.4666427,16.3267373 C71.5688896,16.19521 70.6499214,16.2051742 69.7397928,16.1785426 C69.3927489,16.1683973 69.0437602,16.2292694 68.5390172,16.2707567 Z M130.969491,21.8861521 C132.164086,22.0785479 134.859997,22.0428401 135.559052,21.8305475 C134.906795,19.7817016 134.055922,17.8058702 133.286128,15.6138379 C132.542997,17.8184834 131.604879,19.7625153 130.969491,21.8861521 Z M124.768876,27.0513471 C124.950986,26.5519709 125.098632,26.108377 125.272942,25.6749092 C126.922449,21.5734869 128.576128,17.4736634 130.229625,13.3736622 C130.535439,12.6152713 130.537978,12.6086982 131.332259,12.6051452 C132.692458,12.5991051 134.053564,12.6323257 135.412493,12.5905778 C136.034822,12.5713915 136.335194,12.8094435 136.550316,13.3585619 C137.437284,15.6232534 138.360347,17.8744434 139.269444,20.1307853 C140.123219,22.2501585 140.976994,24.3695317 141.82696,26.4903261 C141.900783,26.6741946 141.946673,26.8687221 142,27.0408657 C141.906587,27.1074847 141.859246,27.1705507 141.810998,27.1712613 C140.512832,27.1876052 139.214666,27.197376 137.916319,27.2082127 C137.599622,27.2110551 137.416062,27.044241 137.317207,26.7626646 C137.140539,26.2590248 136.938478,25.7626687 136.788473,25.2515675 C136.666946,24.8379966 136.417724,24.6955208 135.994555,24.6983632 C134.181077,24.7100881 132.367236,24.7173718 130.55394,24.6944549 C130.033912,24.6878818 129.790676,24.9042604 129.652642,25.365797 C129.508442,25.8475857 129.327239,26.3215579 129.119192,26.780252 C129.043736,26.9463555 128.866161,27.1094388 128.694572,27.1833416 C128.416873,27.3027228 125.328083,27.1844075 124.768876,27.0513471 Z M86.6564054,23.7800566 C87.0607652,22.4428848 87.4022448,21.3220175 87.7382723,20.199881 C88.4223218,17.9157196 89.0972846,15.6290198 89.788967,13.3473967 C90.0582979,12.4595146 90.074654,12.4606024 90.9802382,12.455707 C91.827849,12.4513556 92.6756415,12.4513556 93.5232523,12.4596959 C93.7860407,12.4622342 94.0488292,12.4988592 94.3961242,12.5265998 C94.3396047,12.8310217 94.3225217,13.0632817 94.2527355,13.2781357 C93.6653689,15.0879864 93.0627365,16.8927605 92.4757333,18.7026112 C91.6750101,21.1726169 90.9175397,23.6573088 90.0761079,26.1135348 C89.5861511,27.5446259 89.8356729,27.3609575 88.3180061,27.3711109 C87.0464082,27.3798139 85.7746285,27.3723801 84.5032123,27.3721988 L83.521663,27.3721988 C82.7004038,24.8690131 81.8480679,22.4231219 81.0996842,19.9456824 C80.3625682,17.5052305 79.4280882,15.1215291 78.8161873,12.5751913 C79.1227738,12.5242428 79.3232272,12.4636847 79.5244076,12.4618716 C80.5839211,12.4518995 81.643798,12.4486359 82.7033115,12.459152 C83.3635538,12.4656792 83.4193464,12.4954142 83.6030802,13.1185816 C83.9878126,14.421123 84.3469204,15.7310981 84.7143881,17.0387162 C85.2863073,19.0732118 85.8556822,21.1086139 86.4283283,23.1427469 C86.4688552,23.2863456 86.5284642,23.4246862 86.6564054,23.7800566 Z M123.723064,12.6157813 L123.723064,27.1657371 C123.016502,27.4223083 120.159791,27.4518221 119.20187,27.2070203 C119.184819,26.9397662 119.149759,26.6471628 119.149376,26.3547405 C119.146311,22.0761406 119.14746,17.7975406 119.149568,13.5189407 C119.149759,13.3085415 119.111634,13.0762332 119.192291,12.8942615 C119.26471,12.7305774 119.453995,12.5609182 119.631785,12.5020716 C119.985833,12.3851026 123.16862,12.4973638 123.723064,12.6157813 Z M100.791646,12.4528634 C100.827721,17.4782353 100.801139,22.3541808 100.811392,27.2609545 C100.506084,27.3111865 100.326849,27.3646826 100.146853,27.3661333 C99.1025778,27.3741124 98.0583022,27.3824542 97.0144063,27.3652266 C96.350247,27.354346 96.2680341,27.2560582 96.2323388,26.6166435 C96.2256934,26.4960505 96.2311996,26.3749135 96.2311996,26.2539579 C96.2304401,22.0531517 96.2281617,17.8523455 96.2294908,13.6515394 C96.2298705,12.4544955 96.2344274,12.4539515 97.4980008,12.4530447 C98.5375297,12.4523194 99.5770586,12.4528634 100.791646,12.4528634 Z" id="Combined-Shape"></path>
                            </g>
                        </g>
                    </g>
                </g>
            </g>
        </g>
    </g>
</svg>