<?xml version="1.0" encoding="utf-8"?>
<!-- Generator: Adobe Illustrator 21.0.0, SVG Export Plug-In . SVG Version: 6.00 Build 0)  -->
<svg version="1.1" id="Layer_1" xmlns="http://www.w3.org/2000/svg" xmlns:xlink="http://www.w3.org/1999/xlink" x="0px" y="0px"
	 width="36.5px" height="36.4px" viewBox="0 0 36.5 36.4" style="enable-background:new 0 0 36.5 36.4;" xml:space="preserve">
<title>Icon/OS-MacOS1</title>
<desc>Created with Sketch.</desc>
<g id="Main-page">
	<g id="XL_x2265_1200" transform="translate(0.000000, -2480.000000)">
		<g id="Group-7-_x5B_0v_x5D_">
			<g id="Group-5-_x5B_m_x5D_" transform="translate(0.000000, 2052.000000)">
				<g id="Group-16">
					<g id="Group-3-_x5B_48v_x5D_" transform="translate(59.000000, 80.000000)">
						<g id="Group-16-_x5B_30h_x5D_" transform="translate(0.000000, 192.000000)">
							<g id="Group-16-_x5B_24v_x5D_">
								<g id="Group-3" transform="translate(0.000000, 256.000000)">
									<g id="Icon_x2F_os-walletpaper">
										<g id="Group-19" transform="translate(2.000000, 2.000000)">
											<polygon id="Stroke-1" style="fill:none;stroke:#C1C9D4;stroke-width:0.9487;" points="-60.5,-87.9 -46.9,-87.9 
												-46.9,-101.5 -60.5,-101.5 											"/>
											<polygon id="Stroke-3" style="fill:none;stroke:#C1C9D4;stroke-width:0.9487;" points="-55.5,-92.9 -51.9,-92.9 
												-51.9,-96.5 -55.5,-96.5 											"/>
											<polygon id="Stroke-4" style="fill:none;stroke:#C1C9D4;stroke-width:0.9487;" points="-38.6,-87.9 -24.9,-87.9 
												-24.9,-101.5 -38.6,-101.5 											"/>
											<polygon id="Stroke-6" style="fill:none;stroke:#C1C9D4;stroke-width:0.9487;" points="-33.5,-92.9 -30,-92.9 -30,-96.5 
												-33.5,-96.5 											"/>
											<polyline id="Stroke-7" style="fill:none;stroke:#C1C9D4;stroke-width:0.9487;" points="-38.6,-74.7 -38.6,-79.7 
												-29.4,-79.7 											"/>
											<g id="Group-14" transform="translate(21.547893, 21.773545)">
												<path id="Stroke-8" style="fill:none;stroke:#C1C9D4;stroke-width:0.9487;" d="M-60.1-87.9v-4"/>
												<polyline id="Stroke-10" style="fill:none;stroke:#C1C9D4;stroke-width:0.9487;" points="-55.1,-87.9 -46.5,-87.9 
													-46.5,-91.8 												"/>
												<path id="Stroke-12" style="fill:none;stroke:#C1C9D4;stroke-width:0.9487;" d="M-46.5-101.5v5"/>
											</g>
											<polygon id="Stroke-15" style="fill:none;stroke:#C1C9D4;stroke-width:0.9487;" points="-33.5,-71.1 -30,-71.1 
												-30,-74.7 -33.5,-74.7 											"/>
											<polygon id="Stroke-16" style="fill:none;stroke:#C1C9D4;stroke-width:0.9487;" points="-60.5,-66.1 -46.9,-66.1 
												-46.9,-79.7 -60.5,-79.7 											"/>
											<polygon id="Stroke-18" style="fill:none;stroke:#C1C9D4;stroke-width:0.9487;" points="-55.5,-71.1 -51.9,-71.1 
												-51.9,-74.7 -55.5,-74.7 											"/>
										</g>
									</g>
								</g>
							</g>
						</g>
					</g>
				</g>
			</g>
		</g>
	</g>
</g>
</svg>
