<?xml version="1.0" encoding="UTF-8"?>
<svg width="28px" height="28px" viewBox="0 0 28 28" version="1.1" xmlns="http://www.w3.org/2000/svg" xmlns:xlink="http://www.w3.org/1999/xlink">
    <!-- Generator: Sketch 52.6 (67491) - http://www.bohemiancoding.com/sketch -->
    <title>Icon/Social/Discord</title>
    <desc>Created with Sketch.</desc>
    <g id="Main-page" stroke="none" stroke-width="1" fill="none" fill-rule="evenodd">
        <g id="XL≥1200" transform="translate(-361.000000, -8282.000000)" fill="#858D97">
            <g id="Group-7-[0v]">
                <g id="Group-6" transform="translate(0.000000, 7991.000000)">
                    <g id="Group-11-[48v-c]" transform="translate(243.000000, 80.000000)">
                        <g id="discord" transform="translate(100.000000, 193.000000)">
                            <g id="Group-11-[48h]">
                                <g id="Group-11-[c-m]">
                                    <g id="Icon/Social/Github" transform="translate(16.000000, 16.000000)">
                                        <path d="M16,2 C8.265,2 2,8.4276953 2,16.3555451 C2,22.6989015 6.011,28.0786421 11.5725,29.9753684 C12.2725,30.1099517 12.52975,29.6667242 12.52975,29.2845078 C12.52975,28.9435636 12.5175,28.0409587 12.51225,26.8440652 C8.61675,27.7107812 7.796,24.9186277 7.796,24.9186277 C7.159,23.2605622 6.2385,22.8191292 6.2385,22.8191292 C4.96975,21.9290854 6.3365,21.9470299 6.3365,21.9470299 C7.74175,22.0475187 8.48025,23.425651 8.48025,23.425651 C9.72975,25.620255 11.758,24.9868165 12.55775,24.6189557 C12.68375,23.6912286 13.04425,23.0577902 13.445,22.6989015 C10.33525,22.3400129 7.068,21.105436 7.068,15.6054678 C7.068,14.038919 7.6105,12.7576866 8.50825,11.7527984 C8.35075,11.3903209 7.87825,9.93143865 8.63075,7.95396232 C8.63075,7.95396232 9.80325,7.56815704 12.48075,9.42540568 C13.60075,9.10599481 14.79075,8.94808381 15.98075,8.94090604 C17.17075,8.94808381 18.36075,9.10599481 19.48075,9.42540568 C22.14075,7.56815704 23.31325,7.95396232 23.31325,7.95396232 C24.06575,9.93143865 23.59325,11.3903209 23.45325,11.7527984 C24.34575,12.7576866 24.88825,14.038919 24.88825,15.6054678 C24.88825,21.1197916 21.61575,22.3346296 18.50075,22.6881349 C18.99075,23.1188012 19.44575,23.9980784 19.44575,25.3439107 C19.44575,27.2639649 19.42825,28.807186 19.42825,29.2737412 C19.42825,29.6505742 19.67325,30.099185 20.39075,29.9556296 C25.9925,28.0732587 30,22.6899293 30,16.3555451 C30,8.4276953 23.7315,2 16,2" id="Path"></path>
                                    </g>
                                </g>
                            </g>
                        </g>
                    </g>
                </g>
            </g>
        </g>
    </g>
</svg>