<?xml version="1.0" encoding="utf-8"?>
<!-- Generator: Adobe Illustrator 21.0.0, SVG Export Plug-In . SVG Version: 6.00 Build 0)  -->
<svg version="1.1" id="Layer_1" xmlns="http://www.w3.org/2000/svg" xmlns:xlink="http://www.w3.org/1999/xlink" x="0px" y="0px"
	 width="56.9px" height="56.9px" viewBox="0 0 56.9 56.9" style="enable-background:new 0 0 56.9 56.9;" xml:space="preserve">
<title>Icon/Social/Discord1</title>
<desc>Created with Sketch.</desc>
<g id="Page-1">
	<g id="XL_x2265_1200" transform="translate(-375.000000, -6089.000000)">
		<g id="Group-7-_x5B_0v_x5D_">
			<g id="Group-6" transform="translate(0.000000, 5889.000000)">
				<g id="Group-11-_x5B_48v-c_x5D_" transform="translate(243.000000, 80.000000)">
					<g id="discord" transform="translate(28.000000, 192.000000)">
						<g id="Group-11-_x5B_48h_x5D_">
							<g id="Group-11-_x5B_c-m_x5D_" transform="translate(176.000000, 0.000000)">
								<g id="Icon_x2F_Social_x2F_Bitcointalk" transform="translate(32.000000, 32.000000)">
									<g id="bitcoin" transform="translate(-4.000000, -4.000000)">
										<path id="Shape" style="fill:#858D97;" d="M-43.1-71.6c0,15.7-12.7,28.4-28.4,28.4c-15.7,0-28.4-12.7-28.4-28.4
											c0-15.7,12.7-28.5,28.4-28.5C-55.9-100-43.1-87.3-43.1-71.6L-43.1-71.6z M-60.4-78.5c-0.4-3.8-3.7-5.1-7.8-5.5l0-5.3
											l-3.2,0l0,5.1c-0.8,0-1.7,0-2.6,0l0-5.2l-3.2,0l0,5.3c-0.7,0-1.4,0-2,0l-4.4,0l0,3.4c0,0,2.4,0,2.3,0
											c1.3,0,1.7,0.8,1.9,1.4l0,14.5c-0.1,0.4-0.3,1.1-1.2,1.1c0,0-2.3,0-2.3,0l-0.7,3.8l4.2,0l2.3,0l0,5.3l3.2,0l0-5.3
											c0.9,0,1.7,0,2.6,0l0.1,5.2l3.2,0l0-5.3c5.4-0.3,9.2-1.7,9.7-6.8c0.4-4.1-1.5-5.9-4.6-6.7C-61.3-74-60.2-75.7-60.4-78.5
											L-60.4-78.5z M-64.9-67.1c0,4-6.8,3.5-9,3.5l0-7.1C-71.7-70.6-64.9-71.3-64.9-67.1z M-66.4-77.1c0,3.6-5.7,3.2-7.5,3.2
											l0-6.4C-72.1-80.3-66.4-80.9-66.4-77.1L-66.4-77.1z"/>
									</g>
								</g>
							</g>
						</g>
					</g>
				</g>
			</g>
		</g>
	</g>
</g>
</svg>
