<?xml version="1.0" encoding="utf-8"?>
<!-- Generator: Adobe Illustrator 21.0.0, SVG Export Plug-In . SVG Version: 6.00 Build 0)  -->
<svg version="1.1" id="Layer_1" xmlns="http://www.w3.org/2000/svg" xmlns:xlink="http://www.w3.org/1999/xlink" x="0px" y="0px"
	 width="64px" height="44px" viewBox="0 0 64 44" style="enable-background:new 0 0 64 44;" xml:space="preserve">
<title>Icon/Social/Discord</title>
<desc>Created with Sketch.</desc>
<g id="Page-1">
	<g id="XL_x2265_1200" transform="translate(-203.000000, -6093.000000)">
		<g id="Group-7-_x5B_0v_x5D_">
			<g id="Group-6" transform="translate(0.000000, 5889.000000)">
				<g id="Group-11-_x5B_48v-c_x5D_" transform="translate(243.000000, 80.000000)">
					<g id="discord" transform="translate(28.000000, 192.000000)">
						<g id="Group-11-_x5B_48h_x5D_">
							<g id="Group-11-_x5B_c-m_x5D_">
								<g id="Icon_x2F_Social_x2F_Discord" transform="translate(32.000000, 32.000000)">
									<path id="Shape" style="fill:#858D97;" d="M-58.9-100H-59l-0.9,0.9c9.1,2.6,13.6,6.7,13.6,6.7c-5.9-2.9-11.2-4.4-16.5-5
										c-3.8-0.6-7.7-0.3-10.9,0h-0.9c-2.1,0-6.5,0.9-12.4,3.2c-2.1,0.9-3.2,1.5-3.2,1.5s4.4-4.4,14.2-6.7l-0.6-0.6
										c0,0-7.4-0.3-15.3,5.5c0,0-8,13.7-8,30.6c0,0,4.4,7.6,16.5,7.9c0,0,1.8-2.3,3.5-4.4c-6.8-2-9.4-6.1-9.4-6.1
										s0.6,0.3,1.5,0.9h0.3c0.1,0,0.2,0.1,0.3,0.1v0c0.1,0.1,0.1,0.1,0.3,0.1c1.5,0.6,2.9,1.2,4.1,1.7c2.1,0.9,4.7,1.8,7.9,2.3
										c4.1,0.6,8.8,0.9,14.2,0c2.6-0.6,5.3-1.2,7.9-2.3c1.7-0.9,3.8-1.7,6.2-3.2c0,0-2.6,4.1-9.7,6.1c1.5,2,3.5,4.4,3.5,4.4
										c12.1-0.3,16.8-7.8,17.1-7.5c0-16.9-8-30.6-8-30.6c-7.2-5.3-14-5.5-15.1-5.5L-58.9-100z M-58-84c3.3,0,6,2.7,6,6
										c0,3.3-2.7,6-6,6s-6-2.7-6-6C-64-81.3-61.3-84-58-84z M-78-84c3.3,0,6,2.7,6,6c0,3.3-2.7,6-6,6c-3.3,0-6-2.7-6-6
										C-84-81.3-81.3-84-78-84z"/>
								</g>
							</g>
						</g>
					</g>
				</g>
			</g>
		</g>
	</g>
</g>
</svg>
