<?xml version="1.0" encoding="UTF-8"?>
<svg width="29px" height="30px" viewBox="0 0 29 30" version="1.1" xmlns="http://www.w3.org/2000/svg" xmlns:xlink="http://www.w3.org/1999/xlink">
    <!-- Generator: Sketch 52.6 (67491) - http://www.bohemiancoding.com/sketch -->
    <title>Icon/Social/Discord22</title>
    <desc>Created with Sketch.</desc>
    <g id="Main-page" stroke="none" stroke-width="1" fill="none" fill-rule="evenodd">
        <g id="XL≥1200" transform="translate(-585.000000, -8281.000000)" fill="#858D97">
            <g id="Group-7-[0v]">
                <g id="Group-6" transform="translate(0.000000, 7991.000000)">
                    <g id="Group-11-[48v-c]" transform="translate(243.000000, 80.000000)">
                        <g id="discord" transform="translate(100.000000, 193.000000)">
                            <g id="Group-11-[48h]">
                                <g id="Group-11-[c-m]" transform="translate(224.000000, 0.000000)">
                                    <g id="Icon/Social/Bitcointalk" transform="translate(16.000000, 16.000000)">
                                        <g id="bitcoin" transform="translate(-2.000000, -2.000000)">
                                            <path d="M32.0177778,21.4417778 C30.1191111,29.0613333 22.4,33.6977778 14.7804444,31.7973333 C7.16444444,29.9111111 2.52444444,22.1777778 4.42666667,14.5688889 C6.32533333,6.94222222 14.0444444,2.30222222 21.6604444,4.20088889 C29.2817778,6.10311111 33.9182222,13.8186667 32.0195556,21.4453333 L32.0177778,21.4417778 Z M24.4924444,15.9733333 C24.7768889,14.0817778 23.3368889,13.0631111 21.3635556,12.3822222 L22.0035556,9.82222222 L20.4426667,9.43111111 L19.8204444,11.9288889 C19.4115556,11.8257778 18.9848889,11.7297778 18.5582222,11.6337778 L19.1822222,9.11111111 L17.6177778,8.72 L16.9777778,11.2853333 C16.64,11.2053333 16.3075556,11.1288889 15.9822222,11.0488889 L13.8311111,10.5155556 L13.4168889,12.1831111 C13.4168889,12.1831111 14.5724444,12.4497778 14.5493333,12.464 C15.184,12.624 15.296,13.04 15.2782222,13.3706667 L13.5271111,20.3928889 C13.4382222,20.5884444 13.2426667,20.8728889 12.7982222,20.7662222 C12.816,20.7893333 11.6604444,20.4817778 11.6604444,20.4817778 L10.8782222,22.2702222 L12.9048889,22.7751111 L14.0071111,23.0631111 L13.3671111,25.6586667 L14.9315556,26.0444444 L15.5715556,23.4791111 C15.9982222,23.5946667 16.4071111,23.7013333 16.816,23.8026667 L16.2133333,26.3555556 L17.7777778,26.7466667 L18.4231111,24.1564444 C21.0844444,24.6595556 23.0844444,24.4586667 23.9271111,22.0497778 C24.6026667,20.112 23.8915556,18.992 22.4871111,18.2631111 C23.5004444,18.032 24.2648889,17.36 24.4782222,15.9733333 L24.4924444,15.9733333 Z M20.9244444,20.9742222 C20.4444444,22.912 17.1804444,21.8631111 16.1244444,21.6017778 L16.9777778,18.1653333 C18.0373333,18.432 21.4293333,18.9528889 20.9244444,20.9742222 Z M21.408,15.9431111 C20.9688889,17.7084444 18.2524444,16.8142222 17.3724444,16.5937778 L18.1475556,13.4648889 C19.0293333,13.6782222 21.8666667,14.0871111 21.408,15.936 L21.408,15.9431111 Z" id="Shape" transform="translate(18.222520, 17.999579) rotate(-14.000000) translate(-18.222520, -17.999579) "></path>
                                        </g>
                                    </g>
                                </g>
                            </g>
                        </g>
                    </g>
                </g>
            </g>
        </g>
    </g>
</svg>