<?xml version="1.0" encoding="utf-8"?>
<!-- Generator: Adobe Illustrator 21.0.0, SVG Export Plug-In . SVG Version: 6.00 Build 0)  -->
<svg version="1.1" id="Layer_1" xmlns="http://www.w3.org/2000/svg" xmlns:xlink="http://www.w3.org/1999/xlink" x="0px" y="0px"
	 width="60.3px" height="49px" viewBox="0 0 60.3 49" style="enable-background:new 0 0 60.3 49;" xml:space="preserve">
<title>Icon/Social/Discord112</title>
<desc>Created with Sketch.</desc>
<g id="Page-1">
	<g id="XL_x2265_1200" transform="translate(-731.000000, -6093.000000)">
		<g id="Group-7-_x5B_0v_x5D_">
			<g id="Group-6" transform="translate(0.000000, 5889.000000)">
				<g id="Group-11-_x5B_48v-c_x5D_" transform="translate(243.000000, 80.000000)">
					<g id="discord" transform="translate(28.000000, 192.000000)">
						<g id="Group-11-_x5B_48h_x5D_">
							<g id="Group-11-_x5B_c-m_x5D_" transform="translate(528.000000, 0.000000)">
								<g id="Icon_x2F_Social_x2F_Twitter" transform="translate(32.000000, 32.000000)">
									<path id="Path" style="fill:#858D97;" d="M-39.8-94.2c-2.2,1-4.6,1.6-7.1,1.9c2.5-1.5,4.5-4,5.4-6.8c-2.4,1.4-5,2.4-7.8,3
										c-2.3-2.4-5.5-3.9-9-3.9c-6.8,0-12.4,5.5-12.4,12.3c0,1,0.1,1.9,0.3,2.8c-10.3-0.5-19.4-5.4-25.5-12.9
										c-1.1,1.8-1.7,3.9-1.7,6.2c0,4.3,2.2,8.1,5.5,10.3c-2-0.1-3.9-0.6-5.6-1.5v0.2c0,6,4.3,11,9.9,12.1c-1,0.3-2.1,0.4-3.3,0.4
										c-0.8,0-1.5-0.1-2.3-0.2c1.6,4.9,6.1,8.5,11.6,8.6c-4.2,3.3-9.6,5.3-15.3,5.3c-1,0-2-0.1-2.9-0.2c5.5,3.5,12,5.5,19,5.5
										c22.7,0,35.2-18.8,35.2-35.1c0-0.5,0-1.1,0-1.6c2.4-1.7,4.5-3.9,6.2-6.4L-39.8-94.2z"/>
								</g>
							</g>
						</g>
					</g>
				</g>
			</g>
		</g>
	</g>
</g>
</svg>
