<?xml version="1.0" encoding="utf-8"?>
<!-- Generator: Adobe Illustrator 21.0.0, SVG Export Plug-In . SVG Version: 6.00 Build 0)  -->
<svg version="1.1" id="Layer_1" xmlns="http://www.w3.org/2000/svg" xmlns:xlink="http://www.w3.org/1999/xlink" x="0px" y="0px"
	 width="64px" height="52px" viewBox="0 0 64 52" style="enable-background:new 0 0 64 52;" xml:space="preserve">
<title>Icon/Social/Discord3</title>
<desc>Created with Sketch.</desc>
<g id="Page-1">
	<g id="XL_x2265_1200" transform="translate(-555.000000, -6093.000000)">
		<g id="Group-7-_x5B_0v_x5D_">
			<g id="Group-6" transform="translate(0.000000, 5889.000000)">
				<g id="Group-11-_x5B_48v-c_x5D_" transform="translate(243.000000, 80.000000)">
					<g id="discord" transform="translate(28.000000, 192.000000)">
						<g id="Group-11-_x5B_48h_x5D_">
							<g id="Group-11-_x5B_c-m_x5D_" transform="translate(352.000000, 0.000000)">
								<g id="Icon_x2F_Social_x2F_Reddit" transform="translate(32.000000, 32.000000)">
									<path id="Shape" style="fill:#858D97;" d="M-94.1-68.7c-0.2,0.7-0.2,1.5-0.2,2.2c0,8.9,11.7,16.2,26.2,16.2
										c14.4,0,26.2-7.3,26.2-16.2c0-0.7-0.1-1.4-0.2-2.1l0-0.1c-0.1-0.1-0.1-0.3-0.1-0.4c-0.8-3-3-5.8-6.1-8
										c-0.1,0-0.2-0.1-0.3-0.2c-0.1-0.1-0.1-0.1-0.2-0.2c-4.8-3.2-11.6-5.2-19.2-5.2c-7.5,0-14.3,2-19.1,5.1c0,0-0.1,0.1-0.1,0.1
										c-0.1,0.1-0.2,0.2-0.3,0.2c-3.2,2.2-5.4,5-6.3,8.1C-94-69-94-68.9-94.1-68.7L-94.1-68.7z M-68.1-54.6
										c-4.8,0-8.2-1-10.3-3.1c-0.5-0.4-0.5-1.2,0-1.6c0.5-0.4,1.2-0.4,1.7,0c1.7,1.6,4.5,2.4,8.6,2.4s6.9-0.8,8.6-2.4
										c0.4-0.4,1.2-0.4,1.7,0c0.4,0.5,0.4,1.2,0,1.7C-60-55.5-63.3-54.5-68.1-54.6L-68.1-54.6z M-77.7-74.2c-2.4,0-4.5,2-4.5,4.3
										c0,2.4,2,4.3,4.5,4.3c2.4,0,4.4-1.9,4.4-4.3C-73.3-72.2-75.2-74.2-77.7-74.2z M-58.4-74.2c-2.4,0-4.5,2-4.5,4.3
										c0,2.4,2,4.3,4.5,4.3s4.4-1.9,4.4-4.3C-54-72.2-56-74.2-58.4-74.2z M-46.3-78.3c2.8,2.2,4.8,4.7,5.8,7.5
										c1.2-0.9,1.9-2.2,1.9-3.8c0-2.6-2.2-4.7-4.8-4.7C-44.4-79.3-45.4-78.9-46.3-78.3L-46.3-78.3z M-92.8-79.3
										c-2.7,0-4.8,2.1-4.8,4.7c0,1.4,0.6,2.7,1.7,3.6c1.1-2.8,3.1-5.3,5.9-7.4C-90.8-79-91.8-79.3-92.8-79.3L-92.8-79.3z
										 M-68.2-48c-15.7,0-28.6-8.3-28.6-18.5c0-0.7,0.1-1.4,0.2-2.1c-2.1-1.3-3.4-3.5-3.4-6c0-3.9,3.3-7,7.3-7
										c1.8,0,3.5,0.6,4.8,1.8c5-3.1,11.6-5,19-5.2l4.8-14.3l1.1,0.2c0,0,0,0,0,0l11.3,2.6c0.9-2.1,3-3.5,5.5-3.5
										c3.3,0,5.9,2.6,5.9,5.8c0,3.2-2.7,5.8-5.9,5.8s-5.9-2.6-5.9-5.8l-10.3-2.4L-66.4-85c7.1,0.3,13.5,2.2,18.2,5.2
										c1.3-1.2,3.1-1.9,4.9-1.9c4,0,7.2,3.1,7.2,7c0,2.6-1.4,4.9-3.7,6.1c0.1,0.7,0.2,1.3,0.2,1.9C-39.6-56.3-52.3-48-68.2-48
										L-68.2-48z M-46.4-97.7c-2,0-3.6,1.6-3.6,3.5c0,1.9,1.6,3.5,3.6,3.5c2,0,3.6-1.6,3.6-3.5S-44.4-97.7-46.4-97.7L-46.4-97.7z
										"/>
								</g>
							</g>
						</g>
					</g>
				</g>
			</g>
		</g>
	</g>
</g>
</svg>
