<?xml version="1.0" encoding="utf-8"?>
<!-- Generator: Adobe Illustrator 21.0.0, SVG Export Plug-In . SVG Version: 6.00 Build 0)  -->
<svg version="1.1" id="Layer_1" xmlns="http://www.w3.org/2000/svg" xmlns:xlink="http://www.w3.org/1999/xlink" x="0px" y="0px"
	 width="382.3px" height="530.5px" viewBox="0 0 382.3 530.5" style="enable-background:new 0 0 382.3 530.5;" xml:space="preserve"
	>
<title>Image/Wallet-app</title>
<desc>Created with Sketch.</desc>
<g id="Main-page">
	<g id="XL_x2265_1200" transform="translate(-515.000000, -1952.000000)">
		<g id="Group-7-_x5B_0v_x5D_">
			<g id="Group-5-_x5B_m_x5D_" transform="translate(0.000000, 2052.000000)">
				<g id="Image_x2F_Wallet-app" transform="translate(615.000000, 0.000000)">
					<g>
						<g id="Mask">
						</g>
						<defs>
							<filter id="Adobe_OpacityMaskFilter" filterUnits="userSpaceOnUse" x="-100" y="-100" width="382.3" height="731.7">
								<feColorMatrix  type="matrix" values="1 0 0 0 0  0 1 0 0 0  0 0 1 0 0  0 0 0 1 0"/>
							</filter>
						</defs>
						<mask maskUnits="userSpaceOnUse" x="-100" y="-100" width="382.3" height="731.7" id="mask-2">
							<g style="filter:url(#Adobe_OpacityMaskFilter);">
								<rect id="path-1" x="-169.2" y="-237.9" style="fill:#FFFFFF;" width="525" height="668"/>
							</g>
						</mask>
						<g id="Group-137" style="mask:url(#mask-2);">
							<g transform="translate(18.000000, 100.000000)">
								<g transform="translate(51.017717, 37.479903)">
									<g id="Group-131" transform="translate(0.000000, 7.688185)">
										<path id="Stroke-1" style="fill:none;stroke:#0059FF;stroke-width:0.5;" d="M112.5,139.7h-214.7
											c-36.5,0-66.2,29.6-66.2,66.1v214.4c0,36.5,29.6,66.1,66.2,66.1h214.7c36.5,0,66.2-29.6,66.2-66.1V205.8
											C178.7,169.3,149.1,139.7,112.5,139.7z"/>
										<path id="Stroke-3" style="fill:none;stroke:#0059FF;stroke-width:0.508;" d="M-168.6,202.9l3.7,211.1
											c0.5,35.9,30,64.7,66,64.2l211.3-3.7c36-0.5,64.7-30,64.3-65.9l-3.7-211.1c-0.5-35.9-30-64.7-66-64.2l-211.3,3.7
											C-140.3,137.5-169.1,167-168.6,202.9z"/>
										<path id="Stroke-5" style="fill:none;stroke:#0059FF;stroke-width:0.516;" d="M-168.7,200.2l7.4,207.7
											c0.9,35.4,30.4,63.3,65.8,62.3l208-7.4c35.4-0.9,63.3-30.4,62.4-65.7l-7.4-207.7c-0.9-35.4-30.4-63.3-65.8-62.3l-208,7.4
											C-141.7,135.5-169.7,164.9-168.7,200.2z"/>
										<path id="Stroke-7" style="fill:none;stroke:#0059FF;stroke-width:0.523;" d="M-168.6,197.8l11.1,204.4
											c1.4,34.8,30.8,61.8,65.6,60.4l204.6-11.1c34.8-1.4,61.9-30.8,60.5-65.5l-11.1-204.4c-1.4-34.8-30.8-61.8-65.6-60.4
											l-204.6,11.1C-142.9,133.7-170,163-168.6,197.8z"/>
										<path id="Stroke-9" style="fill:none;stroke:#0059FF;stroke-width:0.531;" d="M-168.2,195.6l14.8,201
											c1.9,34.2,31.2,60.4,65.4,58.5l201.2-14.8c34.3-1.9,60.5-31.2,58.6-65.4l-14.8-201c-1.9-34.2-31.2-60.4-65.4-58.5
											l-201.2,14.8C-143.9,132.2-170.1,161.4-168.2,195.6z"/>
										<path id="Stroke-11" style="fill:none;stroke:#0059FF;stroke-width:0.539;" d="M-167.6,193.7l18.6,197.7
											c2.4,33.6,31.6,59,65.3,56.7l197.9-18.5c33.7-2.4,59.1-31.5,56.7-65.2l-18.6-197.7c-2.4-33.6-31.6-59-65.3-56.7
											l-197.9,18.5C-144.6,130.8-170,160-167.6,193.7z"/>
										<path id="Stroke-13" style="fill:none;stroke:#0059FF;stroke-width:0.547;" d="M-166.8,191.9l22.3,194.3
											c2.8,33.1,32,57.6,65.1,54.8l194.5-22.2c33.1-2.8,57.7-31.9,54.8-65l-22.3-194.3c-2.8-33.1-32-57.6-65.1-54.8L-112,126.9
											C-145.1,129.7-169.7,158.8-166.8,191.9z"/>
										<path id="Stroke-15" style="fill:none;stroke:#0059FF;stroke-width:0.555;" d="M-165.8,190.4l26,191
											c3.3,32.5,32.4,56.2,64.9,52.9l191.2-26c32.5-3.3,56.2-32.3,52.9-64.8l-26-191c-3.3-32.5-32.4-56.2-64.9-52.9l-191.2,26
											C-145.4,128.8-169.1,157.9-165.8,190.4z"/>
										<path id="Stroke-17" style="fill:none;stroke:#0059FF;stroke-width:0.563;" d="M-164.6,189l29.7,187.6
											c3.8,31.9,32.8,54.8,64.7,51l187.8-29.7c32-3.8,54.8-32.7,51.1-64.7L139,145.7c-3.8-31.9-32.8-54.8-64.7-51l-187.8,29.7
											C-145.6,128.1-168.4,157.1-164.6,189z"/>
										<path id="Stroke-19" style="fill:none;stroke:#0059FF;stroke-width:0.57;" d="M-163.3,187.8l33.4,184.3
											c4.2,31.4,33.1,53.4,64.5,49.1l184.5-33.4c31.4-4.2,53.4-33.1,49.2-64.5l-33.4-184.3c-4.2-31.4-33.1-53.4-64.5-49.1
											l-184.5,33.4C-145.5,127.6-167.5,156.4-163.3,187.8z"/>
										<path id="Stroke-21" style="fill:none;stroke:#0059FF;stroke-width:0.578;" d="M-161.7,186.8l37.1,180.9
											c4.7,30.8,33.5,51.9,64.4,47.2l181.1-37.1c30.8-4.7,52-33.5,47.3-64.3L131,132.6c-4.7-30.8-33.5-51.9-64.4-47.2
											l-181.1,37.1C-145.3,127.2-166.5,156-161.7,186.8z"/>
										<path id="Stroke-23" style="fill:none;stroke:#0059FF;stroke-width:0.586;" d="M-160,185.9l40.8,177.6
											c5.2,30.2,33.9,50.5,64.2,45.3L122.8,368c30.3-5.2,50.6-33.9,45.4-64.1l-40.8-177.6C122.1,96.1,93.4,75.8,63.1,81
											l-177.8,40.8C-144.9,127-165.2,155.7-160,185.9z"/>
										<path id="Stroke-25" style="fill:none;stroke:#0059FF;stroke-width:0.594;" d="M-158.2,185.2l44.5,174.2
											c5.7,29.7,34.3,49.1,64,43.4l174.4-44.5c29.7-5.7,49.2-34.3,43.5-63.9l-44.5-174.2c-5.7-29.7-34.3-49.1-64-43.4
											l-174.4,44.5C-144.4,126.9-163.9,155.6-158.2,185.2z"/>
										<path id="Stroke-27" style="fill:none;stroke:#0059FF;stroke-width:0.602;" d="M-156.2,184.7l48.3,170.9
											c6.1,29.1,34.7,47.7,63.8,41.6l171.1-48.2c29.1-6.1,47.7-34.7,41.6-63.8l-48.3-170.9c-6.1-29.1-34.7-47.7-63.8-41.6
											l-171.1,48.2C-143.7,127-162.3,155.6-156.2,184.7z"/>
										<path id="Stroke-29" style="fill:none;stroke:#0059FF;stroke-width:0.609;" d="M-154.1,184.2l52,167.5
											c6.6,28.5,35.1,46.3,63.7,39.7l167.7-51.9c28.5-6.6,46.3-35.1,39.7-63.6l-52-167.5c-6.6-28.5-35.1-46.3-63.7-39.7
											l-167.7,51.9C-142.9,127.2-160.7,155.7-154.1,184.2z"/>
										<path id="Stroke-31" style="fill:none;stroke:#0059FF;stroke-width:0.617;" d="M-151.9,183.9l55.7,164.2
											c7.1,27.9,35.5,44.9,63.5,37.8l164.4-55.6c28-7.1,44.9-35.5,37.8-63.4l-55.7-164.2c-7.1-27.9-35.5-44.9-63.5-37.8
											L-114,120.5C-142,127.6-158.9,156-151.9,183.9z"/>
										<path id="Stroke-33" style="fill:none;stroke:#0059FF;stroke-width:0.625;" d="M-149.5,183.7l59.4,160.8
											c7.6,27.4,35.9,43.4,63.3,35.9l161-59.3c27.4-7.5,43.5-35.8,35.9-63.2L110.7,97.1c-7.6-27.4-35.9-43.4-63.3-35.9
											l-161,59.3C-141,128-157.1,156.3-149.5,183.7z"/>
										<path id="Stroke-35" style="fill:none;stroke:#0059FF;stroke-width:0.633;" d="M-147.1,183.6L-84,341
											c8,26.8,36.3,42,63.1,34l157.6-63c26.8-8,42.1-36.2,34.1-63L107.7,91.5c-8-26.8-36.3-42-63.1-34l-157.6,63
											C-139.9,128.6-155.1,156.8-147.1,183.6z"/>
										<path id="Stroke-37" style="fill:none;stroke:#0059FF;stroke-width:0.641;" d="M-144.6,183.6l66.8,154.1
											c8.5,26.2,36.7,40.6,62.9,32.1l154.3-66.7c26.3-8.5,40.7-36.6,32.2-62.9L104.8,86.1C96.3,59.9,68.2,45.5,41.9,54
											l-154.3,66.7C-138.7,129.2-153.1,157.3-144.6,183.6z"/>
										<path id="Stroke-39" style="fill:none;stroke:#0059FF;stroke-width:0.648;" d="M-142,183.6l70.5,150.8
											c9,25.7,37.1,39.2,62.8,30.2l150.9-70.4c25.7-9,39.2-37,30.3-62.7L102,80.7c-9-25.7-37.1-39.2-62.8-30.2L-111.7,121
											C-137.4,129.9-150.9,158-142,183.6z"/>
										<path id="Stroke-41" style="fill:none;stroke:#0059FF;stroke-width:0.656;" d="M-139.3,183.8l74.2,147.4
											c9.4,25.1,37.5,37.8,62.6,28.4l147.6-74.2c25.1-9.4,37.8-37.4,28.4-62.5L99.3,75.5c-9.4-25.1-37.5-37.8-62.6-28.4
											l-147.6,74.2C-136,130.7-148.7,158.7-139.3,183.8z"/>
										<path id="Stroke-43" style="fill:none;stroke:#0059FF;stroke-width:0.664;" d="M-136.6,184l78,144.1
											c9.9,24.5,37.9,36.4,62.4,26.5L148,276.6c24.6-9.9,36.4-37.8,26.5-62.3l-78-144.1c-9.9-24.5-37.9-36.4-62.4-26.5
											l-144.2,77.9C-134.6,131.5-146.5,159.4-136.6,184z"/>
										<path id="Stroke-45" style="fill:none;stroke:#0059FF;stroke-width:0.672;" d="M-133.8,184.2l81.7,140.7
											c10.4,23.9,38.2,35,62.2,24.6L151,267.9c24-10.4,35-38.2,24.6-62.1L93.9,65.1c-10.4-24-38.2-35-62.2-24.6l-140.9,81.6
											C-133.2,132.4-144.2,160.3-133.8,184.2z"/>
										<path id="Stroke-47" style="fill:none;stroke:#0059FF;stroke-width:0.68;" d="M-131,184.5l85.4,137.4
											c10.9,23.4,38.6,33.5,62,22.7l137.5-85.3c23.4-10.8,33.6-38.6,22.7-62L91.3,59.9c-10.9-23.4-38.6-33.5-62-22.7
											l-137.5,85.3C-131.7,133.4-141.9,161.1-131,184.5z"/>
										<path id="Stroke-49" style="fill:none;stroke:#0059FF;stroke-width:0.688;" d="M-128.2,184.8l89.1,134
											c11.3,22.8,39,32.1,61.9,20.8l134.2-89c22.8-11.3,32.2-39,20.8-61.8l-89.1-134C77.4,32,49.7,22.7,26.8,34l-134.2,89
											C-130.2,134.3-139.5,162-128.2,184.8z"/>
										<path id="Stroke-51" style="fill:none;stroke:#0059FF;stroke-width:0.695;" d="M-125.3,185.1l92.8,130.7
											c11.8,22.2,39.4,30.7,61.7,18.9L160,242c22.3-11.8,30.8-39.4,19-61.6L86.1,49.8C74.3,27.5,46.7,19.1,24.4,30.8
											l-130.8,92.7C-128.7,135.3-137.1,162.9-125.3,185.1z"/>
										<path id="Stroke-53" style="fill:none;stroke:#0059FF;stroke-width:0.703;" d="M-122.5,185.5L-26,312.8
											c12.3,21.7,39.8,29.3,61.5,17L163,233.4c21.7-12.3,29.3-39.8,17.1-61.4L83.5,44.7C71.3,23,43.7,15.4,22,27.7l-127.5,96.4
											C-127.1,136.3-134.8,163.8-122.5,185.5z"/>
										<path id="Stroke-55" style="fill:none;stroke:#0059FF;stroke-width:0.711;" d="M-119.7,185.8l100.2,124
											c12.7,21.1,40.2,27.9,61.3,15.2L166,224.8c21.1-12.7,27.9-40.2,15.2-61.3L80.9,39.6C68.2,18.5,40.7,11.8,19.6,24.5
											l-124.1,100.1C-125.6,137.3-132.4,164.7-119.7,185.8z"/>
										<path id="Stroke-57" style="fill:none;stroke:#0059FF;stroke-width:0.719;" d="M-116.8,186.2l103.9,120.6
											c13.2,20.5,40.6,26.5,61.1,13.3L169,216.2c20.6-13.2,26.5-40.5,13.3-61.1L78.3,34.6C65.1,14,37.7,8.1,17.2,21.3
											l-120.7,103.8C-124.1,138.3-130.1,165.7-116.8,186.2z"/>
										<path id="Stroke-59" style="fill:none;stroke:#0059FF;stroke-width:0.727;" d="M-114,186.5L-6.4,303.8
											c13.7,20,41,25.1,61,11.4L172,207.6c20-13.7,25.1-40.9,11.4-60.9L75.7,29.5c-13.7-20-41-25.1-61-11.4l-117.4,107.5
											C-122.6,139.3-127.7,166.5-114,186.5z"/>
										<path id="Stroke-61" style="fill:none;stroke:#0059FF;stroke-width:0.734;" d="M-111.3,186.8L0.1,300.7
											c14.2,19.4,41.4,23.6,60.8,9.5l114-111.2c19.4-14.1,23.7-41.3,9.5-60.7L73,24.3C58.9,5,31.7,0.7,12.3,14.8l-114,111.2
											C-121.2,140.2-125.4,167.4-111.3,186.8z"/>
										<path id="Stroke-63" style="fill:none;stroke:#0059FF;stroke-width:0.742;" d="M-108.6,187.1L6.5,297.6
											c14.6,18.8,41.8,22.2,60.6,7.6l110.7-114.9c18.8-14.6,22.3-41.7,7.6-60.5L70.3,19.2C55.7,0.4,28.6-3,9.7,11.6L-101,126.5
											C-119.8,141.1-123.2,168.2-108.6,187.1z"/>
										<path id="Stroke-65" style="fill:none;stroke:#0059FF;stroke-width:0.75;" d="M-105.9,187.3L12.9,294.5
											c15.1,18.2,42.2,20.8,60.4,5.7l107.3-118.7c18.3-15.1,20.8-42.1,5.7-60.4L67.6,14C52.5-4.3,25.4-6.8,7.1,8.2l-107.3,118.7
											C-118.5,142-121,169-105.9,187.3z"/>
										<path id="Stroke-67" style="fill:none;stroke:#0059FF;stroke-width:0.758;" d="M-103.3,187.4L19.2,291.3
											c15.6,17.7,42.6,19.4,60.3,3.8l104-122.4c17.7-15.6,19.4-42.5,3.8-60.2L64.7,8.7C49.2-9,22.2-10.7,4.5,4.9l-104,122.4
											C-117.2,142.8-118.9,169.7-103.3,187.4z"/>
										<path id="Stroke-69" style="fill:none;stroke:#0059FF;stroke-width:0.766;" d="M-100.8,187.5L25.4,288
											c16,17.1,42.9,18,60.1,2l100.6-126.1c17.1-16,18-42.9,2-60L61.8,3.4c-16-17.1-42.9-18-60.1-2L-98.9,127.5
											C-116,143.5-116.9,170.4-100.8,187.5z"/>
										<path id="Stroke-71" style="fill:none;stroke:#0059FF;stroke-width:0.773;" d="M-98.4,187.5l129.9,97.2
											c16.5,16.5,43.3,16.6,59.9,0.1l97.3-129.8c16.6-16.5,16.6-43.3,0.1-59.8L58.8-2.1C42.3-18.6,15.5-18.6-1.1-2.1
											l-97.3,129.8C-114.9,144.2-114.9,170.9-98.4,187.5z"/>
										<path id="Stroke-73" style="fill:none;stroke:#0059FF;stroke-width:0.781;" d="M-96.1,187.4l133.6,93.8
											c17,16,43.7,15.2,59.7-1.8l93.9-133.5c16-17,15.2-43.7-1.8-59.6L55.7-7.6C38.7-23.5,12-22.7-4-5.7l-93.9,133.5
											C-113.9,144.7-113.1,171.4-96.1,187.4z"/>
										<path id="Stroke-75" style="fill:none;stroke:#0059FF;stroke-width:0.789;" d="M-93.9,187.2l137.4,90.5
											c17.5,15.4,44.1,13.7,59.5-3.7l90.6-137.2c15.4-17.4,13.8-44.1-3.7-59.5L52.5-13.2C35-28.6,8.4-26.9-7.1-9.5l-90.6,137.2
											C-113,145.2-111.4,171.8-93.9,187.2z"/>
										<path id="Stroke-77" style="fill:none;stroke:#0059FF;stroke-width:0.797;" d="M-91.8,186.9L49.2,274
											c17.9,14.8,44.5,12.3,59.4-5.6l87.2-140.9c14.8-17.9,12.3-44.5-5.6-59.3L49.1-18.9C31.2-33.7,4.6-31.2-10.2-13.3
											l-87.2,140.9C-112.3,145.5-109.8,172.1-91.8,186.9z"/>
										<path id="Stroke-79" style="fill:none;stroke:#0059FF;stroke-width:0.805;" d="M-89.9,186.5l144.8,83.8
											c18.4,14.3,44.9,10.9,59.2-7.5l83.9-144.6c14.3-18.4,10.9-44.8-7.5-59.1L45.7-24.7C27.3-39,0.8-35.6-13.5-17.2
											l-83.9,144.6C-111.6,145.8-108.3,172.2-89.9,186.5z"/>
										<path id="Stroke-81" style="fill:none;stroke:#0059FF;stroke-width:0.813;" d="M-88,185.9l148.5,80.4
											c18.9,13.7,45.3,9.5,59-9.4l80.5-148.3c13.7-18.9,9.5-45.2-9.4-58.9L42.1-30.7c-18.9-13.7-45.3-9.5-59,9.4L-97.4,127
											C-111.1,145.9-106.9,172.3-88,185.9z"/>
										<path id="Stroke-83" style="fill:none;stroke:#0059FF;stroke-width:0.82;" d="M-86.4,185.3l152.2,77.1
											c19.4,13.1,45.7,8.1,58.8-11.3l77.1-152c13.1-19.3,8.1-45.6-11.3-58.8L38.3-36.8C19-49.9-7.4-44.8-20.5-25.5l-77.1,152
											C-110.8,145.9-105.7,172.2-86.4,185.3z"/>
										<path id="Stroke-85" style="fill:none;stroke:#0059FF;stroke-width:0.828;" d="M-84.9,184.4L71,258.1
											c19.8,12.5,46.1,6.7,58.6-13.1l73.8-155.7c12.6-19.8,6.7-46-13.2-58.6L34.4-43c-19.8-12.5-46.1-6.7-58.6,13.1L-98,125.9
											C-110.6,145.7-104.7,171.9-84.9,184.4z"/>
										<path id="Stroke-87" style="fill:none;stroke:#0059FF;stroke-width:0.836;" d="M-83.5,183.5l159.6,70.4
											c20.3,12,46.5,5.2,58.5-15L205,79.3c12-20.3,5.3-46.4-15-58.4L30.3-49.4c-20.3-12-46.5-5.2-58.5,15l-70.4,159.4
											C-110.6,145.3-103.8,171.5-83.5,183.5z"/>
										<path id="Stroke-89" style="fill:none;stroke:#0059FF;stroke-width:0.844;" d="M-82.4,182.3l163.3,67
											c20.8,11.4,46.9,3.8,58.3-16.9l67.1-163.1c11.4-20.7,3.8-46.8-16.9-58.2L26-56C5.3-67.4-20.8-59.8-32.2-39.1l-67.1,163.1
											C-110.7,144.8-103.2,170.9-82.4,182.3z"/>
										<path id="Stroke-91" style="fill:none;stroke:#0059FF;stroke-width:0.852;" d="M-81.4,181l167,63.7
											c21.2,10.8,47.3,2.4,58.1-18.8L207.4,59c10.8-21.2,2.4-47.2-18.8-58l-167-63.7C0.3-73.6-25.7-65.1-36.5-43.9l-63.7,166.9
											C-111.1,144.2-102.7,170.1-81.4,181z"/>
										<path id="Stroke-93" style="fill:none;stroke:#0059FF;stroke-width:0.859;" d="M-80.7,179.4l170.8,60.3
											c21.7,10.3,47.6,1,57.9-20.7l60.4-170.6c10.3-21.7,1-47.6-20.7-57.9L16.9-69.7C-4.8-79.9-30.7-70.7-41-49l-60.4,170.6
											C-111.7,143.3-102.4,169.2-80.7,179.4z"/>
										<path id="Stroke-95" style="fill:none;stroke:#0059FF;stroke-width:0.867;" d="M-80.1,177.7l174.5,57
											c22.2,9.7,48-0.4,57.7-22.6l57-174.3c9.7-22.2-0.4-48-22.6-57.7L12-76.8c-22.2-9.7-48,0.4-57.7,22.6l-57,174.3
											C-112.4,142.2-102.3,168-80.1,177.7z"/>
										<path id="Stroke-97" style="fill:none;stroke:#0059FF;stroke-width:0.875;" d="M-79.8,175.8l178.2,53.6
											c22.7,9.1,48.4-1.8,57.6-24.5l53.7-178c9.1-22.6-1.8-48.4-24.5-57.5L6.9-84.1c-22.7-9.1-48.4,1.8-57.6,24.5l-53.7,178
											C-113.5,140.9-102.5,166.7-79.8,175.8z"/>
										<path id="Stroke-99" style="fill:none;stroke:#0059FF;stroke-width:0.883;" d="M-79.7,173.7l181.9,50.3
											c23.1,8.6,48.8-3.2,57.4-26.3l50.3-181.7c8.6-23.1-3.2-48.8-26.4-57.3L1.6-91.7c-23.1-8.6-48.8,3.2-57.4,26.3l-50.3,181.7
											C-114.7,139.4-102.9,165.1-79.7,173.7z"/>
										<path id="Stroke-101" style="fill:none;stroke:#0059FF;stroke-width:0.891;" d="M-79.9,171.3l185.6,46.9
											c23.6,8,49.2-4.7,57.2-28.2l47-185.4c8-23.6-4.7-49.2-28.3-57.1L-4-99.5c-23.6-8-49.2,4.7-57.2,28.2l-47,185.4
											C-116.2,137.7-103.5,163.3-79.9,171.3z"/>
										<path id="Stroke-103" style="fill:none;stroke:#0059FF;stroke-width:0.898;" d="M-80.3,168.7L109,212.2
											c24.1,7.4,49.6-6.1,57-30.1L209.6-7c7.4-24-6.1-49.5-30.1-57L-9.8-107.5c-24.1-7.4-49.6,6.1-57,30.1l-43.6,189.1
											C-117.9,135.8-104.4,161.3-80.3,168.7z"/>
										<path id="Stroke-105" style="fill:none;stroke:#0059FF;stroke-width:0.906;" d="M-81,165.8L112,206
											c24.5,6.8,50-7.5,56.8-32l40.3-192.8c6.9-24.5-7.5-49.9-32-56.8l-193-40.2c-24.5-6.8-50,7.5-56.9,32L-113,109.1
											C-119.9,133.6-105.5,159-81,165.8z"/>
										<path id="Stroke-107" style="fill:none;stroke:#0059FF;stroke-width:0.914;" d="M-82,162.7l196.7,36.9
											c25,6.3,50.4-8.9,56.7-33.9l36.9-196.5c6.3-25-8.9-50.3-33.9-56.6l-196.7-36.8c-25-6.3-50.4,8.9-56.7,33.9l-36.9,196.5
											C-122.2,131.1-107,156.5-82,162.7z"/>
										<path id="Stroke-109" style="fill:none;stroke:#0059FF;stroke-width:0.922;" d="M-83.2,159.3l200.5,33.5
											c25.5,5.7,50.8-10.3,56.5-35.8l33.5-200.2c5.7-25.5-10.3-50.7-35.8-56.4L-29-133.1c-25.5-5.7-50.8,10.3-56.5,35.8
											L-119,102.9C-124.7,128.4-108.7,153.6-83.2,159.3z"/>
										<path id="Stroke-111" style="fill:none;stroke:#0059FF;stroke-width:0.93;" d="M-84.7,155.7l204.2,30.2
											c26,5.1,51.2-11.7,56.3-37.7l30.2-203.9c5.1-25.9-11.7-51.1-37.7-56.2l-204.2-30.2c-26-5.1-51.2,11.7-56.3,37.7
											l-30.2,203.9C-127.6,125.4-110.7,150.6-84.7,155.7z"/>
										<path id="Stroke-113" style="fill:none;stroke:#0059FF;stroke-width:0.938;" d="M-86.6,151.8l207.9,26.8
											c26.4,4.6,51.6-13.1,56.1-39.5l26.8-207.6c4.6-26.4-13.2-51.5-39.6-56.1l-207.9-26.8c-26.4-4.6-51.6,13.1-56.1,39.5
											l-26.8,207.6C-130.7,122.1-113,147.2-86.6,151.8z"/>
										<path id="Stroke-115" style="fill:none;stroke:#0059FF;stroke-width:0.945;" d="M-88.7,147.5L122.9,171
											c26.9,4,52-14.6,56-41.4l23.5-211.3c4-26.9-14.6-51.9-41.5-55.9l-211.6-23.5c-26.9-4-52,14.6-56,41.4l-23.5,211.3
											C-134.2,118.5-115.6,143.5-88.7,147.5z"/>
										<path id="Stroke-117" style="fill:none;stroke:#0059FF;stroke-width:0.953;" d="M-91.2,143l215.3,20.1
											c27.4,3.4,52.3-16,55.8-43.3L200-95.3c3.4-27.3-16-52.3-43.4-55.7l-215.3-20.1c-27.4-3.4-52.3,16-55.8,43.3l-20.1,215.1
											C-138,114.6-118.6,139.5-91.2,143z"/>
										<path id="Stroke-119" style="fill:none;stroke:#0059FF;stroke-width:0.961;" d="M-94,138.1l219,16.7
											c27.9,2.9,52.7-17.4,55.6-45.2l16.8-218.8c2.9-27.8-17.4-52.7-45.3-55.5l-219-16.7c-27.9-2.9-52.7,17.4-55.6,45.2
											l-16.8,218.8C-142.2,110.4-121.9,135.3-94,138.1z"/>
										<path id="Stroke-121" style="fill:none;stroke:#0059FF;stroke-width:0.969;" d="M-97.2,132.9l222.7,13.4
											c28.3,2.3,53.1-18.8,55.4-47.1l13.4-222.5c2.3-28.3-18.8-53.1-47.1-55.4L-75.5-192c-28.3-2.3-53.1,18.8-55.4,47.1
											l-13.4,222.5C-146.6,105.9-125.5,130.6-97.2,132.9z"/>
										<path id="Stroke-123" style="fill:none;stroke:#0059FF;stroke-width:0.977;" d="M-100.7,127.4l226.4,10
											c28.8,1.7,53.5-20.2,55.2-49L191-137.7c1.7-28.8-20.2-53.5-49-55.2l-226.4-10.1c-28.8-1.7-53.5,20.2-55.2,49l-10.1,226.2
											C-151.5,101-129.5,125.7-100.7,127.4z"/>
										<path id="Stroke-125" style="fill:none;stroke:#0059FF;stroke-width:0.984;" d="M-104.6,121.5l230.2,6.7
											c29.3,1.1,53.9-21.6,55.1-50.9l6.7-229.9c1.1-29.2-21.7-53.9-50.9-55l-230.2-6.7c-29.3-1.1-53.9,21.6-55.1,50.9
											l-6.7,229.9C-156.7,95.8-133.9,120.4-104.6,121.5z"/>
										<path id="Stroke-127" style="fill:none;stroke:#0059FF;stroke-width:0.992;" d="M-108.9,115.3l233.9,3.3
											c29.7,0.6,54.3-23,54.9-52.7l3.4-233.6c0.6-29.7-23.1-54.2-52.8-54.8l-233.9-3.3c-29.7-0.6-54.3,23-54.9,52.7l-3.4,233.6
											C-162.3,90.2-138.6,114.7-108.9,115.3z"/>
										<path id="Stroke-129" style="fill:none;stroke:#0059FF;" d="M-168.3-183.2V54.1c0,30.2,24.5,54.6,54.7,54.6H124
											c30.2,0,54.7-24.5,54.7-54.6v-237.3c0-30.2-24.5-54.6-54.7-54.6h-237.6C-143.8-237.9-168.3-213.4-168.3-183.2z"/>
									</g>
									<g id="Group-134" transform="translate(0.962598, 0.000000)">
										<g id="Clip-133">
										</g>
										<defs>
											
												<filter id="Adobe_OpacityMaskFilter_1_" filterUnits="userSpaceOnUse" x="-169" y="-237.5" width="346.8" height="346.2">
												<feColorMatrix  type="matrix" values="1 0 0 0 0  0 1 0 0 0  0 0 1 0 0  0 0 0 1 0"/>
											</filter>
										</defs>
										<mask maskUnits="userSpaceOnUse" x="-169" y="-237.5" width="346.8" height="346.2" id="mask-4">
											<g style="filter:url(#Adobe_OpacityMaskFilter_1_);">
												<polygon id="path-3" style="fill:#FFFFFF;" points="-169,-237.5 177.8,-237.5 177.8,108.7 -169,108.7 												"/>
											</g>
										</mask>
										<path id="Fill-132" style="mask:url(#mask-4);fill:#0059FF;" d="M-169-182.9V54.2c0,30.1,24.5,54.6,54.7,54.6h237.4
											c30.2,0,54.7-24.4,54.7-54.6v-237.1c0-30.1-24.5-54.6-54.7-54.6h-237.4C-144.5-237.5-169-213-169-182.9"/>
									</g>
									<path id="Fill-135" style="fill:#FFFFFF;" d="M5.6,23.9c-26.7,0-35.3-3.4-47.1-13.8c6.1,1.6,12.5,2.4,19.1,2.4
										c42,0,76.2-34.1,76.2-76.1c0-41.9-34.2-76.1-76.2-76.1c-6.6,0-13,0.9-19,2.4c12-9.6,20.4-13.8,47.1-13.8
										c48.3,0,87.6,39.2,87.6,87.4C93.1-15.3,53.8,23.9,5.6,23.9 M-67.5-20.7c5.8,2.4,12,3.6,18.8,3.6c13.1,0,24.5-4.5,33.7-13.7
										C-5.8-40-1.2-51.1-1.2-64.4C-1.2-77.7-5.8-88.8-15-98c-9.2-9.2-20.5-13.7-33.7-13.7c-5.7,0-11,0.9-16,2.6
										c8.1-9.8,16.5-16.6,42.1-16.6c34.3,0,62.2,27.9,62.2,62.1S11.8-1.4-22.5-1.4C-49.5-1.4-57.9-7.7-67.5-20.7 M-48.7-96.9
										c9.1,0,16.8,3.1,23,9.3c6.2,6.2,9.3,13.9,9.3,23.2c0,9.3-3.1,17-9.3,23.2c-6.2,6.2-13.9,9.3-23,9.3c-9,0-16.6-3.1-22.9-9.3
										c-6.2-6.2-9.3-13.9-9.3-23.2c0-9.3,3.1-17,9.3-23.2C-65.3-93.8-57.6-96.9-48.7-96.9 M5.6-164.9
										c-55.3,0-100.4,44.4-101.5,99.3c0,0.4-0.1,0.8-0.1,1.2c0,0.1,0,0.2,0,0.3c0,0.2,0,0.4,0,0.5C-96-7.6-50.4,37.9,5.6,37.9
										c56,0,101.6-45.5,101.6-101.4C107.1-119.4,61.5-164.9,5.6-164.9"/>
								</g>
							</g>
						</g>
					</g>
				</g>
			</g>
		</g>
	</g>
</g>
</svg>
