<?xml version="1.0" encoding="utf-8"?>
<!-- Generator: Adobe Illustrator 21.0.0, SVG Export Plug-In . SVG Version: 6.00 Build 0)  -->
<svg version="1.1" id="Layer_1" xmlns="http://www.w3.org/2000/svg" xmlns:xlink="http://www.w3.org/1999/xlink" x="0px" y="0px"
	 width="36.9px" height="36.9px" viewBox="0 0 36.9 36.9" style="enable-background:new 0 0 36.9 36.9;" xml:space="preserve">
<title>Icon/OS-MacOS</title>
<desc>Created with Sketch.</desc>
<g id="Main-page">
	<g id="XL_x2265_1200" transform="translate(0.000000, -2416.000000)">
		<g id="Group-7-_x5B_0v_x5D_">
			<g id="Group-5-_x5B_m_x5D_" transform="translate(0.000000, 2052.000000)">
				<g id="Group-16">
					<g id="Group-3-_x5B_48v_x5D_" transform="translate(59.000000, 80.000000)">
						<g id="Group-16-_x5B_30h_x5D_" transform="translate(0.000000, 192.000000)">
							<g id="Group-16-_x5B_24v_x5D_">
								<g id="Group-3" transform="translate(0.000000, 192.000000)">
									<g id="Icon_x2F_os-walletweb">
										<g id="Group-13" transform="translate(2.000000, 2.000000)">
											<path id="Stroke-1" style="fill:none;stroke:#C1C9D4;" d="M-24.6-83.6c0,9.9-8,17.9-17.9,17.9c-9.9,0-17.9-8-17.9-17.9
												s8-17.9,17.9-17.9C-32.7-101.5-24.6-93.5-24.6-83.6z"/>
											<path id="Stroke-3" style="fill:none;stroke:#C1C9D4;" d="M-33.7-83.6c0,9.9-4,17.9-8.9,17.9s-8.9-8-8.9-17.9
												s4-17.9,8.9-17.9S-33.7-93.5-33.7-83.6z"/>
											<path id="Stroke-5" style="fill:none;stroke:#C1C9D4;" d="M-29.2-95.5c-3.3,1.8-8.1,3-13.4,3s-10.1-1.1-13.4-3"/>
											<path id="Stroke-7" style="fill:none;stroke:#C1C9D4;" d="M-56.1-71.8c3.3-1.9,8.1-3,13.5-3c5.4,0,10.2,1.2,13.5,3"/>
											<path id="Stroke-9" style="fill:none;stroke:#C1C9D4;" d="M-60.5-83.6h35.9"/>
											<path id="Stroke-11" style="fill:none;stroke:#C1C9D4;" d="M-42.6-101.5v35.9"/>
										</g>
									</g>
								</g>
							</g>
						</g>
					</g>
				</g>
			</g>
		</g>
	</g>
</g>
</svg>
