<?xml version="1.0" encoding="UTF-8"?>
<svg width="38px" height="38px" viewBox="0 0 38 38" version="1.1" xmlns="http://www.w3.org/2000/svg" xmlns:xlink="http://www.w3.org/1999/xlink">
    <!-- Generator: Sketch 52.2 (67145) - http://www.bohemiancoding.com/sketch -->
    <title>Page 1</title>
    <desc>Created with Sketch.</desc>
    <g id="Symbols" stroke="none" stroke-width="1" fill="none" fill-rule="evenodd">
        <g id="Icon/OS-Windows" transform="translate(-1.000000, -1.000000)" stroke="#C1C9D4">
            <g id="Page-1" transform="translate(2.000000, 2.000000)">
                <path d="M17,3.02180278 L17,16.7067761 C17,16.8685856 17.1291023,17 17.2880651,17 L35.7119349,17 C35.8717759,17 36,16.8685856 36,16.7067761 L36,0.293390279 C36,0.207568654 35.9639919,0.12711088 35.9007581,0.0716844137 C35.8375243,0.0153639722 35.7540908,-0.00877335995 35.6706573,0.00284831847 L17.2467875,2.7321548 C17.1045114,2.75271623 17,2.87608481 17,3.02180278" id="Fill-1"></path>
                <path d="M14.6996704,33 C14.7720059,33 14.8425101,32.9750811 14.8974484,32.927913 C14.9624588,32.8727354 15,32.7926387 15,32.7080923 L15,19.2919077 C15,19.1308245 14.865401,19 14.6996704,19 L0.30032963,19 C0.220669027,19 0.14467098,19.0311487 0.0879013551,19.0854364 C0.0320473691,19.1406141 0,19.214481 0,19.2919077 L0.000915639116,30.7902231 C0.000915639116,30.936177 0.111707972,31.0598818 0.260041509,31.0794609 L14.6584666,32.9973301 C14.6722012,32.99911 14.6859358,33 14.6996704,33" id="Fill-3"></path>
                <path d="M0.312938449,17 L14.7007869,17 C14.8664064,17 15,16.8679334 15,16.7053209 L15,3.2947259 C15,3.20937677 14.962484,3.12851969 14.8975172,3.07281815 C14.8325505,3.01711661 14.7465382,2.99106267 14.6605258,3.00274202 L0.259867016,4.92264833 C0.110717989,4.94331181 0,5.06819106 0,5.21553062 L0.0128103459,16.7053209 C0.0128103459,16.8679334 0.147318978,17 0.312938449,17" id="Fill-5"></path>
                <path d="M35.7076113,36 C35.7769768,36 35.8437081,35.9749684 35.8963908,35.9284813 C35.95961,35.8721603 35.9956098,35.7917017 35.9956098,35.7067732 L36,19.2923328 C36,19.2154501 35.9701465,19.1403555 35.9157077,19.0858225 C35.862147,19.0303955 35.7883913,19 35.7120015,19 L17.2871205,19 C17.1281945,19 17,19.1305217 17,19.2923328 L17,33.0686264 C17,33.2143458 17.1053653,33.3386096 17.2476085,33.3582772 L35.6672212,35.997318 C35.6812699,35.999106 35.6944406,36 35.7076113,36" id="Fill-7"></path>
            </g>
        </g>
    </g>
</svg>