<svg width="33" height="32" viewBox="0 0 33 32" fill="none" xmlns="http://www.w3.org/2000/svg">
<path fill-rule="evenodd" clip-rule="evenodd" d="M21.0518 4.00436H20.9857L20.5426 4.44231C25.1126 5.74963 27.3215 7.79231 27.3215 7.79231C24.3785 6.33465 21.7198 5.60909 19.0677 5.31494C17.1498 5.0208 15.2318 5.17114 13.6115 5.31494H13.175C12.1433 5.31494 9.93433 5.7529 6.98465 6.91641C5.95293 7.35436 5.36432 7.64524 5.36432 7.64524C5.36432 7.64524 7.57327 5.46202 12.4409 4.29524L12.1433 4.00109C12.1433 4.00109 8.45618 3.86055 4.47809 6.77261C4.47809 6.77261 0.5 13.6197 0.5 22.0682C0.5 22.0682 2.70895 25.8529 8.75049 26C8.75049 26 9.63672 24.8365 10.5196 23.8168C7.13015 22.7971 5.80412 20.7577 5.80412 20.7577C5.80412 20.7577 6.10174 20.9015 6.54154 21.1923H6.67381C6.73995 21.1923 6.77302 21.225 6.80609 21.2577V21.274C6.83915 21.3067 6.87222 21.3394 6.93836 21.3394C7.66586 21.6336 8.39335 21.9212 8.98858 22.212C10.0137 22.65 11.3364 23.0879 12.9568 23.3788C15.007 23.673 17.3548 23.8168 20.0333 23.3788C21.3561 23.0847 22.6788 22.7971 24.0015 22.212C24.8613 21.7774 25.9194 21.3394 27.0768 20.6106C27.0768 20.6106 25.7541 22.65 22.2158 23.6697C22.9433 24.6894 23.9684 25.8529 23.9684 25.8529C30.0199 25.7222 32.3677 21.931 32.5 22.0944C32.5 13.6622 28.4988 6.79875 28.4988 6.79875C24.8943 4.15143 21.5214 4.05338 20.9262 4.05338L21.0518 4.00436ZM21.4982 12C23.1568 12 24.5 13.3468 24.5 14.9966C24.5 16.6566 23.1533 18 21.4982 18C19.8432 18 18.5 16.6532 18.5 15.0034C18.5 13.3434 19.8467 12 21.4982 12ZM11.5018 12C13.1568 12 14.5 13.3468 14.5 14.9966C14.5 16.6566 13.1533 18 11.5018 18C9.84318 18 8.5 16.6532 8.5 15.0034C8.5 13.3434 9.84672 12 11.5018 12Z" fill="white"/>
</svg>
