<svg width="200" height="40" viewBox="0 0 200 40" fill="none" xmlns="http://www.w3.org/2000/svg">
<path fill-rule="evenodd" clip-rule="evenodd" d="M10.997 34.7142C13.4764 36.3128 14.9114 37.238 19.9468 37.238C29.43 37.238 37.1458 29.5037 37.1458 19.9965C37.1458 10.4894 29.43 2.75506 19.9468 2.75506C14.9126 2.75506 13.4777 3.68003 10.9985 5.27819C10.8987 5.34256 10.7971 5.40802 10.6936 5.47456C11.8906 5.16444 13.1433 4.99506 14.4355 4.99506C22.6867 4.99506 29.3995 11.7249 29.3995 19.9965C29.3995 28.2681 22.6867 34.998 14.4355 34.998C13.1429 34.998 11.8901 34.8286 10.6931 34.5185C10.795 34.584 10.895 34.6485 10.9933 34.7119L10.997 34.7142ZM9.29655 29.1452C7.96946 29.1452 6.73744 28.9067 5.6069 28.4331L5.72453 28.5569C7.8789 30.826 9.22424 32.243 14.4355 32.243C21.1714 32.243 26.6517 26.7491 26.6517 19.9965C26.6517 13.2435 21.1714 7.74962 14.4355 7.74962C9.73941 7.74962 7.75961 9.09827 6.15665 11.0163C7.13498 10.6825 8.18079 10.5062 9.29655 10.5062C11.8769 10.5062 14.1039 11.3916 15.9069 13.199C17.7099 15.0064 18.6286 17.2035 18.6286 19.8252C18.6286 22.4479 17.7099 24.6449 15.9069 26.4523C14.1039 28.2593 11.8769 29.1452 9.29655 29.1452ZM13.7507 15.3254C12.5483 14.1205 11.064 13.5185 9.29655 13.5185C7.56453 13.5185 6.0798 14.1205 4.87832 15.3254C3.67635 16.5299 3.07537 18.0183 3.07537 19.8252C3.07537 21.6326 3.67635 23.121 4.87832 24.3264C6.0798 25.5309 7.56453 26.1338 9.29655 26.1338C11.064 26.1338 12.5483 25.5309 13.7507 24.3264C14.9522 23.121 15.5537 21.6326 15.5537 19.8252C15.5537 18.0183 14.9522 16.5299 13.7507 15.3254ZM0.0103448 19.5817C0.23202 8.74765 9.0867 0.000488281 19.9468 0.000488281C30.9458 0.000488281 39.8941 8.97086 39.8941 19.9965C39.8941 31.0222 30.9458 39.9931 19.9468 39.9931C8.94828 39.9931 0 31.0222 0 19.9965C0 19.9784 0.000620036 19.9604 0.00123792 19.9423C0.00185155 19.9244 0.00246305 19.9066 0.00246305 19.8889C0.00246305 19.878 0.00184729 19.8675 0.00123153 19.857L0.0012312 19.857C0.000615548 19.8465 0 19.836 0 19.8252C0 19.7782 0.00268795 19.7326 0.00537648 19.687C0.00743343 19.6521 0.00949073 19.6173 0.0103448 19.5817ZM59.2235 14.4765C58.6703 14.275 58.0945 14.1728 57.5132 14.1728C56.8487 14.1728 56.2216 14.2804 55.6482 14.4918C55.0758 14.7032 54.5669 15.0044 54.1359 15.3856C53.7043 15.7683 53.3477 16.2227 53.0777 16.7353C52.8235 17.2162 52.6511 17.7427 52.5649 18.3017H62.2226C62.1713 17.7007 62.0171 17.1481 61.763 16.6572C61.4925 16.1353 61.1373 15.6869 60.7068 15.3259C60.2758 14.9644 59.7767 14.6785 59.2235 14.4765ZM60.8201 12.3802C61.7452 12.8493 62.5147 13.4365 63.1078 14.1249C63.7009 14.8133 64.1442 15.5753 64.4255 16.3891C64.7058 17.2024 64.8487 17.9644 64.8487 18.6533V20.7407H52.492C52.5703 22.1866 53.0368 23.3674 53.8797 24.2513C54.7403 25.1545 55.963 25.6133 57.5132 25.6133C58.2216 25.6133 58.8462 25.5313 59.3679 25.3698C59.8891 25.2093 60.3408 24.9856 60.7107 24.7051C61.0802 24.4256 61.3832 24.0957 61.6122 23.7264C61.8437 23.3535 62.0324 22.9486 62.1738 22.5244L62.2048 22.4315L64.6896 23.1046L64.658 23.2074C64.2216 24.6464 63.4038 25.8365 62.227 26.7446C61.0497 27.6533 59.4428 28.1135 57.4516 28.1135C56.3511 28.1135 55.324 27.9185 54.3984 27.5328C53.4718 27.1466 52.6644 26.5911 51.9984 25.8814C51.3329 25.1723 50.8058 24.317 50.4319 23.3382C50.0585 22.3599 49.8689 21.2632 49.8689 20.079V19.3357C49.8689 18.2523 50.0639 17.2281 50.4482 16.2908C50.8319 15.354 51.3758 14.5343 52.063 13.8553C52.7492 13.1782 53.5659 12.6395 54.491 12.2533C55.4162 11.8681 56.4329 11.6725 57.5132 11.6725C58.7797 11.6725 59.8925 11.9106 60.8201 12.3802ZM80.4773 21.5503C80.3961 22.0753 80.2379 22.5874 80.0074 23.0698C79.7764 23.5523 79.4611 23.9854 79.0709 24.3562C78.6798 24.7291 78.202 25.0343 77.6498 25.2649C77.099 25.496 76.4419 25.6135 75.6966 25.6135C74.9502 25.6135 74.2453 25.4851 73.602 25.2328C72.9586 24.9814 72.3882 24.619 71.9059 24.1548C71.4246 23.6935 71.0429 23.1167 70.7709 22.4412C70.4995 21.7646 70.3611 20.9903 70.3611 20.1409V19.7691C70.3611 18.9612 70.4995 18.2027 70.7714 17.5153C71.0434 16.8288 71.4256 16.2313 71.9079 15.737C72.3906 15.2436 72.9566 14.8545 73.5901 14.5829C74.2227 14.3113 74.9108 14.173 75.635 14.173C76.3803 14.173 77.0434 14.2851 77.6059 14.5064C78.168 14.7286 78.6507 15.0283 79.0399 15.3987C79.431 15.7715 79.7463 16.2096 79.9759 16.6999C80.2074 17.1953 80.3552 17.7108 80.4153 18.2318L80.4281 18.3478L83.0468 17.7414L83.0305 17.6451C82.8847 16.7903 82.6054 15.9874 82.2 15.257C81.7941 14.5271 81.2665 13.8866 80.631 13.3533C79.9951 12.8219 79.2512 12.4041 78.4197 12.1118C77.5877 11.8204 76.6714 11.6723 75.6966 11.6723C74.6172 11.6723 73.5808 11.8624 72.6153 12.2372C71.6493 12.6116 70.7901 13.1508 70.0626 13.8387C69.334 14.5276 68.7488 15.3834 68.3236 16.3824C67.8975 17.3824 67.6813 18.5217 67.6813 19.7691V20.1409C67.6813 21.4096 67.8975 22.5493 68.3241 23.5281C68.7493 24.5074 69.3345 25.3478 70.0631 26.0259C70.7906 26.7034 71.6498 27.2264 72.6168 27.5809C73.5833 27.935 74.6192 28.1138 75.6966 28.1138C76.7128 28.1138 77.6498 27.9661 78.4813 27.6743C79.3148 27.3819 80.0542 26.9636 80.6778 26.4318C81.303 25.899 81.8251 25.2585 82.231 24.5286C82.6355 23.8022 82.9251 22.9992 83.0916 22.1434L83.1108 22.0446L80.4946 21.4397L80.4773 21.5503ZM91.2981 12.5577C92.1661 11.9706 93.241 11.6723 94.4922 11.6723C96.1829 11.6723 97.5755 12.2407 98.6316 13.3622C99.6863 14.4827 100.221 16.1795 100.221 18.4061V27.6802H97.6026V18.9019C97.6026 17.3251 97.2479 16.1286 96.5469 15.3464C95.8503 14.5676 94.8888 14.1725 93.6893 14.1725C92.2656 14.1725 91.1331 14.6659 90.3228 15.6377C89.5085 16.616 89.0952 17.9434 89.0952 19.5839V27.6802H86.477V5.78587H89.0952V14.894H89.2976C89.776 13.9177 90.4484 13.1315 91.2981 12.5577ZM116.54 19.7072V20.079C116.54 20.9289 116.407 21.7032 116.146 22.3802C115.884 23.0553 115.517 23.6435 115.054 24.1274C114.593 24.6109 114.049 24.9827 113.437 25.2336C112.825 25.4854 112.147 25.6133 111.421 25.6133C110.696 25.6133 110.018 25.4854 109.406 25.2336C108.794 24.9827 108.25 24.6109 107.787 24.1274C107.325 23.6439 106.958 23.0558 106.698 22.3802C106.436 21.7042 106.303 20.9304 106.303 20.079V19.7072C106.303 18.8978 106.436 18.1442 106.698 17.4681C106.959 16.7916 107.326 16.2035 107.787 15.721C108.25 15.2375 108.8 14.8548 109.423 14.5827C110.045 14.3106 110.718 14.1728 111.421 14.1728C112.125 14.1728 112.797 14.3106 113.42 14.5827C114.043 14.8548 114.592 15.237 115.054 15.721C115.517 16.2039 115.884 16.7921 116.146 17.4676C116.407 18.1457 116.54 18.8988 116.54 19.7072ZM116.855 13.7768C116.139 13.0899 115.3 12.561 114.363 12.2059C113.429 11.8523 112.439 11.6721 111.421 11.6721C110.404 11.6721 109.415 11.8523 108.481 12.2059C107.544 12.5605 106.705 13.0894 105.988 13.7768C105.27 14.4657 104.69 15.3155 104.265 16.3047C103.839 17.2948 103.623 18.4395 103.623 19.7072V20.079C103.623 21.3679 103.839 22.5235 104.265 23.5121C104.69 24.5022 105.265 25.3476 105.973 26.0247C106.679 26.7022 107.512 27.2262 108.449 27.5807C109.385 27.9343 110.385 28.1136 111.421 28.1136C112.437 28.1136 113.432 27.9348 114.378 27.5807C115.325 27.2267 116.164 26.7027 116.871 26.0247C117.578 25.3472 118.151 24.5017 118.579 23.5121C119.004 22.5235 119.22 21.3679 119.22 20.079V19.7072C119.22 18.4395 119.004 17.2948 118.579 16.3042C118.151 15.3151 117.572 14.4652 116.855 13.7768ZM129.872 18.55C131.677 18.6961 133.073 19.1361 134.023 19.8566C134.983 20.5865 135.469 21.6616 135.469 23.0532V23.2389C135.469 23.9954 135.315 24.6833 135.01 25.2838C134.706 25.8843 134.28 26.4018 133.746 26.8216C133.212 27.2408 132.556 27.5643 131.794 27.7845C131.036 28.0028 130.199 28.1139 129.309 28.1139C128.106 28.1139 127.059 27.9505 126.197 27.627C125.333 27.3035 124.604 26.869 124.031 26.3356C123.456 25.8018 123.016 25.1855 122.723 24.5035C122.432 23.826 122.262 23.1317 122.221 22.4398L122.215 22.3534L124.704 21.746L124.714 21.8665C124.815 23.0112 125.26 23.9416 126.04 24.6324C126.82 25.3243 127.878 25.6749 129.185 25.6749C130.292 25.6749 131.194 25.4566 131.864 25.026C132.528 24.5984 132.851 24.0142 132.851 23.2389C132.851 22.4048 132.535 21.8265 131.886 21.4719C131.223 21.109 130.125 20.8734 128.622 20.7717C126.837 20.6468 125.447 20.2231 124.488 19.5124C123.517 18.7929 123.024 17.7327 123.024 16.3613V16.1752C123.024 15.4374 123.185 14.7791 123.501 14.2191C123.817 13.6606 124.248 13.185 124.783 12.8068C125.316 12.43 125.924 12.1435 126.592 11.9554C127.257 11.7677 127.963 11.6724 128.691 11.6724C129.707 11.6724 130.613 11.8152 131.384 12.0966C132.154 12.3781 132.809 12.7495 133.332 13.2003C133.855 13.6522 134.264 14.1796 134.548 14.7673C134.829 15.3519 135.014 15.9455 135.097 16.5327L135.111 16.626L132.617 17.2339L132.604 17.1154C132.505 16.1579 132.118 15.3998 131.453 14.8626C130.784 14.3228 129.896 14.0487 128.814 14.0487C128.392 14.0487 127.979 14.0947 127.586 14.1855C127.197 14.2759 126.848 14.4127 126.55 14.5919C126.256 14.7682 126.018 14.9919 125.841 15.2571C125.668 15.5174 125.58 15.8265 125.58 16.1752C125.58 16.8877 125.873 17.4166 126.474 17.791C127.085 18.1727 128.228 18.4275 129.872 18.55ZM143.421 5.78592H140.803V12.1059H135.982V14.5444H140.803V25.1597C140.803 25.8872 141.036 26.4956 141.497 26.9676C141.957 27.4407 142.56 27.6802 143.287 27.6802H148.612V25.2412H144.151C143.653 25.2412 143.421 24.9795 143.421 24.4165V14.5444H149.354V12.1059H143.421V5.78592ZM163.134 20.079V19.7072C163.134 18.8968 163.011 18.1427 162.769 17.4652C162.527 16.7886 162.185 16.2005 161.754 15.718C161.322 15.2356 160.804 14.8533 160.212 14.5817C159.621 14.3106 158.976 14.1728 158.293 14.1728C157.59 14.1728 156.939 14.3057 156.357 14.5669C155.776 14.8281 155.262 15.2 154.831 15.6726C154.4 16.1452 154.058 16.7274 153.817 17.4035C153.575 18.081 153.452 18.8351 153.452 19.6454V20.1407C153.452 21.8612 153.906 23.2188 154.8 24.1748C155.691 25.1289 156.866 25.6133 158.293 25.6133C158.997 25.6133 159.653 25.4805 160.245 25.2193C160.836 24.9585 161.349 24.5817 161.769 24.1002C162.191 23.6163 162.527 23.0286 162.769 22.3516C163.011 21.6751 163.134 20.9106 163.134 20.079ZM165.752 12.1057V24.4163C165.752 24.9797 165.984 25.2415 166.483 25.2415H167.359V27.6805H165.618C164.89 27.6805 164.288 27.4405 163.828 26.9674C163.368 26.4953 163.134 25.8874 163.134 25.16V25.0775H162.931C162.432 26.0958 161.736 26.8627 160.863 27.357C159.975 27.8593 159.027 28.1136 158.046 28.1136C157.028 28.1136 156.07 27.9397 155.196 27.5955C154.32 27.2509 153.544 26.7318 152.887 26.0528C152.232 25.3753 151.71 24.5343 151.336 23.5551C150.962 22.5773 150.772 21.4281 150.772 20.1407V19.6454C150.772 18.3797 150.962 17.241 151.336 16.2617C151.71 15.283 152.232 14.4425 152.887 13.7639C153.544 13.0854 154.32 12.5615 155.195 12.2069C156.069 11.8523 157.007 11.6721 157.984 11.6721C159.047 11.6721 160.025 11.9111 160.892 12.3817C161.746 12.8454 162.43 13.5654 162.93 14.5225H163.134V12.1057H165.752ZM176.383 19.4689L182.722 12.4659L182.749 12.4363V12.1059H179.633L173.792 18.4881H173.416V5.78592H170.798V27.6802H173.416V20.9262H173.856L180.346 27.6481L180.376 27.6802H183.491V27.3484L176.383 19.9444V19.4689ZM187.842 16.7354C187.588 17.2164 187.417 17.7428 187.33 18.3018H196.987C196.937 17.7008 196.782 17.1482 196.528 16.6574C196.257 16.1349 195.901 15.687 195.472 15.326C195.04 14.964 194.542 14.6781 193.989 14.4766C193.435 14.2752 192.859 14.1729 192.278 14.1729C191.613 14.1729 190.986 14.2801 190.414 14.4915C189.841 14.7028 189.332 15.004 188.9 15.3858C188.469 15.7685 188.113 16.2228 187.842 16.7354ZM199.19 16.3892C199.471 17.2021 199.614 17.9636 199.614 18.6534V20.7403H187.257C187.335 22.1858 187.801 23.367 188.644 24.2515C189.506 25.1547 190.728 25.6134 192.278 25.6134C192.986 25.6134 193.611 25.5315 194.133 25.37C194.654 25.209 195.106 24.9853 195.476 24.7053C195.844 24.4253 196.148 24.0959 196.378 23.726C196.609 23.3527 196.798 22.9482 196.939 22.5245L196.97 22.4312L199.454 23.1048L199.423 23.207C198.987 24.646 198.169 25.8361 196.992 26.7448C195.815 27.6534 194.208 28.1137 192.217 28.1137C191.117 28.1137 190.089 27.9186 189.164 27.5324C188.237 27.1468 187.429 26.5912 186.764 25.8816C186.098 25.1729 185.571 24.3176 185.197 23.3379C184.823 22.3601 184.633 21.2633 184.633 20.0791V19.3359C184.633 18.2524 184.829 17.2282 185.213 16.291C185.597 15.3527 186.141 14.5334 186.828 13.8554C187.514 13.1784 188.33 12.6391 189.256 12.2534C190.181 11.8682 191.198 11.6722 192.278 11.6722C193.545 11.6722 194.657 11.9107 195.585 12.3803C196.51 12.85 197.28 13.4361 197.873 14.125C198.465 14.8129 198.909 15.5744 199.19 16.3892Z" fill="white"/>
</svg>
