<svg width="33" height="32" viewBox="0 0 33 32" fill="none" xmlns="http://www.w3.org/2000/svg">
<path fill-rule="evenodd" clip-rule="evenodd" d="M32.0781 6.91576C30.9675 7.40518 29.7816 7.73835 28.5299 7.88894C29.8042 7.12282 30.7849 5.91247 31.2461 4.47059C30.0527 5.16706 28.7294 5.67529 27.3214 5.95765C26.1958 4.75294 24.592 4 22.8113 4C19.4005 4 16.6334 6.76706 16.6334 10.1741C16.6334 10.6635 16.6899 11.1341 16.7934 11.5859C11.6584 11.3412 7.10494 8.87529 4.05741 5.14824C3.52282 6.05365 3.22165 7.10776 3.22165 8.256C3.22165 10.4019 4.31341 12.2899 5.96988 13.3986C4.95718 13.3666 4.00282 13.088 3.17082 12.6268V12.7021C3.17082 15.6951 5.29788 18.1948 8.12706 18.7633C7.60753 18.9026 7.06165 18.9779 6.49882 18.9779C6.10353 18.9779 5.72706 18.9402 5.35059 18.8687C6.14118 21.3233 8.41882 23.1096 11.1294 23.1605C9.02118 24.8169 6.34824 25.8033 3.46824 25.8033C2.97882 25.8033 2.48941 25.7751 2 25.7186C4.74824 27.4692 7.98588 28.4932 11.4871 28.4932C22.8565 28.4932 29.0682 19.0814 29.0682 10.9308C29.0682 10.6673 29.0682 10.4038 29.0494 10.1402C30.2541 9.27435 31.3082 8.18259 32.1365 6.94024L32.0781 6.91576Z" fill="white"/>
</svg>
