<svg width="33" height="32" viewBox="0 0 33 32" fill="none" xmlns="http://www.w3.org/2000/svg">
<path fill-rule="evenodd" clip-rule="evenodd" d="M32.5781 6.91576C31.4675 7.40518 30.2816 7.73835 29.0299 7.88894C30.3042 7.12282 31.2849 5.91247 31.7461 4.47059C30.5527 5.16706 29.2294 5.67529 27.8214 5.95765C26.6958 4.75294 25.092 4 23.3113 4C19.9005 4 17.1334 6.76706 17.1334 10.1741C17.1334 10.6635 17.1899 11.1341 17.2934 11.5859C12.1584 11.3412 7.60494 8.87529 4.55741 5.14824C4.02282 6.05365 3.72165 7.10776 3.72165 8.256C3.72165 10.4019 4.81341 12.2899 6.46988 13.3986C5.45718 13.3666 4.50282 13.088 3.67082 12.6268V12.7021C3.67082 15.6951 5.79788 18.1948 8.62706 18.7633C8.10753 18.9026 7.56165 18.9779 6.99882 18.9779C6.60353 18.9779 6.22706 18.9402 5.85059 18.8687C6.64118 21.3233 8.91882 23.1096 11.6294 23.1605C9.52118 24.8169 6.84824 25.8033 3.96824 25.8033C3.47882 25.8033 2.98941 25.7751 2.5 25.7186C5.24824 27.4692 8.48588 28.4932 11.9871 28.4932C23.3565 28.4932 29.5682 19.0814 29.5682 10.9308C29.5682 10.6673 29.5682 10.4038 29.5494 10.1402C30.7541 9.27435 31.8082 8.18259 32.6365 6.94024L32.5781 6.91576Z" fill="white"/>
</svg>
